999
FreeCAD v1.0 39319 (Git)
  0
SECTION
  2
HEADER
  9
$ACADVER
  1
AC1014
  9
$ACADMAINTVER
 70
     9
  9
$DWGCODEPAGE
  3
ANSI_1252
  9
$TEXTSTYLE
  7
STANDARD
  9
$DIMSTYLE
  2
STANDARD
  9
$DIMTXSTY
  7
STANDARD
  9
$CMLSTYLE
  2
STANDARD
  9
$LUNITS
 70
2
  9
$INSUNITS
 70
4
  9
$PEXTMAX
 10
50
 20
50
 30
50
  9
$PEXTMIN
 10
0
 20
0
 30
0
  9
$HANDSEED
  5
FFFF
  0
ENDSEC
  0
SECTION
  2
CLASSES
  0
CLASS
  1
ACDBDICTIONARYWDFLT
  2
AcDbDictionaryWithDefault
  3
ObjectDBX Classes
 90
        0
280
     0
281
     0
  0
CLASS
  1
XRECORD
  2
AcDbXrecord
  3
ObjectDBX Classes
 90
        0
280
     0
281
     0
  0
CLASS
  1
LWPOLYLINE
  2
AcDbPolyline
  3
ObjectDBX Classes
 90
        0
280
     0
281
     1
  0
ENDSEC
  0
SECTION
  2
TABLES
  0
TABLE
  2
VPORT
  5
20
330
0
100
AcDbSymbolTable
 70
     1
  0
VPORT
  5
21
330
20
100
AcDbSymbolTableRecord
100
AcDbViewportTableRecord
  2
*ACTIVE
 70
     0
  0
ENDTAB
  0
TABLE
  2
LTYPE
  5
22
330
0
100
AcDbSymbolTable
 70
     1
  0
LTYPE
  5
23
330
21
100
AcDbSymbolTableRecord
100
AcDbLinetypeTableRecord
  2
BYBLOCK
 70
     0
  3

 72
    65
 73
     0
 40
0.0
  0
LTYPE
  5
24
330
21
100
AcDbSymbolTableRecord
100
AcDbLinetypeTableRecord
  2
BYLAYER
 70
     0
  3

 72
    65
 73
     0
 40
0.0
  0
LTYPE
  5
25
330
21
100
AcDbSymbolTableRecord
100
AcDbLinetypeTableRecord
  2
CONTINUOUS
 70
     0
  3
Solid line
 72
    65
 73
     0
 40
0.0
  0
ENDTAB
  0
TABLE
  2
LAYER
  5
A0A
330
0
100
AcDbSymbolTable
 70
4
  0
LAYER
  5
A0B
330
A0A
100
AcDbSymbolTableRecord
100
AcDbLayerTableRecord
  2
0
 70
   0
 62
   7
  6
CONTINUOUS
  0
LAYER
  5
A0C
330
A0A
100
AcDbSymbolTableRecord
100
AcDbLayerTableRecord
  2
none
 70
    0
 62
    7
  6
CONTINUOUS
  0
LAYER
  5
A0D
330
A0A
100
AcDbSymbolTableRecord
100
AcDbLayerTableRecord
  2
Sketch041
 70
    0
 62
    7
  6
CONTINUOUS
  0
LAYER
  5
A0E
330
A0A
100
AcDbSymbolTableRecord
100
AcDbLayerTableRecord
  2
Sketch043
 70
    0
 62
    7
  6
CONTINUOUS
  0
ENDTAB
  0
TABLE
  2
STYLE
  5
70
330
0
100
AcDbSymbolTable
 70
     2
  0
STYLE
  5
71
330
70
100
AcDbSymbolTableRecord
100
AcDbTextStyleTableRecord
  2
STANDARD
 70
     0
 40
0.0
 41
1.0
 50
0.0
 71
     0
 42
2.5
  3
arial.ttf
  4

  0
STYLE
  5
72
330
70
100
AcDbSymbolTableRecord
100
AcDbTextStyleTableRecord
  2
ANNOTATIVE
 70
     0
 40
0.0
 41
1.0
 50
0.0
 71
     0
 42
2.5
  3
arial.ttf
  4

  0
ENDTAB
  0
TABLE
  2
VIEW
  5
73
330
0
100
AcDbSymbolTable
 70
     0
  0
ENDTAB
  0
TABLE
  2
UCS
  5
74
330
0
100
AcDbSymbolTable
 70
     0
  0
ENDTAB
  0
TABLE
  2
APPID
  5
75
330
0
100
AcDbSymbolTable
 70
     2
  0
APPID
  5
76
330
75
100
AcDbSymbolTableRecord
100
AcDbRegAppTableRecord
  2
ACAD
 70
     0
  0
APPID
  5
77
330
75
100
AcDbSymbolTableRecord
100
AcDbRegAppTableRecord
  2
ACADANNOTATIVE
 70
     0
  0
ENDTAB
  0
TABLE
  2
DIMSTYLE
  5
78
330
0
100
AcDbSymbolTable
 70
     2
  0
DIMSTYLE
105
79
330
78
100
AcDbSymbolTableRecord
100
AcDbDimStyleTableRecord
  2
STANDARD
 70
     0
  3

  4

  5

  6

  7

 40
0.0
 41
2.5
 42
0.625
 43
3.75
 44
1.25
 45
0.0
 46
0.0
 47
0.0
 48
0.0
140
2.5
141
2.5
142
0.0
143
0.03937007874016
144
1.0
145
0.0
146
1.0
147
0.625
 71
     0
 72
     0
 73
     0
 74
     0
 75
     0
 76
     0
 77
     1
 78
     8
170
     0
171
     3
172
     1
173
     0
174
     0
175
     0
176
     0
177
     0
178
     0
270
     2
271
     2
272
     2
273
     2
274
     3
340
71
275
     0
280
     0
281
     0
282
     0
283
     0
284
     8
285
     0
286
     0
287
     3
288
     0
  0
ENDTAB
  0
TABLE
  2
BLOCK_RECORD
  5
A01
330
0
100
AcDbSymbolTable
  70
5
  0
BLOCK_RECORD
  5
A02
330
A01
100
AcDbSymbolTableRecord
100
AcDbBlockTableRecord
  2
*MODEL_SPACE
  0
BLOCK_RECORD
  5
A03
330
A01
100
AcDbSymbolTableRecord
100
AcDbBlockTableRecord
  2
*PAPER_SPACE
  0
ENDTAB
  0
ENDSEC
  0
SECTION
  2
BLOCKS
  0
BLOCK
  5
A04
330
A02
100
AcDbEntity
  8
0
100
AcDbBlockBegin
  2
*MODEL_SPACE
 70
   0
 10
0
 20
0
 30
0
  3
*MODEL_SPACE
  1
 
  0
ENDBLK
  5
A05
330
A02
100
AcDbEntity
  8
0
100
AcDbBlockEnd
  0
BLOCK
  5
A06
330
A03
100
AcDbEntity
 67
1
  8
0
100
AcDbBlockBegin
  2
*PAPER_SPACE
 70
   0
 10
0
 20
0
 30
0
  3
*PAPER_SPACE
  1
 
  0
ENDBLK
  5
A07
330
A03
100
AcDbEntity
 67
    1
  8
0
100
AcDbBlockEnd
  0
ENDSEC
  0
SECTION
  2
ENTITIES
  0
SPLINE
  5
A08
330
A02
100
AcDbEntity
  8
Sketch041
100
AcDbSpline
210
0
220
0
230
1
 70
9
 71
3
 72
95
 73
91
 74
0
 40
0.000000000
 40
0.000000000
 40
0.000000000
 40
0.000000000
 40
0.125000000
 40
0.125000000
 40
0.125000000
 40
0.187500000
 40
0.187500000
 40
0.187500000
 40
0.250000000
 40
0.250000000
 40
0.250000000
 40
0.312500000
 40
0.312500000
 40
0.312500000
 40
0.375000000
 40
0.375000000
 40
0.375000000
 40
0.437500000
 40
0.437500000
 40
0.437500000
 40
0.500000000
 40
0.500000000
 40
0.500000000
 40
0.562500000
 40
0.562500000
 40
0.562500000
 40
0.625000000
 40
0.625000000
 40
0.625000000
 40
0.687500000
 40
0.687500000
 40
0.687500000
 40
0.750000000
 40
0.750000000
 40
0.750000000
 40
0.812500000
 40
0.812500000
 40
0.812500000
 40
0.875000000
 40
0.875000000
 40
0.875000000
 40
0.937500000
 40
0.937500000
 40
0.937500000
 40
1.000000000
 40
1.000000000
 40
1.000000000
 40
1.062500000
 40
1.062500000
 40
1.062500000
 40
1.125000000
 40
1.125000000
 40
1.125000000
 40
1.187500000
 40
1.187500000
 40
1.187500000
 40
1.250000000
 40
1.250000000
 40
1.250000000
 40
1.312500000
 40
1.312500000
 40
1.312500000
 40
1.375000000
 40
1.375000000
 40
1.375000000
 40
1.437500000
 40
1.437500000
 40
1.437500000
 40
1.500000000
 40
1.500000000
 40
1.500000000
 40
1.562500000
 40
1.562500000
 40
1.562500000
 40
1.625000000
 40
1.625000000
 40
1.625000000
 40
1.687500000
 40
1.687500000
 40
1.687500000
 40
1.750000000
 40
1.750000000
 40
1.750000000
 40
1.812500000
 40
1.812500000
 40
1.812500000
 40
1.875000000
 40
1.875000000
 40
1.875000000
 40
2.000000000
 40
2.000000000
 40
2.000000000
 40
2.000000000
 10
-0.000018791
 20
-57.500000000
 30
0.000000000
 10
3.328797265
 20
-57.497657971
 30
0.000000000
 10
7.098745877
 20
-56.700798661
 30
0.000000000
 10
11.199981961
 20
-54.583674334
 30
0.000000000
 10
13.247467588
 20
-53.524465973
 30
0.000000000
 10
15.372928682
 20
-52.132053370
 30
0.000000000
 10
17.528072997
 20
-50.341904225
 30
0.000000000
 10
19.682098353
 20
-48.552679089
 30
0.000000000
 10
21.866069959
 20
-46.363715881
 30
0.000000000
 10
23.999984967
 20
-43.735940931
 30
0.000000000
 10
26.132875434
 20
-41.110115498
 30
0.000000000
 10
28.215017740
 20
-38.043138330
 30
0.000000000
 10
30.136973946
 20
-34.550617531
 30
0.000000000
 10
32.058553355
 20
-31.060933894
 30
0.000000000
 10
33.817868274
 20
-27.144328446
 30
0.000000000
 10
35.294108804
 20
-22.896947358
 30
0.000000000
 10
36.771176646
 20
-18.652447516
 30
0.000000000
 10
37.962154996
 20
-14.078420370
 30
0.000000000
 10
38.769226144
 20
-9.353601573
 30
0.000000000
 10
39.578397539
 20
-4.630364410
 30
0.000000000
 10
40.001327266
 20
0.239400330
 30
0.000000000
 10
40.000000000
 20
5.031246732
 30
0.000000000
 10
40.001330398
 20
9.823761703
 30
0.000000000
 10
39.578403802
 20
14.533149530
 30
0.000000000
 10
38.769235395
 20
18.954090735
 30
0.000000000
 10
37.962167237
 20
23.377670261
 30
0.000000000
 10
36.771191732
 20
27.509713621
 30
0.000000000
 10
35.294126490
 20
31.220699701
 30
0.000000000
 10
33.817888561
 20
34.934983269
 30
0.000000000
 10
32.058575999
 20
38.228478198
 30
0.000000000
 10
30.136998657
 20
41.065820825
 30
0.000000000
 10
28.215044520
 20
43.905811038
 30
0.000000000
 10
26.132903997
 20
46.292072820
 30
0.000000000
 10
24.000015033
 20
48.264059069
 30
0.000000000
 10
21.866101528
 20
50.237479361
 30
0.000000000
 10
19.682131148
 20
51.799312056
 30
0.000000000
 10
17.528106778
 20
53.028882292
 30
0.000000000
 10
15.372963450
 20
54.258813560
 30
0.000000000
 10
13.247503105
 20
55.158351563
 30
0.000000000
 10
11.200018039
 20
55.816325666
 30
0.000000000
 10
9.151627564
 20
56.474012040
 30
0.000000000
 10
7.180584775
 20
56.891040876
 30
0.000000000
 10
5.309753138
 20
57.147679882
 30
0.000000000
 10
3.438310152
 20
57.403767078
 30
0.000000000
 10
1.666460871
 20
57.499699411
 30
0.000000000
 10
0.000018791
 20
57.500000000
 30
0.000000000
 10
-1.666423290
 20
57.499700500
 30
0.000000000
 10
-3.438272668
 20
57.403769120
 30
0.000000000
 10
-5.309715889
 20
57.147682742
 30
0.000000000
 10
-7.180547761
 20
56.891044554
 30
0.000000000
 10
-9.151590924
 20
56.474016402
 30
0.000000000
 10
-11.199981961
 20
55.816330584
 30
0.000000000
 10
-13.247467588
 20
55.158357038
 30
0.000000000
 10
-15.372928682
 20
54.258819463
 30
0.000000000
 10
-17.528072997
 20
53.028888512
 30
0.000000000
 10
-19.682098353
 20
51.799318594
 30
0.000000000
 10
-21.866069959
 20
50.237486104
 30
0.000000000
 10
-23.999984967
 20
48.264065931
 30
0.000000000
 10
-26.132875434
 20
46.292079802
 30
0.000000000
 10
-28.215017740
 20
43.905818055
 30
0.000000000
 10
-30.136973946
 20
41.065827827
 30
0.000000000
 10
-32.058553355
 20
38.228485185
 30
0.000000000
 10
-33.817868274
 20
34.934990191
 30
0.000000000
 10
-35.294108804
 20
31.220706549
 30
0.000000000
 10
-36.771176646
 20
27.509720395
 30
0.000000000
 10
-37.962154996
 20
23.377676953
 30
0.000000000
 10
-38.769226144
 20
18.954097366
 30
0.000000000
 10
-39.578397539
 20
14.533156102
 30
0.000000000
 10
-40.001327266
 20
9.823768239
 30
0.000000000
 10
-40.000000000
 20
5.031253268
 30
0.000000000
 10
-40.001330398
 20
0.239406865
 30
0.000000000
 10
-39.578403802
 20
-4.630357839
 30
0.000000000
 10
-38.769235395
 20
-9.353594941
 30
0.000000000
 10
-37.962167237
 20
-14.078413679
 30
0.000000000
 10
-36.771191732
 20
-18.652440742
 30
0.000000000
 10
-35.294126490
 20
-22.896940510
 30
0.000000000
 10
-33.817888561
 20
-27.144321523
 30
0.000000000
 10
-32.058575999
 20
-31.060926908
 30
0.000000000
 10
-30.136998657
 20
-34.550610530
 30
0.000000000
 10
-28.215044520
 20
-38.043131313
 30
0.000000000
 10
-26.132903997
 20
-41.110108515
 30
0.000000000
 10
-24.000015033
 20
-43.735934069
 30
0.000000000
 10
-21.866101528
 20
-46.363709138
 30
0.000000000
 10
-19.682131148
 20
-48.552672551
 30
0.000000000
 10
-17.528106778
 20
-50.341898005
 30
0.000000000
 10
-15.372963450
 20
-52.132047466
 30
0.000000000
 10
-13.247503105
 20
-53.524460498
 30
0.000000000
 10
-11.200018039
 20
-54.583669416
 30
0.000000000
 10
-7.098783076
 20
-56.700794854
 30
0.000000000
 10
-3.328834844
 20
-57.497655791
 30
0.000000000
 10
-0.000018791
 20
-57.500000000
 30
0.000000000
  0
CIRCLE
  5
A09
330
A02
100
AcDbEntity
  8
Sketch043
100
AcDbCircle
 10
0.000000000
 20
0.000000000
 30
0.000000000
 40
0.725000000
  0
ENDSEC
  0
SECTION
  2
OBJECTS
  0
DICTIONARY
  5
F000
330
0
100
AcDbDictionary
  3
ACAD_GROUP
350
F001
  0
DICTIONARY
  5
F001
330
F000
100
AcDbDictionary
  0
ENDSEC
  0
EOF