999
FreeCAD v1.0 39319 (Git)
  0
SECTION
  2
HEADER
  9
$ACADVER
  1
AC1014
  9
$ACADMAINTVER
 70
     9
  9
$DWGCODEPAGE
  3
ANSI_1252
  9
$TEXTSTYLE
  7
STANDARD
  9
$DIMSTYLE
  2
STANDARD
  9
$DIMTXSTY
  7
STANDARD
  9
$CMLSTYLE
  2
STANDARD
  9
$LUNITS
 70
2
  9
$INSUNITS
 70
4
  9
$PEXTMAX
 10
50
 20
50
 30
50
  9
$PEXTMIN
 10
0
 20
0
 30
0
  9
$HANDSEED
  5
FFFF
  0
ENDSEC
  0
SECTION
  2
CLASSES
  0
CLASS
  1
ACDBDICTIONARYWDFLT
  2
AcDbDictionaryWithDefault
  3
ObjectDBX Classes
 90
        0
280
     0
281
     0
  0
CLASS
  1
XRECORD
  2
AcDbXrecord
  3
ObjectDBX Classes
 90
        0
280
     0
281
     0
  0
CLASS
  1
LWPOLYLINE
  2
AcDbPolyline
  3
ObjectDBX Classes
 90
        0
280
     0
281
     1
  0
ENDSEC
  0
SECTION
  2
TABLES
  0
TABLE
  2
VPORT
  5
20
330
0
100
AcDbSymbolTable
 70
     1
  0
VPORT
  5
21
330
20
100
AcDbSymbolTableRecord
100
AcDbViewportTableRecord
  2
*ACTIVE
 70
     0
  0
ENDTAB
  0
TABLE
  2
LTYPE
  5
22
330
0
100
AcDbSymbolTable
 70
     1
  0
LTYPE
  5
23
330
21
100
AcDbSymbolTableRecord
100
AcDbLinetypeTableRecord
  2
BYBLOCK
 70
     0
  3

 72
    65
 73
     0
 40
0.0
  0
LTYPE
  5
24
330
21
100
AcDbSymbolTableRecord
100
AcDbLinetypeTableRecord
  2
BYLAYER
 70
     0
  3

 72
    65
 73
     0
 40
0.0
  0
LTYPE
  5
25
330
21
100
AcDbSymbolTableRecord
100
AcDbLinetypeTableRecord
  2
CONTINUOUS
 70
     0
  3
Solid line
 72
    65
 73
     0
 40
0.0
  0
ENDTAB
  0
TABLE
  2
LAYER
  5
A68
330
0
100
AcDbSymbolTable
 70
3
  0
LAYER
  5
A69
330
A68
100
AcDbSymbolTableRecord
100
AcDbLayerTableRecord
  2
0
 70
   0
 62
   7
  6
CONTINUOUS
  0
LAYER
  5
A6A
330
A68
100
AcDbSymbolTableRecord
100
AcDbLayerTableRecord
  2
none
 70
    0
 62
    7
  6
CONTINUOUS
  0
LAYER
  5
A6B
330
A68
100
AcDbSymbolTableRecord
100
AcDbLayerTableRecord
  2
Body006
 70
    0
 62
    7
  6
CONTINUOUS
  0
ENDTAB
  0
TABLE
  2
STYLE
  5
70
330
0
100
AcDbSymbolTable
 70
     2
  0
STYLE
  5
71
330
70
100
AcDbSymbolTableRecord
100
AcDbTextStyleTableRecord
  2
STANDARD
 70
     0
 40
0.0
 41
1.0
 50
0.0
 71
     0
 42
2.5
  3
arial.ttf
  4

  0
STYLE
  5
72
330
70
100
AcDbSymbolTableRecord
100
AcDbTextStyleTableRecord
  2
ANNOTATIVE
 70
     0
 40
0.0
 41
1.0
 50
0.0
 71
     0
 42
2.5
  3
arial.ttf
  4

  0
ENDTAB
  0
TABLE
  2
VIEW
  5
73
330
0
100
AcDbSymbolTable
 70
     0
  0
ENDTAB
  0
TABLE
  2
UCS
  5
74
330
0
100
AcDbSymbolTable
 70
     0
  0
ENDTAB
  0
TABLE
  2
APPID
  5
75
330
0
100
AcDbSymbolTable
 70
     2
  0
APPID
  5
76
330
75
100
AcDbSymbolTableRecord
100
AcDbRegAppTableRecord
  2
ACAD
 70
     0
  0
APPID
  5
77
330
75
100
AcDbSymbolTableRecord
100
AcDbRegAppTableRecord
  2
ACADANNOTATIVE
 70
     0
  0
ENDTAB
  0
TABLE
  2
DIMSTYLE
  5
78
330
0
100
AcDbSymbolTable
 70
     2
  0
DIMSTYLE
105
79
330
78
100
AcDbSymbolTableRecord
100
AcDbDimStyleTableRecord
  2
STANDARD
 70
     0
  3

  4

  5

  6

  7

 40
0.0
 41
2.5
 42
0.625
 43
3.75
 44
1.25
 45
0.0
 46
0.0
 47
0.0
 48
0.0
140
2.5
141
2.5
142
0.0
143
0.03937007874016
144
1.0
145
0.0
146
1.0
147
0.625
 71
     0
 72
     0
 73
     0
 74
     0
 75
     0
 76
     0
 77
     1
 78
     8
170
     0
171
     3
172
     1
173
     0
174
     0
175
     0
176
     0
177
     0
178
     0
270
     2
271
     2
272
     2
273
     2
274
     3
340
71
275
     0
280
     0
281
     0
282
     0
283
     0
284
     8
285
     0
286
     0
287
     3
288
     0
  0
ENDTAB
  0
TABLE
  2
BLOCK_RECORD
  5
A01
330
0
100
AcDbSymbolTable
  70
5
  0
BLOCK_RECORD
  5
A02
330
A01
100
AcDbSymbolTableRecord
100
AcDbBlockTableRecord
  2
*MODEL_SPACE
  0
BLOCK_RECORD
  5
A03
330
A01
100
AcDbSymbolTableRecord
100
AcDbBlockTableRecord
  2
*PAPER_SPACE
  0
ENDTAB
  0
ENDSEC
  0
SECTION
  2
BLOCKS
  0
BLOCK
  5
A04
330
A02
100
AcDbEntity
  8
0
100
AcDbBlockBegin
  2
*MODEL_SPACE
 70
   0
 10
0
 20
0
 30
0
  3
*MODEL_SPACE
  1
 
  0
ENDBLK
  5
A05
330
A02
100
AcDbEntity
  8
0
100
AcDbBlockEnd
  0
BLOCK
  5
A06
330
A03
100
AcDbEntity
 67
1
  8
0
100
AcDbBlockBegin
  2
*PAPER_SPACE
 70
   0
 10
0
 20
0
 30
0
  3
*PAPER_SPACE
  1
 
  0
ENDBLK
  5
A07
330
A03
100
AcDbEntity
 67
    1
  8
0
100
AcDbBlockEnd
  0
ENDSEC
  0
SECTION
  2
ENTITIES
  0
SPLINE
  5
A08
330
A02
100
AcDbEntity
  8
Body006
100
AcDbSpline
210
0
220
0
230
1
 70
8
 71
3
 72
17
 73
13
 74
0
 40
0.039666234
 40
0.039666234
 40
0.039666234
 40
0.039666234
 40
0.118536804
 40
0.118536804
 40
0.118536804
 40
0.197407374
 40
0.197407374
 40
0.197407374
 40
0.276277945
 40
0.276277945
 40
0.276277945
 40
0.355148515
 40
0.355148515
 40
0.355148515
 40
0.355148515
 10
-3.803899316
 20
63.104518532
 30
8.000000000
 10
-6.426411780
 20
62.899060820
 30
8.000000000
 10
-9.241961091
 20
62.458962172
 30
8.000000000
 10
-12.208254955
 20
61.614363866
 30
8.000000000
 10
-15.171989608
 20
60.768909398
 30
8.000000000
 10
-18.288804536
 20
59.516037683
 30
8.000000000
 10
-21.444477015
 20
57.659771472
 30
8.000000000
 10
-24.596893770
 20
55.804992746
 30
8.000000000
 10
-27.788682192
 20
53.339700903
 30
8.000000000
 10
-30.812402599
 20
50.106985753
 30
8.000000000
 10
-33.833808210
 20
46.879726740
 30
8.000000000
 10
-36.682482857
 20
42.875419674
 30
8.000000000
 10
-39.082276333
 20
38.090208504
 30
8.000000000
  0
SPLINE
  5
A09
330
A02
100
AcDbEntity
  8
Body006
100
AcDbSpline
210
0
220
0
230
1
 70
8
 71
1
 72
4
 73
2
 74
0
 40
0.000329583
 40
0.000329583
 40
0.999670417
 40
0.999670417
 10
-39.082276333
 20
38.090208504
 30
9.000000000
 10
-39.082276333
 20
38.090208504
 30
8.000000000
  0
SPLINE
  5
A0A
330
A02
100
AcDbEntity
  8
Body006
100
AcDbSpline
210
0
220
0
230
1
 70
8
 71
3
 72
17
 73
13
 74
0
 40
0.039666234
 40
0.039666234
 40
0.039666234
 40
0.039666234
 40
0.118536804
 40
0.118536804
 40
0.118536804
 40
0.197407374
 40
0.197407374
 40
0.197407374
 40
0.276277945
 40
0.276277945
 40
0.276277945
 40
0.355148515
 40
0.355148515
 40
0.355148515
 40
0.355148515
 10
-3.803899316
 20
63.104518532
 30
9.000000000
 10
-6.426411780
 20
62.899060820
 30
9.000000000
 10
-9.241961091
 20
62.458962172
 30
9.000000000
 10
-12.208254955
 20
61.614363866
 30
9.000000000
 10
-15.171989608
 20
60.768909398
 30
9.000000000
 10
-18.288804536
 20
59.516037683
 30
9.000000000
 10
-21.444477015
 20
57.659771472
 30
9.000000000
 10
-24.596893770
 20
55.804992746
 30
9.000000000
 10
-27.788682192
 20
53.339700903
 30
9.000000000
 10
-30.812402599
 20
50.106985753
 30
9.000000000
 10
-33.833808210
 20
46.879726740
 30
9.000000000
 10
-36.682482857
 20
42.875419674
 30
9.000000000
 10
-39.082276333
 20
38.090208504
 30
9.000000000
  0
SPLINE
  5
A0B
330
A02
100
AcDbEntity
  8
Body006
100
AcDbSpline
210
0
220
0
230
1
 70
8
 71
1
 72
4
 73
2
 74
0
 40
0.000329583
 40
0.000329583
 40
0.999670417
 40
0.999670417
 10
-3.803899316
 20
63.104518532
 30
9.000000000
 10
-3.803899316
 20
63.104518532
 30
8.000000000
  0
SPLINE
  5
A0C
330
A02
100
AcDbEntity
  8
Body006
100
AcDbSpline
210
0
220
0
230
1
 70
8
 71
3
 72
17
 73
13
 74
0
 40
1.644905146
 40
1.644905146
 40
1.644905146
 40
1.644905146
 40
1.723813177
 40
1.723813177
 40
1.723813177
 40
1.802721208
 40
1.802721208
 40
1.802721208
 40
1.881629238
 40
1.881629238
 40
1.881629238
 40
1.960537269
 40
1.960537269
 40
1.960537269
 40
1.960537269
 10
39.088400840
 20
38.095979705
 30
8.000000000
 10
36.688543950
 20
42.882389364
 30
8.000000000
 10
33.839346339
 20
46.887082724
 30
8.000000000
 10
30.817301593
 20
50.114161831
 30
8.000000000
 10
27.792937337
 20
53.346702117
 30
8.000000000
 10
24.600395293
 20
55.811276817
 30
8.000000000
 10
21.447316768
 20
57.665177605
 30
8.000000000
 10
18.290977442
 20
59.520562983
 30
8.000000000
 10
15.173583158
 20
60.772402849
 30
8.000000000
 10
12.209413190
 20
61.616966046
 30
8.000000000
 10
9.242681269
 20
62.460668201
 30
8.000000000
 10
6.426832604
 20
62.900010319
 30
8.000000000
 10
3.804140358
 20
63.105002338
 30
8.000000000
  0
ARC
  5
A0D
330
A02
100
AcDbEntity
  8
Body006
100
AcDbCircle
 10
42.000000000
 20
35.000000000
 30
8.000000000
 40
4.250000000
100
AcDbArc
 50
133.242068532
 51
-87.531302297
  0
SPLINE
  5
A0E
330
A02
100
AcDbEntity
  8
Body006
100
AcDbSpline
210
0
220
0
230
1
 70
8
 71
3
 72
17
 73
13
 74
0
 40
1.348808605
 40
1.348808605
 40
1.348808605
 40
1.348808605
 40
1.413427296
 40
1.413427296
 40
1.413427296
 40
1.478045988
 40
1.478045988
 40
1.478045988
 40
1.542664680
 40
1.542664680
 40
1.542664680
 40
1.607283372
 40
1.607283372
 40
1.607283372
 40
1.607283372
 10
38.495070699
 20
-30.868131863
 30
8.000000000
 10
40.519320324
 20
-26.374129099
 30
8.000000000
 10
42.253311334
 20
-21.430872289
 30
8.000000000
 10
43.554161393
 20
-16.217801047
 30
8.000000000
 10
44.857189563
 20
-11.007534187
 30
8.000000000
 10
45.723215193
 20
-5.531622231
 30
8.000000000
 10
46.071107059
 20
-0.050459398
 30
8.000000000
 10
46.422402402
 20
5.430501555
 30
8.000000000
 10
46.254295922
 20
10.909919371
 30
8.000000000
 10
45.583112331
 20
16.121335362
 30
8.000000000
 10
44.915074900
 20
21.335408340
 30
8.000000000
 10
43.746304091
 20
26.276254368
 30
8.000000000
 10
42.183062684
 20
30.753944412
 30
8.000000000
  0
ARC
  5
A0F
330
A02
100
AcDbEntity
  8
Body006
100
AcDbCircle
 10
37.500000000
 20
-35.000000000
 30
8.000000000
 40
4.250000000
100
AcDbArc
 50
76.459402822
 51
-130.836884109
  0
SPLINE
  5
A10
330
A02
100
AcDbEntity
  8
Body006
100
AcDbSpline
210
0
220
0
230
1
 70
8
 71
3
 72
14
 73
10
 74
0
 40
1.100207972
 40
1.100207972
 40
1.100207972
 40
1.100207972
 40
1.205800687
 40
1.205800687
 40
1.205800687
 40
1.258597044
 40
1.258597044
 40
1.258597044
 40
1.311393402
 40
1.311393402
 40
1.311393402
 40
1.311393402
 10
10.165275752
 20
-61.262755526
 30
8.000000000
 10
14.035516092
 20
-59.765541793
 30
8.000000000
 10
18.218498819
 20
-57.304339705
 30
8.000000000
 10
22.452258988
 20
-53.536762550
 30
8.000000000
 10
24.566295090
 20
-51.654621002
 30
8.000000000
 10
26.687760234
 20
-49.447298792
 30
8.000000000
 10
28.756026127
 20
-46.894854951
 30
8.000000000
 10
30.823708585
 20
-44.343586449
 30
8.000000000
 10
32.837762641
 20
-41.446098192
 30
8.000000000
 10
34.720891920
 20
-38.215440604
 30
8.000000000
  0
ARC
  5
A11
330
A02
100
AcDbEntity
  8
Body006
100
AcDbCircle
 10
7.000000000
 20
-62.000000000
 30
8.000000000
 40
3.250000000
100
AcDbArc
 50
13.111362399
 51
-162.960958118
  0
SPLINE
  5
A12
330
A02
100
AcDbEntity
  8
Body006
100
AcDbSpline
210
0
220
0
230
1
 70
8
 71
2
 72
6
 73
3
 74
0
 40
1.034084511
 40
1.034084511
 40
1.034084511
 40
1.040554978
 40
1.040554978
 40
1.040554978
 10
3.249730778
 20
-63.041831431
 30
8.000000000
 10
3.569294059
 20
-63.001281319
 30
8.000000000
 10
3.892657745
 20
-62.952325633
 30
8.000000000
  0
ARC
  5
A13
330
A02
100
AcDbEntity
  8
Body006
100
AcDbCircle
 10
0.000000000
 20
-63.000000000
 30
8.000000000
 40
3.250000000
100
AcDbArc
 50
-0.737486347
 51
0.000000000
  0
ARC
  5
A14
330
A02
100
AcDbEntity
  8
Body006
100
AcDbCircle
 10
0.000000000
 20
-63.000000000
 30
8.000000000
 40
3.250000000
100
AcDbArc
 50
0.000000000
 51
-179.233367297
  0
SPLINE
  5
A15
330
A02
100
AcDbEntity
  8
Body006
100
AcDbSpline
210
0
220
0
230
1
 70
8
 71
3
 72
17
 73
13
 74
0
 40
0.688663818
 40
0.688663818
 40
0.688663818
 40
0.688663818
 40
0.758028846
 40
0.758028846
 40
0.758028846
 40
0.827393875
 40
0.827393875
 40
0.827393875
 40
0.896758904
 40
0.896758904
 40
0.896758904
 40
0.966123933
 40
0.966123933
 40
0.966123933
 40
0.966123933
 10
-34.728387209
 20
-38.221903558
 30
8.000000000
 10
-32.254732763
 20
-42.466593322
 30
8.000000000
 10
-29.556897745
 20
-46.131359999
 30
8.000000000
 10
-26.804964996
 20
-49.200220402
 30
8.000000000
 10
-24.051190318
 20
-52.272105212
 30
8.000000000
 10
-21.244370473
 20
-54.752417201
 30
8.000000000
 10
-18.501490382
 20
-56.709860255
 30
8.000000000
 10
-15.756715237
 20
-58.668505132
 30
8.000000000
 10
-13.075115788
 20
-60.107662032
 30
8.000000000
 10
-10.519976970
 20
-61.128750750
 30
8.000000000
 10
-7.963428611
 20
-62.149832461
 30
8.000000000
 10
-5.532074854
 20
-62.754628461
 30
8.000000000
 10
-3.249709078
 20
-63.043484563
 30
8.000000000
  0
ARC
  5
A16
330
A02
100
AcDbEntity
  8
Body006
100
AcDbCircle
 10
-37.500000000
 20
-35.000000000
 30
8.000000000
 40
4.250000000
100
AcDbArc
 50
-49.296539931
 51
0.000000000
  0
ARC
  5
A17
330
A02
100
AcDbEntity
  8
Body006
100
AcDbCircle
 10
-37.500000000
 20
-35.000000000
 30
8.000000000
 40
4.250000000
100
AcDbArc
 50
0.000000000
 51
103.660981415
  0
SPLINE
  5
A18
330
A02
100
AcDbEntity
  8
Body006
100
AcDbSpline
210
0
220
0
230
1
 70
8
 71
3
 72
17
 73
13
 74
0
 40
0.392736855
 40
0.392736855
 40
0.392736855
 40
0.392736855
 40
0.457357794
 40
0.457357794
 40
0.457357794
 40
0.521978732
 40
0.521978732
 40
0.521978732
 40
0.586599671
 40
0.586599671
 40
0.586599671
 40
0.651220609
 40
0.651220609
 40
0.651220609
 40
0.651220609
 10
-42.176074025
 20
30.753648868
 30
8.000000000
 10
-43.740675395
 20
26.275474357
 30
8.000000000
 10
-44.910864131
 20
21.334154950
 30
8.000000000
 10
-45.580319830
 20
16.119691980
 30
8.000000000
 10
-46.252921856
 20
10.907885023
 30
8.000000000
 10
-46.422445895
 20
5.428162143
 30
8.000000000
 10
-46.072514552
 20
-0.052973482
 30
8.000000000
 10
-45.725987265
 20
-5.534312732
 30
8.000000000
 10
-44.861272135
 20
-11.010270014
 30
8.000000000
 10
-43.559464381
 20
-16.220457010
 30
8.000000000
 10
-42.259835403
 20
-21.433449914
 30
8.000000000
 10
-40.526975532
 20
-26.376504795
 30
8.000000000
 10
-38.503749970
 20
-30.870231726
 30
8.000000000
  0
ARC
  5
A19
330
A02
100
AcDbEntity
  8
Body006
100
AcDbCircle
 10
-42.000000000
 20
35.000000000
 30
8.000000000
 40
4.250000000
100
AcDbArc
 50
-92.374396853
 51
0.000000000
  0
ARC
  5
A1A
330
A02
100
AcDbEntity
  8
Body006
100
AcDbCircle
 10
-42.000000000
 20
35.000000000
 30
8.000000000
 40
4.250000000
100
AcDbArc
 50
0.000000000
 51
46.644482501
  0
SPLINE
  5
A1B
330
A02
100
AcDbEntity
  8
Body006
100
AcDbSpline
210
0
220
0
230
1
 70
8
 71
3
 72
17
 73
13
 74
0
 40
0.039666234
 40
0.039666234
 40
0.039666234
 40
0.039666234
 40
0.118536804
 40
0.118536804
 40
0.118536804
 40
0.197407374
 40
0.197407374
 40
0.197407374
 40
0.276277945
 40
0.276277945
 40
0.276277945
 40
0.355148515
 40
0.355148515
 40
0.355148515
 40
0.355148515
 10
-3.803899316
 20
63.104518532
 30
8.000000000
 10
-6.426411780
 20
62.899060820
 30
8.000000000
 10
-9.241961091
 20
62.458962172
 30
8.000000000
 10
-12.208254955
 20
61.614363866
 30
8.000000000
 10
-15.171989608
 20
60.768909398
 30
8.000000000
 10
-18.288804536
 20
59.516037683
 30
8.000000000
 10
-21.444477015
 20
57.659771472
 30
8.000000000
 10
-24.596893770
 20
55.804992746
 30
8.000000000
 10
-27.788682192
 20
53.339700903
 30
8.000000000
 10
-30.812402599
 20
50.106985753
 30
8.000000000
 10
-33.833808210
 20
46.879726740
 30
8.000000000
 10
-36.682482857
 20
42.875419674
 30
8.000000000
 10
-39.082276333
 20
38.090208504
 30
8.000000000
  0
ARC
  5
A1C
330
A02
100
AcDbEntity
  8
Body006
100
AcDbCircle
 10
0.000000000
 20
65.000000000
 30
8.000000000
 40
4.250000000
100
AcDbArc
 50
-153.512942896
 51
-26.479770064
  0
ARC
  5
A1D
330
A02
100
AcDbEntity
  8
Body006
100
AcDbCircle
 10
-42.000000000
 20
35.000000000
 30
8.000000000
 40
4.250000000
100
AcDbArc
 50
-92.374396853
 51
0.000000000
  0
SPLINE
  5
A1E
330
A02
100
AcDbEntity
  8
Body006
100
AcDbSpline
210
0
220
0
230
1
 70
8
 71
1
 72
4
 73
2
 74
0
 40
0.000329583
 40
0.000329583
 40
0.999670417
 40
0.999670417
 10
-42.176074025
 20
30.753648868
 30
9.000000000
 10
-42.176074025
 20
30.753648868
 30
8.000000000
  0
ARC
  5
A1F
330
A02
100
AcDbEntity
  8
Body006
100
AcDbCircle
 10
-42.000000000
 20
35.000000000
 30
9.000000000
 40
4.250000000
100
AcDbArc
 50
-92.374396853
 51
0.000000000
  0
ARC
  5
A20
330
A02
100
AcDbEntity
  8
Body006
100
AcDbCircle
 10
-42.000000000
 20
35.000000000
 30
9.000000000
 40
4.250000000
100
AcDbArc
 50
0.000000000
 51
46.644482501
  0
SPLINE
  5
A21
330
A02
100
AcDbEntity
  8
Body006
100
AcDbSpline
210
0
220
0
230
1
 70
8
 71
1
 72
4
 73
2
 74
0
 40
0.000329583
 40
0.000329583
 40
0.999670417
 40
0.999670417
 10
-39.082276333
 20
38.090208504
 30
9.000000000
 10
-39.082276333
 20
38.090208504
 30
8.000000000
  0
ARC
  5
A22
330
A02
100
AcDbEntity
  8
Body006
100
AcDbCircle
 10
-42.000000000
 20
35.000000000
 30
8.000000000
 40
4.250000000
100
AcDbArc
 50
0.000000000
 51
46.644482501
  0
ARC
  5
A23
330
A02
100
AcDbEntity
  8
Body006
100
AcDbCircle
 10
0.000000000
 20
65.000000000
 30
9.000000000
 40
4.250000000
100
AcDbArc
 50
-153.512942896
 51
-26.479770064
  0
SPLINE
  5
A24
330
A02
100
AcDbEntity
  8
Body006
100
AcDbSpline
210
0
220
0
230
1
 70
8
 71
3
 72
17
 73
13
 74
0
 40
1.644905146
 40
1.644905146
 40
1.644905146
 40
1.644905146
 40
1.723813177
 40
1.723813177
 40
1.723813177
 40
1.802721208
 40
1.802721208
 40
1.802721208
 40
1.881629238
 40
1.881629238
 40
1.881629238
 40
1.960537269
 40
1.960537269
 40
1.960537269
 40
1.960537269
 10
39.088400840
 20
38.095979705
 30
9.000000000
 10
36.688543950
 20
42.882389364
 30
9.000000000
 10
33.839346339
 20
46.887082724
 30
9.000000000
 10
30.817301593
 20
50.114161831
 30
9.000000000
 10
27.792937337
 20
53.346702117
 30
9.000000000
 10
24.600395293
 20
55.811276817
 30
9.000000000
 10
21.447316768
 20
57.665177605
 30
9.000000000
 10
18.290977442
 20
59.520562983
 30
9.000000000
 10
15.173583158
 20
60.772402849
 30
9.000000000
 10
12.209413190
 20
61.616966046
 30
9.000000000
 10
9.242681269
 20
62.460668201
 30
9.000000000
 10
6.426832604
 20
62.900010319
 30
9.000000000
 10
3.804140358
 20
63.105002338
 30
9.000000000
  0
ARC
  5
A25
330
A02
100
AcDbEntity
  8
Body006
100
AcDbCircle
 10
42.000000000
 20
35.000000000
 30
9.000000000
 40
4.250000000
100
AcDbArc
 50
133.242068532
 51
-87.531302297
  0
SPLINE
  5
A26
330
A02
100
AcDbEntity
  8
Body006
100
AcDbSpline
210
0
220
0
230
1
 70
8
 71
3
 72
17
 73
13
 74
0
 40
1.348808605
 40
1.348808605
 40
1.348808605
 40
1.348808605
 40
1.413427296
 40
1.413427296
 40
1.413427296
 40
1.478045988
 40
1.478045988
 40
1.478045988
 40
1.542664680
 40
1.542664680
 40
1.542664680
 40
1.607283372
 40
1.607283372
 40
1.607283372
 40
1.607283372
 10
38.495070699
 20
-30.868131863
 30
9.000000000
 10
40.519320324
 20
-26.374129099
 30
9.000000000
 10
42.253311334
 20
-21.430872289
 30
9.000000000
 10
43.554161393
 20
-16.217801047
 30
9.000000000
 10
44.857189563
 20
-11.007534187
 30
9.000000000
 10
45.723215193
 20
-5.531622231
 30
9.000000000
 10
46.071107059
 20
-0.050459398
 30
9.000000000
 10
46.422402402
 20
5.430501555
 30
9.000000000
 10
46.254295922
 20
10.909919371
 30
9.000000000
 10
45.583112331
 20
16.121335362
 30
9.000000000
 10
44.915074900
 20
21.335408340
 30
9.000000000
 10
43.746304091
 20
26.276254368
 30
9.000000000
 10
42.183062684
 20
30.753944412
 30
9.000000000
  0
ARC
  5
A27
330
A02
100
AcDbEntity
  8
Body006
100
AcDbCircle
 10
37.500000000
 20
-35.000000000
 30
9.000000000
 40
4.250000000
100
AcDbArc
 50
76.459402822
 51
-130.836884109
  0
SPLINE
  5
A28
330
A02
100
AcDbEntity
  8
Body006
100
AcDbSpline
210
0
220
0
230
1
 70
8
 71
3
 72
14
 73
10
 74
0
 40
1.100207972
 40
1.100207972
 40
1.100207972
 40
1.100207972
 40
1.205800687
 40
1.205800687
 40
1.205800687
 40
1.258597044
 40
1.258597044
 40
1.258597044
 40
1.311393402
 40
1.311393402
 40
1.311393402
 40
1.311393402
 10
10.165275752
 20
-61.262755526
 30
9.000000000
 10
14.035516092
 20
-59.765541793
 30
9.000000000
 10
18.218498819
 20
-57.304339705
 30
9.000000000
 10
22.452258988
 20
-53.536762550
 30
9.000000000
 10
24.566295090
 20
-51.654621002
 30
9.000000000
 10
26.687760234
 20
-49.447298792
 30
9.000000000
 10
28.756026127
 20
-46.894854951
 30
9.000000000
 10
30.823708585
 20
-44.343586449
 30
9.000000000
 10
32.837762641
 20
-41.446098192
 30
9.000000000
 10
34.720891920
 20
-38.215440604
 30
9.000000000
  0
ARC
  5
A29
330
A02
100
AcDbEntity
  8
Body006
100
AcDbCircle
 10
7.000000000
 20
-62.000000000
 30
9.000000000
 40
3.250000000
100
AcDbArc
 50
13.111362399
 51
-162.960958118
  0
SPLINE
  5
A2A
330
A02
100
AcDbEntity
  8
Body006
100
AcDbSpline
210
0
220
0
230
1
 70
8
 71
2
 72
6
 73
3
 74
0
 40
1.034084511
 40
1.034084511
 40
1.034084511
 40
1.040554978
 40
1.040554978
 40
1.040554978
 10
3.249730778
 20
-63.041831431
 30
9.000000000
 10
3.569294059
 20
-63.001281319
 30
9.000000000
 10
3.892657745
 20
-62.952325633
 30
9.000000000
  0
ARC
  5
A2B
330
A02
100
AcDbEntity
  8
Body006
100
AcDbCircle
 10
0.000000000
 20
-63.000000000
 30
9.000000000
 40
3.250000000
100
AcDbArc
 50
-0.737486347
 51
0.000000000
  0
ARC
  5
A2C
330
A02
100
AcDbEntity
  8
Body006
100
AcDbCircle
 10
0.000000000
 20
-63.000000000
 30
9.000000000
 40
3.250000000
100
AcDbArc
 50
0.000000000
 51
-179.233367297
  0
SPLINE
  5
A2D
330
A02
100
AcDbEntity
  8
Body006
100
AcDbSpline
210
0
220
0
230
1
 70
8
 71
3
 72
17
 73
13
 74
0
 40
0.688663818
 40
0.688663818
 40
0.688663818
 40
0.688663818
 40
0.758028846
 40
0.758028846
 40
0.758028846
 40
0.827393875
 40
0.827393875
 40
0.827393875
 40
0.896758904
 40
0.896758904
 40
0.896758904
 40
0.966123933
 40
0.966123933
 40
0.966123933
 40
0.966123933
 10
-34.728387209
 20
-38.221903558
 30
9.000000000
 10
-32.254732763
 20
-42.466593322
 30
9.000000000
 10
-29.556897745
 20
-46.131359999
 30
9.000000000
 10
-26.804964996
 20
-49.200220402
 30
9.000000000
 10
-24.051190318
 20
-52.272105212
 30
9.000000000
 10
-21.244370473
 20
-54.752417201
 30
9.000000000
 10
-18.501490382
 20
-56.709860255
 30
9.000000000
 10
-15.756715237
 20
-58.668505132
 30
9.000000000
 10
-13.075115788
 20
-60.107662032
 30
9.000000000
 10
-10.519976970
 20
-61.128750750
 30
9.000000000
 10
-7.963428611
 20
-62.149832461
 30
9.000000000
 10
-5.532074854
 20
-62.754628461
 30
9.000000000
 10
-3.249709078
 20
-63.043484563
 30
9.000000000
  0
ARC
  5
A2E
330
A02
100
AcDbEntity
  8
Body006
100
AcDbCircle
 10
-37.500000000
 20
-35.000000000
 30
9.000000000
 40
4.250000000
100
AcDbArc
 50
-49.296539931
 51
0.000000000
  0
ARC
  5
A2F
330
A02
100
AcDbEntity
  8
Body006
100
AcDbCircle
 10
-37.500000000
 20
-35.000000000
 30
9.000000000
 40
4.250000000
100
AcDbArc
 50
0.000000000
 51
103.660981415
  0
SPLINE
  5
A30
330
A02
100
AcDbEntity
  8
Body006
100
AcDbSpline
210
0
220
0
230
1
 70
8
 71
3
 72
17
 73
13
 74
0
 40
0.392736855
 40
0.392736855
 40
0.392736855
 40
0.392736855
 40
0.457357794
 40
0.457357794
 40
0.457357794
 40
0.521978732
 40
0.521978732
 40
0.521978732
 40
0.586599671
 40
0.586599671
 40
0.586599671
 40
0.651220609
 40
0.651220609
 40
0.651220609
 40
0.651220609
 10
-42.176074025
 20
30.753648868
 30
9.000000000
 10
-43.740675395
 20
26.275474357
 30
9.000000000
 10
-44.910864131
 20
21.334154950
 30
9.000000000
 10
-45.580319830
 20
16.119691980
 30
9.000000000
 10
-46.252921856
 20
10.907885023
 30
9.000000000
 10
-46.422445895
 20
5.428162143
 30
9.000000000
 10
-46.072514552
 20
-0.052973482
 30
9.000000000
 10
-45.725987265
 20
-5.534312732
 30
9.000000000
 10
-44.861272135
 20
-11.010270014
 30
9.000000000
 10
-43.559464381
 20
-16.220457010
 30
9.000000000
 10
-42.259835403
 20
-21.433449914
 30
9.000000000
 10
-40.526975532
 20
-26.376504795
 30
9.000000000
 10
-38.503749970
 20
-30.870231726
 30
9.000000000
  0
ARC
  5
A31
330
A02
100
AcDbEntity
  8
Body006
100
AcDbCircle
 10
-42.000000000
 20
35.000000000
 30
9.000000000
 40
4.250000000
100
AcDbArc
 50
-92.374396853
 51
0.000000000
  0
ARC
  5
A32
330
A02
100
AcDbEntity
  8
Body006
100
AcDbCircle
 10
-42.000000000
 20
35.000000000
 30
9.000000000
 40
4.250000000
100
AcDbArc
 50
0.000000000
 51
46.644482501
  0
SPLINE
  5
A33
330
A02
100
AcDbEntity
  8
Body006
100
AcDbSpline
210
0
220
0
230
1
 70
8
 71
3
 72
17
 73
13
 74
0
 40
0.039666234
 40
0.039666234
 40
0.039666234
 40
0.039666234
 40
0.118536804
 40
0.118536804
 40
0.118536804
 40
0.197407374
 40
0.197407374
 40
0.197407374
 40
0.276277945
 40
0.276277945
 40
0.276277945
 40
0.355148515
 40
0.355148515
 40
0.355148515
 40
0.355148515
 10
-3.803899316
 20
63.104518532
 30
9.000000000
 10
-6.426411780
 20
62.899060820
 30
9.000000000
 10
-9.241961091
 20
62.458962172
 30
9.000000000
 10
-12.208254955
 20
61.614363866
 30
9.000000000
 10
-15.171989608
 20
60.768909398
 30
9.000000000
 10
-18.288804536
 20
59.516037683
 30
9.000000000
 10
-21.444477015
 20
57.659771472
 30
9.000000000
 10
-24.596893770
 20
55.804992746
 30
9.000000000
 10
-27.788682192
 20
53.339700903
 30
9.000000000
 10
-30.812402599
 20
50.106985753
 30
9.000000000
 10
-33.833808210
 20
46.879726740
 30
9.000000000
 10
-36.682482857
 20
42.875419674
 30
9.000000000
 10
-39.082276333
 20
38.090208504
 30
9.000000000
  0
SPLINE
  5
A34
330
A02
100
AcDbEntity
  8
Body006
100
AcDbSpline
210
0
220
0
230
1
 70
8
 71
1
 72
4
 73
2
 74
0
 40
0.000329583
 40
0.000329583
 40
0.999670417
 40
0.999670417
 10
-3.803899316
 20
63.104518532
 30
9.000000000
 10
-3.803899316
 20
63.104518532
 30
8.000000000
  0
ARC
  5
A35
330
A02
100
AcDbEntity
  8
Body006
100
AcDbCircle
 10
0.000000000
 20
65.000000000
 30
8.000000000
 40
4.250000000
100
AcDbArc
 50
-153.512942896
 51
-26.479770064
  0
SPLINE
  5
A36
330
A02
100
AcDbEntity
  8
Body006
100
AcDbSpline
210
0
220
0
230
1
 70
8
 71
1
 72
4
 73
2
 74
0
 40
0.000329583
 40
0.000329583
 40
0.999670417
 40
0.999670417
 10
3.804140358
 20
63.105002338
 30
9.000000000
 10
3.804140358
 20
63.105002338
 30
8.000000000
  0
ARC
  5
A37
330
A02
100
AcDbEntity
  8
Body006
100
AcDbCircle
 10
0.000000000
 20
65.000000000
 30
9.000000000
 40
4.250000000
100
AcDbArc
 50
-153.512942896
 51
-26.479770064
  0
SPLINE
  5
A38
330
A02
100
AcDbEntity
  8
Body006
100
AcDbSpline
210
0
220
0
230
1
 70
8
 71
1
 72
4
 73
2
 74
0
 40
0.000329583
 40
0.000329583
 40
0.999670417
 40
0.999670417
 10
3.804140358
 20
63.105002338
 30
9.000000000
 10
3.804140358
 20
63.105002338
 30
8.000000000
  0
SPLINE
  5
A39
330
A02
100
AcDbEntity
  8
Body006
100
AcDbSpline
210
0
220
0
230
1
 70
8
 71
3
 72
17
 73
13
 74
0
 40
1.644905146
 40
1.644905146
 40
1.644905146
 40
1.644905146
 40
1.723813177
 40
1.723813177
 40
1.723813177
 40
1.802721208
 40
1.802721208
 40
1.802721208
 40
1.881629238
 40
1.881629238
 40
1.881629238
 40
1.960537269
 40
1.960537269
 40
1.960537269
 40
1.960537269
 10
39.088400840
 20
38.095979705
 30
9.000000000
 10
36.688543950
 20
42.882389364
 30
9.000000000
 10
33.839346339
 20
46.887082724
 30
9.000000000
 10
30.817301593
 20
50.114161831
 30
9.000000000
 10
27.792937337
 20
53.346702117
 30
9.000000000
 10
24.600395293
 20
55.811276817
 30
9.000000000
 10
21.447316768
 20
57.665177605
 30
9.000000000
 10
18.290977442
 20
59.520562983
 30
9.000000000
 10
15.173583158
 20
60.772402849
 30
9.000000000
 10
12.209413190
 20
61.616966046
 30
9.000000000
 10
9.242681269
 20
62.460668201
 30
9.000000000
 10
6.426832604
 20
62.900010319
 30
9.000000000
 10
3.804140358
 20
63.105002338
 30
9.000000000
  0
SPLINE
  5
A3A
330
A02
100
AcDbEntity
  8
Body006
100
AcDbSpline
210
0
220
0
230
1
 70
8
 71
1
 72
4
 73
2
 74
0
 40
0.000329583
 40
0.000329583
 40
0.999670417
 40
0.999670417
 10
39.088400840
 20
38.095979705
 30
9.000000000
 10
39.088400840
 20
38.095979705
 30
8.000000000
  0
SPLINE
  5
A3B
330
A02
100
AcDbEntity
  8
Body006
100
AcDbSpline
210
0
220
0
230
1
 70
8
 71
3
 72
17
 73
13
 74
0
 40
1.644905146
 40
1.644905146
 40
1.644905146
 40
1.644905146
 40
1.723813177
 40
1.723813177
 40
1.723813177
 40
1.802721208
 40
1.802721208
 40
1.802721208
 40
1.881629238
 40
1.881629238
 40
1.881629238
 40
1.960537269
 40
1.960537269
 40
1.960537269
 40
1.960537269
 10
39.088400840
 20
38.095979705
 30
8.000000000
 10
36.688543950
 20
42.882389364
 30
8.000000000
 10
33.839346339
 20
46.887082724
 30
8.000000000
 10
30.817301593
 20
50.114161831
 30
8.000000000
 10
27.792937337
 20
53.346702117
 30
8.000000000
 10
24.600395293
 20
55.811276817
 30
8.000000000
 10
21.447316768
 20
57.665177605
 30
8.000000000
 10
18.290977442
 20
59.520562983
 30
8.000000000
 10
15.173583158
 20
60.772402849
 30
8.000000000
 10
12.209413190
 20
61.616966046
 30
8.000000000
 10
9.242681269
 20
62.460668201
 30
8.000000000
 10
6.426832604
 20
62.900010319
 30
8.000000000
 10
3.804140358
 20
63.105002338
 30
8.000000000
  0
SPLINE
  5
A3C
330
A02
100
AcDbEntity
  8
Body006
100
AcDbSpline
210
0
220
0
230
1
 70
8
 71
1
 72
4
 73
2
 74
0
 40
0.000329583
 40
0.000329583
 40
0.999670417
 40
0.999670417
 10
39.088400840
 20
38.095979705
 30
9.000000000
 10
39.088400840
 20
38.095979705
 30
8.000000000
  0
ARC
  5
A3D
330
A02
100
AcDbEntity
  8
Body006
100
AcDbCircle
 10
42.000000000
 20
35.000000000
 30
8.000000000
 40
4.250000000
100
AcDbArc
 50
133.242068532
 51
-87.531302297
  0
SPLINE
  5
A3E
330
A02
100
AcDbEntity
  8
Body006
100
AcDbSpline
210
0
220
0
230
1
 70
8
 71
1
 72
4
 73
2
 74
0
 40
0.000329583
 40
0.000329583
 40
0.999670417
 40
0.999670417
 10
42.183062684
 20
30.753944412
 30
9.000000000
 10
42.183062684
 20
30.753944412
 30
8.000000000
  0
ARC
  5
A3F
330
A02
100
AcDbEntity
  8
Body006
100
AcDbCircle
 10
42.000000000
 20
35.000000000
 30
9.000000000
 40
4.250000000
100
AcDbArc
 50
133.242068532
 51
-87.531302297
  0
SPLINE
  5
A40
330
A02
100
AcDbEntity
  8
Body006
100
AcDbSpline
210
0
220
0
230
1
 70
8
 71
1
 72
4
 73
2
 74
0
 40
0.000329583
 40
0.000329583
 40
0.999670417
 40
0.999670417
 10
42.183062684
 20
30.753944412
 30
9.000000000
 10
42.183062684
 20
30.753944412
 30
8.000000000
  0
SPLINE
  5
A41
330
A02
100
AcDbEntity
  8
Body006
100
AcDbSpline
210
0
220
0
230
1
 70
8
 71
3
 72
17
 73
13
 74
0
 40
1.348808605
 40
1.348808605
 40
1.348808605
 40
1.348808605
 40
1.413427296
 40
1.413427296
 40
1.413427296
 40
1.478045988
 40
1.478045988
 40
1.478045988
 40
1.542664680
 40
1.542664680
 40
1.542664680
 40
1.607283372
 40
1.607283372
 40
1.607283372
 40
1.607283372
 10
38.495070699
 20
-30.868131863
 30
9.000000000
 10
40.519320324
 20
-26.374129099
 30
9.000000000
 10
42.253311334
 20
-21.430872289
 30
9.000000000
 10
43.554161393
 20
-16.217801047
 30
9.000000000
 10
44.857189563
 20
-11.007534187
 30
9.000000000
 10
45.723215193
 20
-5.531622231
 30
9.000000000
 10
46.071107059
 20
-0.050459398
 30
9.000000000
 10
46.422402402
 20
5.430501555
 30
9.000000000
 10
46.254295922
 20
10.909919371
 30
9.000000000
 10
45.583112331
 20
16.121335362
 30
9.000000000
 10
44.915074900
 20
21.335408340
 30
9.000000000
 10
43.746304091
 20
26.276254368
 30
9.000000000
 10
42.183062684
 20
30.753944412
 30
9.000000000
  0
SPLINE
  5
A42
330
A02
100
AcDbEntity
  8
Body006
100
AcDbSpline
210
0
220
0
230
1
 70
8
 71
1
 72
4
 73
2
 74
0
 40
0.000329583
 40
0.000329583
 40
0.999670417
 40
0.999670417
 10
38.495070699
 20
-30.868131863
 30
9.000000000
 10
38.495070699
 20
-30.868131863
 30
8.000000000
  0
SPLINE
  5
A43
330
A02
100
AcDbEntity
  8
Body006
100
AcDbSpline
210
0
220
0
230
1
 70
8
 71
3
 72
17
 73
13
 74
0
 40
1.348808605
 40
1.348808605
 40
1.348808605
 40
1.348808605
 40
1.413427296
 40
1.413427296
 40
1.413427296
 40
1.478045988
 40
1.478045988
 40
1.478045988
 40
1.542664680
 40
1.542664680
 40
1.542664680
 40
1.607283372
 40
1.607283372
 40
1.607283372
 40
1.607283372
 10
38.495070699
 20
-30.868131863
 30
8.000000000
 10
40.519320324
 20
-26.374129099
 30
8.000000000
 10
42.253311334
 20
-21.430872289
 30
8.000000000
 10
43.554161393
 20
-16.217801047
 30
8.000000000
 10
44.857189563
 20
-11.007534187
 30
8.000000000
 10
45.723215193
 20
-5.531622231
 30
8.000000000
 10
46.071107059
 20
-0.050459398
 30
8.000000000
 10
46.422402402
 20
5.430501555
 30
8.000000000
 10
46.254295922
 20
10.909919371
 30
8.000000000
 10
45.583112331
 20
16.121335362
 30
8.000000000
 10
44.915074900
 20
21.335408340
 30
8.000000000
 10
43.746304091
 20
26.276254368
 30
8.000000000
 10
42.183062684
 20
30.753944412
 30
8.000000000
  0
SPLINE
  5
A44
330
A02
100
AcDbEntity
  8
Body006
100
AcDbSpline
210
0
220
0
230
1
 70
8
 71
1
 72
4
 73
2
 74
0
 40
0.000329583
 40
0.000329583
 40
0.999670417
 40
0.999670417
 10
38.495070699
 20
-30.868131863
 30
9.000000000
 10
38.495070699
 20
-30.868131863
 30
8.000000000
  0
ARC
  5
A45
330
A02
100
AcDbEntity
  8
Body006
100
AcDbCircle
 10
37.500000000
 20
-35.000000000
 30
8.000000000
 40
4.250000000
100
AcDbArc
 50
76.459402822
 51
-130.836884109
  0
SPLINE
  5
A46
330
A02
100
AcDbEntity
  8
Body006
100
AcDbSpline
210
0
220
0
230
1
 70
8
 71
1
 72
4
 73
2
 74
0
 40
0.000329583
 40
0.000329583
 40
0.999670417
 40
0.999670417
 10
34.720891920
 20
-38.215440604
 30
9.000000000
 10
34.720891920
 20
-38.215440604
 30
8.000000000
  0
ARC
  5
A47
330
A02
100
AcDbEntity
  8
Body006
100
AcDbCircle
 10
37.500000000
 20
-35.000000000
 30
9.000000000
 40
4.250000000
100
AcDbArc
 50
76.459402822
 51
-130.836884109
  0
SPLINE
  5
A48
330
A02
100
AcDbEntity
  8
Body006
100
AcDbSpline
210
0
220
0
230
1
 70
8
 71
3
 72
14
 73
10
 74
0
 40
1.100207972
 40
1.100207972
 40
1.100207972
 40
1.100207972
 40
1.205800687
 40
1.205800687
 40
1.205800687
 40
1.258597044
 40
1.258597044
 40
1.258597044
 40
1.311393402
 40
1.311393402
 40
1.311393402
 40
1.311393402
 10
10.165275752
 20
-61.262755526
 30
8.000000000
 10
14.035516092
 20
-59.765541793
 30
8.000000000
 10
18.218498819
 20
-57.304339705
 30
8.000000000
 10
22.452258988
 20
-53.536762550
 30
8.000000000
 10
24.566295090
 20
-51.654621002
 30
8.000000000
 10
26.687760234
 20
-49.447298792
 30
8.000000000
 10
28.756026127
 20
-46.894854951
 30
8.000000000
 10
30.823708585
 20
-44.343586449
 30
8.000000000
 10
32.837762641
 20
-41.446098192
 30
8.000000000
 10
34.720891920
 20
-38.215440604
 30
8.000000000
  0
SPLINE
  5
A49
330
A02
100
AcDbEntity
  8
Body006
100
AcDbSpline
210
0
220
0
230
1
 70
8
 71
1
 72
4
 73
2
 74
0
 40
0.000329583
 40
0.000329583
 40
0.999670417
 40
0.999670417
 10
34.720891920
 20
-38.215440604
 30
9.000000000
 10
34.720891920
 20
-38.215440604
 30
8.000000000
  0
SPLINE
  5
A4A
330
A02
100
AcDbEntity
  8
Body006
100
AcDbSpline
210
0
220
0
230
1
 70
8
 71
3
 72
14
 73
10
 74
0
 40
1.100207972
 40
1.100207972
 40
1.100207972
 40
1.100207972
 40
1.205800687
 40
1.205800687
 40
1.205800687
 40
1.258597044
 40
1.258597044
 40
1.258597044
 40
1.311393402
 40
1.311393402
 40
1.311393402
 40
1.311393402
 10
10.165275752
 20
-61.262755526
 30
9.000000000
 10
14.035516092
 20
-59.765541793
 30
9.000000000
 10
18.218498819
 20
-57.304339705
 30
9.000000000
 10
22.452258988
 20
-53.536762550
 30
9.000000000
 10
24.566295090
 20
-51.654621002
 30
9.000000000
 10
26.687760234
 20
-49.447298792
 30
9.000000000
 10
28.756026127
 20
-46.894854951
 30
9.000000000
 10
30.823708585
 20
-44.343586449
 30
9.000000000
 10
32.837762641
 20
-41.446098192
 30
9.000000000
 10
34.720891920
 20
-38.215440604
 30
9.000000000
  0
SPLINE
  5
A4B
330
A02
100
AcDbEntity
  8
Body006
100
AcDbSpline
210
0
220
0
230
1
 70
8
 71
1
 72
4
 73
2
 74
0
 40
0.000323971
 40
0.000323971
 40
0.999676029
 40
0.999676029
 10
10.165275752
 20
-61.262755526
 30
9.000000000
 10
10.165275752
 20
-61.262755526
 30
8.000000000
  0
SPLINE
  5
A4C
330
A02
100
AcDbEntity
  8
Body006
100
AcDbSpline
210
0
220
0
230
1
 70
8
 71
1
 72
4
 73
2
 74
0
 40
0.000323971
 40
0.000323971
 40
0.999676029
 40
0.999676029
 10
10.165275752
 20
-61.262755526
 30
9.000000000
 10
10.165275752
 20
-61.262755526
 30
8.000000000
  0
ARC
  5
A4D
330
A02
100
AcDbEntity
  8
Body006
100
AcDbCircle
 10
7.000000000
 20
-62.000000000
 30
8.000000000
 40
3.250000000
100
AcDbArc
 50
13.111362399
 51
-162.960958118
  0
SPLINE
  5
A4E
330
A02
100
AcDbEntity
  8
Body006
100
AcDbSpline
210
0
220
0
230
1
 70
8
 71
1
 72
4
 73
2
 74
0
 40
0.000323971
 40
0.000323971
 40
0.999676029
 40
0.999676029
 10
3.892657745
 20
-62.952325633
 30
9.000000000
 10
3.892657745
 20
-62.952325633
 30
8.000000000
  0
ARC
  5
A4F
330
A02
100
AcDbEntity
  8
Body006
100
AcDbCircle
 10
7.000000000
 20
-62.000000000
 30
9.000000000
 40
3.250000000
100
AcDbArc
 50
13.111362399
 51
-162.960958118
  0
SPLINE
  5
A50
330
A02
100
AcDbEntity
  8
Body006
100
AcDbSpline
210
0
220
0
230
1
 70
8
 71
2
 72
6
 73
3
 74
0
 40
1.034084511
 40
1.034084511
 40
1.034084511
 40
1.040554978
 40
1.040554978
 40
1.040554978
 10
3.249730778
 20
-63.041831431
 30
8.000000000
 10
3.569294059
 20
-63.001281319
 30
8.000000000
 10
3.892657745
 20
-62.952325633
 30
8.000000000
  0
SPLINE
  5
A51
330
A02
100
AcDbEntity
  8
Body006
100
AcDbSpline
210
0
220
0
230
1
 70
8
 71
1
 72
4
 73
2
 74
0
 40
0.000323971
 40
0.000323971
 40
0.999676029
 40
0.999676029
 10
3.892657745
 20
-62.952325633
 30
9.000000000
 10
3.892657745
 20
-62.952325633
 30
8.000000000
  0
SPLINE
  5
A52
330
A02
100
AcDbEntity
  8
Body006
100
AcDbSpline
210
0
220
0
230
1
 70
8
 71
2
 72
6
 73
3
 74
0
 40
1.034084511
 40
1.034084511
 40
1.034084511
 40
1.040554978
 40
1.040554978
 40
1.040554978
 10
3.249730778
 20
-63.041831431
 30
9.000000000
 10
3.569294059
 20
-63.001281319
 30
9.000000000
 10
3.892657745
 20
-62.952325633
 30
9.000000000
  0
SPLINE
  5
A53
330
A02
100
AcDbEntity
  8
Body006
100
AcDbSpline
210
0
220
0
230
1
 70
8
 71
1
 72
4
 73
2
 74
0
 40
0.000323971
 40
0.000323971
 40
0.999676029
 40
0.999676029
 10
3.249730778
 20
-63.041831431
 30
9.000000000
 10
3.249730778
 20
-63.041831431
 30
8.000000000
  0
SPLINE
  5
A54
330
A02
100
AcDbEntity
  8
Body006
100
AcDbSpline
210
0
220
0
230
1
 70
8
 71
3
 72
17
 73
13
 74
0
 40
0.688663818
 40
0.688663818
 40
0.688663818
 40
0.688663818
 40
0.758028846
 40
0.758028846
 40
0.758028846
 40
0.827393875
 40
0.827393875
 40
0.827393875
 40
0.896758904
 40
0.896758904
 40
0.896758904
 40
0.966123933
 40
0.966123933
 40
0.966123933
 40
0.966123933
 10
-34.728387209
 20
-38.221903558
 30
8.000000000
 10
-32.254732763
 20
-42.466593322
 30
8.000000000
 10
-29.556897745
 20
-46.131359999
 30
8.000000000
 10
-26.804964996
 20
-49.200220402
 30
8.000000000
 10
-24.051190318
 20
-52.272105212
 30
8.000000000
 10
-21.244370473
 20
-54.752417201
 30
8.000000000
 10
-18.501490382
 20
-56.709860255
 30
8.000000000
 10
-15.756715237
 20
-58.668505132
 30
8.000000000
 10
-13.075115788
 20
-60.107662032
 30
8.000000000
 10
-10.519976970
 20
-61.128750750
 30
8.000000000
 10
-7.963428611
 20
-62.149832461
 30
8.000000000
 10
-5.532074854
 20
-62.754628461
 30
8.000000000
 10
-3.249709078
 20
-63.043484563
 30
8.000000000
  0
SPLINE
  5
A55
330
A02
100
AcDbEntity
  8
Body006
100
AcDbSpline
210
0
220
0
230
1
 70
8
 71
1
 72
4
 73
2
 74
0
 40
0.000323971
 40
0.000323971
 40
0.999676029
 40
0.999676029
 10
-3.249709078
 20
-63.043484563
 30
9.000000000
 10
-3.249709078
 20
-63.043484563
 30
8.000000000
  0
SPLINE
  5
A56
330
A02
100
AcDbEntity
  8
Body006
100
AcDbSpline
210
0
220
0
230
1
 70
8
 71
3
 72
17
 73
13
 74
0
 40
0.688663818
 40
0.688663818
 40
0.688663818
 40
0.688663818
 40
0.758028846
 40
0.758028846
 40
0.758028846
 40
0.827393875
 40
0.827393875
 40
0.827393875
 40
0.896758904
 40
0.896758904
 40
0.896758904
 40
0.966123933
 40
0.966123933
 40
0.966123933
 40
0.966123933
 10
-34.728387209
 20
-38.221903558
 30
9.000000000
 10
-32.254732763
 20
-42.466593322
 30
9.000000000
 10
-29.556897745
 20
-46.131359999
 30
9.000000000
 10
-26.804964996
 20
-49.200220402
 30
9.000000000
 10
-24.051190318
 20
-52.272105212
 30
9.000000000
 10
-21.244370473
 20
-54.752417201
 30
9.000000000
 10
-18.501490382
 20
-56.709860255
 30
9.000000000
 10
-15.756715237
 20
-58.668505132
 30
9.000000000
 10
-13.075115788
 20
-60.107662032
 30
9.000000000
 10
-10.519976970
 20
-61.128750750
 30
9.000000000
 10
-7.963428611
 20
-62.149832461
 30
9.000000000
 10
-5.532074854
 20
-62.754628461
 30
9.000000000
 10
-3.249709078
 20
-63.043484563
 30
9.000000000
  0
SPLINE
  5
A57
330
A02
100
AcDbEntity
  8
Body006
100
AcDbSpline
210
0
220
0
230
1
 70
8
 71
1
 72
4
 73
2
 74
0
 40
0.000329583
 40
0.000329583
 40
0.999670417
 40
0.999670417
 10
-34.728387209
 20
-38.221903558
 30
9.000000000
 10
-34.728387209
 20
-38.221903558
 30
8.000000000
  0
ARC
  5
A58
330
A02
100
AcDbEntity
  8
Body006
100
AcDbCircle
 10
-37.500000000
 20
-35.000000000
 30
9.000000000
 40
4.250000000
100
AcDbArc
 50
0.000000000
 51
103.660981415
  0
SPLINE
  5
A59
330
A02
100
AcDbEntity
  8
Body006
100
AcDbSpline
210
0
220
0
230
1
 70
8
 71
1
 72
4
 73
2
 74
0
 40
0.000329583
 40
0.000329583
 40
0.999670417
 40
0.999670417
 10
-38.503749970
 20
-30.870231726
 30
9.000000000
 10
-38.503749970
 20
-30.870231726
 30
8.000000000
  0
ARC
  5
A5A
330
A02
100
AcDbEntity
  8
Body006
100
AcDbCircle
 10
-37.500000000
 20
-35.000000000
 30
8.000000000
 40
4.250000000
100
AcDbArc
 50
0.000000000
 51
103.660981415
  0
ARC
  5
A5B
330
A02
100
AcDbEntity
  8
Body006
100
AcDbCircle
 10
-37.500000000
 20
-35.000000000
 30
8.000000000
 40
4.250000000
100
AcDbArc
 50
-49.296539931
 51
0.000000000
  0
SPLINE
  5
A5C
330
A02
100
AcDbEntity
  8
Body006
100
AcDbSpline
210
0
220
0
230
1
 70
8
 71
1
 72
4
 73
2
 74
0
 40
0.000329583
 40
0.000329583
 40
0.999670417
 40
0.999670417
 10
-34.728387209
 20
-38.221903558
 30
9.000000000
 10
-34.728387209
 20
-38.221903558
 30
8.000000000
  0
ARC
  5
A5D
330
A02
100
AcDbEntity
  8
Body006
100
AcDbCircle
 10
-37.500000000
 20
-35.000000000
 30
9.000000000
 40
4.250000000
100
AcDbArc
 50
-49.296539931
 51
0.000000000
  0
SPLINE
  5
A5E
330
A02
100
AcDbEntity
  8
Body006
100
AcDbSpline
210
0
220
0
230
1
 70
8
 71
3
 72
17
 73
13
 74
0
 40
0.392736855
 40
0.392736855
 40
0.392736855
 40
0.392736855
 40
0.457357794
 40
0.457357794
 40
0.457357794
 40
0.521978732
 40
0.521978732
 40
0.521978732
 40
0.586599671
 40
0.586599671
 40
0.586599671
 40
0.651220609
 40
0.651220609
 40
0.651220609
 40
0.651220609
 10
-42.176074025
 20
30.753648868
 30
8.000000000
 10
-43.740675395
 20
26.275474357
 30
8.000000000
 10
-44.910864131
 20
21.334154950
 30
8.000000000
 10
-45.580319830
 20
16.119691980
 30
8.000000000
 10
-46.252921856
 20
10.907885023
 30
8.000000000
 10
-46.422445895
 20
5.428162143
 30
8.000000000
 10
-46.072514552
 20
-0.052973482
 30
8.000000000
 10
-45.725987265
 20
-5.534312732
 30
8.000000000
 10
-44.861272135
 20
-11.010270014
 30
8.000000000
 10
-43.559464381
 20
-16.220457010
 30
8.000000000
 10
-42.259835403
 20
-21.433449914
 30
8.000000000
 10
-40.526975532
 20
-26.376504795
 30
8.000000000
 10
-38.503749970
 20
-30.870231726
 30
8.000000000
  0
SPLINE
  5
A5F
330
A02
100
AcDbEntity
  8
Body006
100
AcDbSpline
210
0
220
0
230
1
 70
8
 71
1
 72
4
 73
2
 74
0
 40
0.000329583
 40
0.000329583
 40
0.999670417
 40
0.999670417
 10
-38.503749970
 20
-30.870231726
 30
9.000000000
 10
-38.503749970
 20
-30.870231726
 30
8.000000000
  0
SPLINE
  5
A60
330
A02
100
AcDbEntity
  8
Body006
100
AcDbSpline
210
0
220
0
230
1
 70
8
 71
3
 72
17
 73
13
 74
0
 40
0.392736855
 40
0.392736855
 40
0.392736855
 40
0.392736855
 40
0.457357794
 40
0.457357794
 40
0.457357794
 40
0.521978732
 40
0.521978732
 40
0.521978732
 40
0.586599671
 40
0.586599671
 40
0.586599671
 40
0.651220609
 40
0.651220609
 40
0.651220609
 40
0.651220609
 10
-42.176074025
 20
30.753648868
 30
9.000000000
 10
-43.740675395
 20
26.275474357
 30
9.000000000
 10
-44.910864131
 20
21.334154950
 30
9.000000000
 10
-45.580319830
 20
16.119691980
 30
9.000000000
 10
-46.252921856
 20
10.907885023
 30
9.000000000
 10
-46.422445895
 20
5.428162143
 30
9.000000000
 10
-46.072514552
 20
-0.052973482
 30
9.000000000
 10
-45.725987265
 20
-5.534312732
 30
9.000000000
 10
-44.861272135
 20
-11.010270014
 30
9.000000000
 10
-43.559464381
 20
-16.220457010
 30
9.000000000
 10
-42.259835403
 20
-21.433449914
 30
9.000000000
 10
-40.526975532
 20
-26.376504795
 30
9.000000000
 10
-38.503749970
 20
-30.870231726
 30
9.000000000
  0
SPLINE
  5
A61
330
A02
100
AcDbEntity
  8
Body006
100
AcDbSpline
210
0
220
0
230
1
 70
8
 71
1
 72
4
 73
2
 74
0
 40
0.000329583
 40
0.000329583
 40
0.999670417
 40
0.999670417
 10
-42.176074025
 20
30.753648868
 30
9.000000000
 10
-42.176074025
 20
30.753648868
 30
8.000000000
  0
ARC
  5
A62
330
A02
100
AcDbEntity
  8
Body006
100
AcDbCircle
 10
0.000000000
 20
-63.000000000
 30
9.000000000
 40
3.250000000
100
AcDbArc
 50
0.000000000
 51
-179.233367297
  0
SPLINE
  5
A63
330
A02
100
AcDbEntity
  8
Body006
100
AcDbSpline
210
0
220
0
230
1
 70
8
 71
1
 72
4
 73
2
 74
0
 40
0.000323971
 40
0.000323971
 40
0.999676029
 40
0.999676029
 10
-3.249709078
 20
-63.043484563
 30
9.000000000
 10
-3.249709078
 20
-63.043484563
 30
8.000000000
  0
ARC
  5
A64
330
A02
100
AcDbEntity
  8
Body006
100
AcDbCircle
 10
0.000000000
 20
-63.000000000
 30
8.000000000
 40
3.250000000
100
AcDbArc
 50
0.000000000
 51
-179.233367297
  0
ARC
  5
A65
330
A02
100
AcDbEntity
  8
Body006
100
AcDbCircle
 10
0.000000000
 20
-63.000000000
 30
8.000000000
 40
3.250000000
100
AcDbArc
 50
-0.737486347
 51
0.000000000
  0
SPLINE
  5
A66
330
A02
100
AcDbEntity
  8
Body006
100
AcDbSpline
210
0
220
0
230
1
 70
8
 71
1
 72
4
 73
2
 74
0
 40
0.000323971
 40
0.000323971
 40
0.999676029
 40
0.999676029
 10
3.249730778
 20
-63.041831431
 30
9.000000000
 10
3.249730778
 20
-63.041831431
 30
8.000000000
  0
ARC
  5
A67
330
A02
100
AcDbEntity
  8
Body006
100
AcDbCircle
 10
0.000000000
 20
-63.000000000
 30
9.000000000
 40
3.250000000
100
AcDbArc
 50
-0.737486347
 51
0.000000000
  0
ENDSEC
  0
SECTION
  2
OBJECTS
  0
DICTIONARY
  5
F000
330
0
100
AcDbDictionary
  3
ACAD_GROUP
350
F001
  0
DICTIONARY
  5
F001
330
F000
100
AcDbDictionary
  0
ENDSEC
  0
EOF