999
FreeCAD v1.0 39285 (Git)
  0
SECTION
  2
HEADER
  9
$ACADVER
  1
AC1014
  9
$ACADMAINTVER
 70
     9
  9
$DWGCODEPAGE
  3
ANSI_1252
  9
$TEXTSTYLE
  7
STANDARD
  9
$DIMSTYLE
  2
STANDARD
  9
$DIMTXSTY
  7
STANDARD
  9
$CMLSTYLE
  2
STANDARD
  9
$LUNITS
 70
2
  9
$INSUNITS
 70
4
  9
$PEXTMAX
 10
50
 20
50
 30
50
  9
$PEXTMIN
 10
0
 20
0
 30
0
  9
$HANDSEED
  5
FFFF
  0
ENDSEC
  0
SECTION
  2
CLASSES
  0
CLASS
  1
ACDBDICTIONARYWDFLT
  2
AcDbDictionaryWithDefault
  3
ObjectDBX Classes
 90
        0
280
     0
281
     0
  0
CLASS
  1
XRECORD
  2
AcDbXrecord
  3
ObjectDBX Classes
 90
        0
280
     0
281
     0
  0
CLASS
  1
LWPOLYLINE
  2
AcDbPolyline
  3
ObjectDBX Classes
 90
        0
280
     0
281
     1
  0
ENDSEC
  0
SECTION
  2
TABLES
  0
TABLE
  2
VPORT
  5
20
330
0
100
AcDbSymbolTable
 70
     1
  0
VPORT
  5
21
330
20
100
AcDbSymbolTableRecord
100
AcDbViewportTableRecord
  2
*ACTIVE
 70
     0
  0
ENDTAB
  0
TABLE
  2
LTYPE
  5
22
330
0
100
AcDbSymbolTable
 70
     1
  0
LTYPE
  5
23
330
21
100
AcDbSymbolTableRecord
100
AcDbLinetypeTableRecord
  2
BYBLOCK
 70
     0
  3

 72
    65
 73
     0
 40
0.0
  0
LTYPE
  5
24
330
21
100
AcDbSymbolTableRecord
100
AcDbLinetypeTableRecord
  2
BYLAYER
 70
     0
  3

 72
    65
 73
     0
 40
0.0
  0
LTYPE
  5
25
330
21
100
AcDbSymbolTableRecord
100
AcDbLinetypeTableRecord
  2
CONTINUOUS
 70
     0
  3
Solid line
 72
    65
 73
     0
 40
0.0
  0
ENDTAB
  0
TABLE
  2
LAYER
  5
A4C
330
0
100
AcDbSymbolTable
 70
3
  0
LAYER
  5
A4D
330
A4C
100
AcDbSymbolTableRecord
100
AcDbLayerTableRecord
  2
0
 70
   0
 62
   7
  6
CONTINUOUS
  0
LAYER
  5
A4E
330
A4C
100
AcDbSymbolTableRecord
100
AcDbLayerTableRecord
  2
none
 70
    0
 62
    7
  6
CONTINUOUS
  0
LAYER
  5
A4F
330
A4C
100
AcDbSymbolTableRecord
100
AcDbLayerTableRecord
  2
Body005
 70
    0
 62
    7
  6
CONTINUOUS
  0
ENDTAB
  0
TABLE
  2
STYLE
  5
70
330
0
100
AcDbSymbolTable
 70
     2
  0
STYLE
  5
71
330
70
100
AcDbSymbolTableRecord
100
AcDbTextStyleTableRecord
  2
STANDARD
 70
     0
 40
0.0
 41
1.0
 50
0.0
 71
     0
 42
2.5
  3
arial.ttf
  4

  0
STYLE
  5
72
330
70
100
AcDbSymbolTableRecord
100
AcDbTextStyleTableRecord
  2
ANNOTATIVE
 70
     0
 40
0.0
 41
1.0
 50
0.0
 71
     0
 42
2.5
  3
arial.ttf
  4

  0
ENDTAB
  0
TABLE
  2
VIEW
  5
73
330
0
100
AcDbSymbolTable
 70
     0
  0
ENDTAB
  0
TABLE
  2
UCS
  5
74
330
0
100
AcDbSymbolTable
 70
     0
  0
ENDTAB
  0
TABLE
  2
APPID
  5
75
330
0
100
AcDbSymbolTable
 70
     2
  0
APPID
  5
76
330
75
100
AcDbSymbolTableRecord
100
AcDbRegAppTableRecord
  2
ACAD
 70
     0
  0
APPID
  5
77
330
75
100
AcDbSymbolTableRecord
100
AcDbRegAppTableRecord
  2
ACADANNOTATIVE
 70
     0
  0
ENDTAB
  0
TABLE
  2
DIMSTYLE
  5
78
330
0
100
AcDbSymbolTable
 70
     2
  0
DIMSTYLE
105
79
330
78
100
AcDbSymbolTableRecord
100
AcDbDimStyleTableRecord
  2
STANDARD
 70
     0
  3

  4

  5

  6

  7

 40
0.0
 41
2.5
 42
0.625
 43
3.75
 44
1.25
 45
0.0
 46
0.0
 47
0.0
 48
0.0
140
2.5
141
2.5
142
0.0
143
0.03937007874016
144
1.0
145
0.0
146
1.0
147
0.625
 71
     0
 72
     0
 73
     0
 74
     0
 75
     0
 76
     0
 77
     1
 78
     8
170
     0
171
     3
172
     1
173
     0
174
     0
175
     0
176
     0
177
     0
178
     0
270
     2
271
     2
272
     2
273
     2
274
     3
340
71
275
     0
280
     0
281
     0
282
     0
283
     0
284
     8
285
     0
286
     0
287
     3
288
     0
  0
ENDTAB
  0
TABLE
  2
BLOCK_RECORD
  5
A01
330
0
100
AcDbSymbolTable
  70
5
  0
BLOCK_RECORD
  5
A02
330
A01
100
AcDbSymbolTableRecord
100
AcDbBlockTableRecord
  2
*MODEL_SPACE
  0
BLOCK_RECORD
  5
A03
330
A01
100
AcDbSymbolTableRecord
100
AcDbBlockTableRecord
  2
*PAPER_SPACE
  0
ENDTAB
  0
ENDSEC
  0
SECTION
  2
BLOCKS
  0
BLOCK
  5
A04
330
A02
100
AcDbEntity
  8
0
100
AcDbBlockBegin
  2
*MODEL_SPACE
 70
   0
 10
0
 20
0
 30
0
  3
*MODEL_SPACE
  1
 
  0
ENDBLK
  5
A05
330
A02
100
AcDbEntity
  8
0
100
AcDbBlockEnd
  0
BLOCK
  5
A06
330
A03
100
AcDbEntity
 67
1
  8
0
100
AcDbBlockBegin
  2
*PAPER_SPACE
 70
   0
 10
0
 20
0
 30
0
  3
*PAPER_SPACE
  1
 
  0
ENDBLK
  5
A07
330
A03
100
AcDbEntity
 67
    1
  8
0
100
AcDbBlockEnd
  0
ENDSEC
  0
SECTION
  2
ENTITIES
  0
SPLINE
  5
A08
330
A02
100
AcDbEntity
  8
Body005
100
AcDbSpline
210
0
220
0
230
1
 70
8
 71
3
 72
8
 73
4
 74
0
 40
0.000000000
 40
0.000000000
 40
0.000000000
 40
0.000000000
 40
0.083280533
 40
0.083280533
 40
0.083280533
 40
0.083280533
 10
-0.000020915
 20
-64.000000000
 30
4.000000000
 10
2.580784926
 20
-63.999413203
 30
4.000000000
 10
5.381480778
 20
-63.587956155
 30
4.000000000
 10
8.379524700
 20
-62.600061286
 30
4.000000000
  0
SPLINE
  5
A09
330
A02
100
AcDbEntity
  8
Body005
100
AcDbSpline
210
0
220
0
230
1
 70
8
 71
1
 72
4
 73
2
 74
0
 40
0.000336168
 40
0.000336168
 40
0.999663832
 40
0.999663832
 10
8.379524700
 20
-62.600061286
 30
5.000000000
 10
8.379524700
 20
-62.600061286
 30
4.000000000
  0
SPLINE
  5
A0A
330
A02
100
AcDbEntity
  8
Body005
100
AcDbSpline
210
0
220
0
230
1
 70
8
 71
3
 72
8
 73
4
 74
0
 40
0.000000000
 40
0.000000000
 40
0.000000000
 40
0.000000000
 40
0.083280533
 40
0.083280533
 40
0.083280533
 40
0.083280533
 10
-0.000020915
 20
-64.000000000
 30
5.000000000
 10
2.580784926
 20
-63.999413203
 30
5.000000000
 10
5.381480778
 20
-63.587956155
 30
5.000000000
 10
8.379524700
 20
-62.600061286
 30
5.000000000
  0
LINE
  5
A0B
330
A02
100
AcDbEntity
  8
Body005
100
AcDbLine
 10
-0.000020915
 20
-64.000000000
 30
4.000000000
 11
-0.000020915
 21
-64.000000000
 31
5.000000000
  0
SPLINE
  5
A0C
330
A02
100
AcDbEntity
  8
Body005
100
AcDbSpline
210
0
220
0
230
1
 70
8
 71
3
 72
8
 73
4
 74
0
 40
1.916719819
 40
1.916719819
 40
1.916719819
 40
1.916719819
 40
2.000000000
 40
2.000000000
 40
2.000000000
 40
2.000000000
 10
-8.379527810
 20
-62.600069608
 30
4.000000000
 10
-5.381498698
 20
-63.587956532
 30
4.000000000
 10
-2.580815850
 20
-63.999411524
 30
4.000000000
 10
-0.000020915
 20
-64.000000000
 30
4.000000000
  0
ARC
  5
A0D
330
A02
100
AcDbEntity
  8
Body005
100
AcDbCircle
 10
-14.000000000
 20
-60.500000000
 30
4.000000000
 40
6.000000000
100
AcDbArc
 50
-20.488024701
 51
0.000000000
  0
SPLINE
  5
A0E
330
A02
100
AcDbEntity
  8
Body005
100
AcDbSpline
210
0
220
0
230
1
 70
8
 71
3
 72
8
 73
4
 74
0
 40
0.000000000
 40
0.000000000
 40
0.000000000
 40
0.000000000
 40
0.083280533
 40
0.083280533
 40
0.083280533
 40
0.083280533
 10
-0.000020915
 20
-64.000000000
 30
4.000000000
 10
2.580784926
 20
-63.999413203
 30
4.000000000
 10
5.381480778
 20
-63.587956155
 30
4.000000000
 10
8.379524700
 20
-62.600061286
 30
4.000000000
  0
ARC
  5
A0F
330
A02
100
AcDbEntity
  8
Body005
100
AcDbCircle
 10
-14.000000000
 20
-60.500000000
 30
4.000000000
 40
6.000000000
100
AcDbArc
 50
0.000000000
 51
144.249127983
  0
ARC
  5
A10
330
A02
100
AcDbEntity
  8
Body005
100
AcDbCircle
 10
14.000000000
 20
-60.500000000
 30
4.000000000
 40
6.000000000
100
AcDbArc
 50
35.751037043
 51
-159.512060130
  0
SPLINE
  5
A11
330
A02
100
AcDbEntity
  8
Body005
100
AcDbSpline
210
0
220
0
230
1
 70
8
 71
3
 72
17
 73
13
 74
0
 40
1.548074774
 40
1.548074774
 40
1.548074774
 40
1.548074774
 40
1.617323831
 40
1.617323831
 40
1.617323831
 40
1.686572889
 40
1.686572889
 40
1.686572889
 40
1.755821946
 40
1.755821946
 40
1.755821946
 40
1.825071004
 40
1.825071004
 40
1.825071004
 40
1.825071004
 10
-45.648119029
 20
-5.969735279
 30
4.000000000
 10
-44.839202208
 20
-11.885623502
 30
4.000000000
 10
-43.458223669
 20
-17.677143658
 30
4.000000000
 10
-41.646694620
 20
-23.051075383
 30
4.000000000
 10
-39.836909875
 20
-28.429578972
 30
4.000000000
 10
-37.602435858
 20
-33.387233122
 30
4.000000000
 10
-35.133543005
 20
-37.762810946
 30
4.000000000
 10
-32.664041061
 20
-42.143148873
 30
4.000000000
 10
-29.964186448
 20
-45.943749785
 30
4.000000000
 10
-27.205448058
 20
-49.139021111
 30
4.000000000
 10
-24.444886815
 20
-52.337458289
 30
4.000000000
 10
-21.626571889
 20
-54.934873336
 30
4.000000000
 10
-18.869390539
 20
-56.994427896
 30
4.000000000
  0
SPLINE
  5
A12
330
A02
100
AcDbEntity
  8
Body005
100
AcDbSpline
210
0
220
0
230
1
 70
8
 71
3
 72
17
 73
13
 74
0
 40
0.174929232
 40
0.174929232
 40
0.174929232
 40
0.174929232
 40
0.244178238
 40
0.244178238
 40
0.244178238
 40
0.313427245
 40
0.313427245
 40
0.313427245
 40
0.382676252
 40
0.382676252
 40
0.382676252
 40
0.451925259
 40
0.451925259
 40
0.451925259
 40
0.451925259
 10
18.869380442
 20
-56.994413871
 30
4.000000000
 10
21.626561252
 20
-54.934857667
 30
4.000000000
 10
24.444875549
 20
-52.337441291
 30
4.000000000
 10
27.205436220
 20
-49.139003459
 30
4.000000000
 10
29.964174043
 20
-45.943731475
 30
4.000000000
 10
32.664028149
 20
-42.143130598
 30
4.000000000
 10
35.133529937
 20
-37.762793664
 30
4.000000000
 10
37.602422638
 20
-33.387216821
 30
4.000000000
 10
39.836896866
 20
-28.429564627
 30
4.000000000
 10
41.646682547
 20
-23.051063908
 30
4.000000000
 10
43.458212527
 20
-17.677135038
 30
4.000000000
 10
44.839192744
 20
-11.885618647
 30
4.000000000
 10
45.648112204
 20
-5.969734590
 30
4.000000000
  0
ARC
  5
A13
330
A02
100
AcDbEntity
  8
Body005
100
AcDbCircle
 10
-46.250000000
 20
0.000000000
 30
4.000000000
 40
6.000000000
100
AcDbArc
 50
-84.242776796
 51
-0.000000000
  0
ARC
  5
A14
330
A02
100
AcDbEntity
  8
Body005
100
AcDbCircle
 10
46.250000000
 20
0.000000000
 30
4.000000000
 40
6.000000000
100
AcDbArc
 50
87.620883402
 51
-95.757288710
  0
ARC
  5
A15
330
A02
100
AcDbEntity
  8
Body005
100
AcDbCircle
 10
-46.250000000
 20
0.000000000
 30
4.000000000
 40
6.000000000
100
AcDbArc
 50
0.000000000
 51
92.379118794
  0
SPLINE
  5
A16
330
A02
100
AcDbEntity
  8
Body005
100
AcDbSpline
210
0
220
0
230
1
 70
8
 71
3
 72
53
 73
49
 74
0
 40
0.498418047
 40
0.498418047
 40
0.498418047
 40
0.498418047
 40
0.561115791
 40
0.561115791
 40
0.561115791
 40
0.623813535
 40
0.623813535
 40
0.623813535
 40
0.686511280
 40
0.686511280
 40
0.686511280
 40
0.749209024
 40
0.749209024
 40
0.749209024
 40
0.811906768
 40
0.811906768
 40
0.811906768
 40
0.874604512
 40
0.874604512
 40
0.874604512
 40
0.937302256
 40
0.937302256
 40
0.937302256
 40
1.000000000
 40
1.000000000
 40
1.000000000
 40
1.062697748
 40
1.062697748
 40
1.062697748
 40
1.125395496
 40
1.125395496
 40
1.125395496
 40
1.188093243
 40
1.188093243
 40
1.188093243
 40
1.250790991
 40
1.250790991
 40
1.250790991
 40
1.313488739
 40
1.313488739
 40
1.313488739
 40
1.376186487
 40
1.376186487
 40
1.376186487
 40
1.438884235
 40
1.438884235
 40
1.438884235
 40
1.501581982
 40
1.501581982
 40
1.501581982
 40
1.501581982
 10
46.499068919
 20
5.994828160
 30
4.000000000
 10
46.525239661
 20
11.350933369
 30
4.000000000
 10
46.055022185
 20
16.607558107
 30
4.000000000
 10
45.130986873
 20
21.534096663
 30
4.000000000
 10
44.209450416
 20
26.463658436
 30
4.000000000
 10
42.836808553
 20
31.059654245
 30
4.000000000
 10
41.126807577
 20
35.178333691
 30
4.000000000
 10
39.417811127
 20
39.300765078
 30
4.000000000
 10
37.375021827
 20
42.946240350
 30
4.000000000
 10
35.140131744
 20
46.078148154
 30
4.000000000
 10
32.904816564
 20
49.213044371
 30
4.000000000
 10
30.479880579
 20
51.837177779
 30
4.000000000
 10
27.994144510
 20
53.998377200
 30
4.000000000
 10
25.507207830
 20
56.161169442
 30
4.000000000
 10
22.960306721
 20
57.864102063
 30
4.000000000
 10
20.447754264
 20
59.199262962
 30
4.000000000
 10
17.933883556
 20
60.534795172
 30
4.000000000
 10
15.454058248
 20
61.504669641
 30
4.000000000
 10
13.065226305
 20
62.210670133
 30
4.000000000
 10
10.675326382
 20
62.916312953
 30
4.000000000
 10
8.375679743
 20
63.359087376
 30
4.000000000
 10
6.193237556
 20
63.630184638
 30
4.000000000
 10
4.010074536
 20
63.900635700
 30
4.000000000
 10
1.943386378
 20
63.999652057
 30
4.000000000
 10
0.000020915
 20
64.000000000
 30
4.000000000
 10
-1.943344664
 20
63.999653327
 30
4.000000000
 10
-4.010033060
 20
63.900638069
 30
4.000000000
 10
-6.193196487
 20
63.630187924
 30
4.000000000
 10
-8.375639081
 20
63.359091579
 30
4.000000000
 10
-10.675286295
 20
62.916317890
 30
4.000000000
 10
-13.065187009
 20
62.210675612
 30
4.000000000
 10
-15.454019743
 20
61.504675662
 30
4.000000000
 10
-17.933846060
 20
60.534801544
 30
4.000000000
 10
-20.447718034
 20
59.199269492
 30
4.000000000
 10
-22.960271757
 20
57.864108752
 30
4.000000000
 10
-25.507174392
 20
56.161176097
 30
4.000000000
 10
-27.994112875
 20
53.998383647
 30
4.000000000
 10
-30.479850747
 20
51.837184019
 30
4.000000000
 10
-32.904788814
 20
49.213050231
 30
4.000000000
 10
-35.140106334
 20
46.078153510
 30
4.000000000
 10
-37.374998753
 20
42.946245203
 30
4.000000000
 10
-39.417790649
 20
39.300769306
 30
4.000000000
 10
-41.126789879
 20
35.178337257
 30
4.000000000
 10
-42.836793633
 20
31.059657149
 30
4.000000000
 10
-44.209438458
 20
26.463660643
 30
4.000000000
 10
-45.130977944
 20
21.534098243
 30
4.000000000
 10
-46.055016286
 20
16.607559058
 30
4.000000000
 10
-46.525236858
 20
11.350933762
 30
4.000000000
 10
-46.499069149
 20
5.994828151
 30
4.000000000
  0
SPLINE
  5
A17
330
A02
100
AcDbEntity
  8
Body005
100
AcDbSpline
210
0
220
0
230
1
 70
9
 71
3
 72
95
 73
91
 74
0
 40
0.000000000
 40
0.000000000
 40
0.000000000
 40
0.000000000
 40
0.021237345
 40
0.021237345
 40
0.021237345
 40
0.042474691
 40
0.042474691
 40
0.042474691
 40
0.074638902
 40
0.074638902
 40
0.074638902
 40
0.104808419
 40
0.104808419
 40
0.104808419
 40
0.131117450
 40
0.131117450
 40
0.131117450
 40
0.173124899
 40
0.173124899
 40
0.173124899
 40
0.215132347
 40
0.215132347
 40
0.215132347
 40
0.258824591
 40
0.258824591
 40
0.258824591
 40
0.302516835
 40
0.302516835
 40
0.302516835
 40
0.335029819
 40
0.335029819
 40
0.335029819
 40
0.374697425
 40
0.374697425
 40
0.374697425
 40
0.419912550
 40
0.419912550
 40
0.419912550
 40
0.449963016
 40
0.449963016
 40
0.449963016
 40
0.485319446
 40
0.485319446
 40
0.485319446
 40
0.500000005
 40
0.500000005
 40
0.500000005
 40
0.514680563
 40
0.514680563
 40
0.514680563
 40
0.550036987
 40
0.550036987
 40
0.550036987
 40
0.580087444
 40
0.580087444
 40
0.580087444
 40
0.625302554
 40
0.625302554
 40
0.625302554
 40
0.664970149
 40
0.664970149
 40
0.664970149
 40
0.697483126
 40
0.697483126
 40
0.697483126
 40
0.741175371
 40
0.741175371
 40
0.741175371
 40
0.784867616
 40
0.784867616
 40
0.784867616
 40
0.826875072
 40
0.826875072
 40
0.826875072
 40
0.868882529
 40
0.868882529
 40
0.868882529
 40
0.895191566
 40
0.895191566
 40
0.895191566
 40
0.925361091
 40
0.925361091
 40
0.925361091
 40
0.957525308
 40
0.957525308
 40
0.957525308
 40
0.978762654
 40
0.978762654
 40
0.978762654
 40
1.000000000
 40
1.000000000
 40
1.000000000
 40
1.000000000
 10
-0.000017974
 20
-55.000000000
 30
4.000000000
 10
-2.092129659
 20
-55.000834135
 30
4.000000000
 10
-4.174505249
 20
-54.646735694
 30
4.000000000
 10
-6.167729380
 20
-54.021387305
 30
4.000000000
 10
-8.162869302
 20
-53.396271364
 30
4.000000000
 10
-10.070076294
 20
-52.504540633
 30
4.000000000
 10
-11.863025022
 20
-51.434184481
 30
4.000000000
 10
-14.580520721
 20
-49.810147460
 30
4.000000000
 10
-17.042443618
 20
-47.782300807
 30
4.000000000
 10
-19.264117532
 20
-45.532682979
 30
4.000000000
 10
-21.348702691
 20
-43.419556829
 30
4.000000000
 10
-23.225132614
 20
-41.106123257
 30
4.000000000
 10
-24.917254219
 20
-38.668842072
 30
4.000000000
 10
-26.392729347
 20
-36.542451158
 30
4.000000000
 10
-27.728133637
 20
-34.320020072
 30
4.000000000
 10
-28.935359151
 20
-32.031022857
 30
4.000000000
 10
-30.862210276
 20
-28.375296578
 30
4.000000000
 10
-32.463645294
 20
-24.551632865
 30
4.000000000
 10
-33.766120545
 20
-20.630609727
 30
4.000000000
 10
-35.067721210
 20
-16.708687020
 30
4.000000000
 10
-36.069547313
 20
-12.689046612
 30
4.000000000
 10
-36.774892758
 20
-8.617554390
 30
4.000000000
 10
-37.507651569
 20
-4.382621053
 30
4.000000000
 10
-37.919481487
 20
-0.092325884
 30
4.000000000
 10
-37.989506165
 20
4.205221330
 30
4.000000000
 10
-38.058518582
 20
8.502183028
 30
4.000000000
 10
-37.785986698
 20
12.806457066
 30
4.000000000
 10
-37.123752667
 20
17.053535012
 30
4.000000000
 10
-36.630377120
 20
20.213357419
 30
4.000000000
 10
-35.920431408
 20
23.341115435
 30
4.000000000
 10
-34.963541907
 20
26.393366413
 30
4.000000000
 10
-33.795940635
 20
30.115385283
 30
4.000000000
 10
-32.259624322
 20
33.729435375
 30
4.000000000
 10
-30.290287611
 20
37.099826016
 30
4.000000000
 10
-28.049026666
 20
40.937530040
 30
4.000000000
 10
-25.229232926
 20
44.461612244
 30
4.000000000
 10
-21.823662868
 20
47.329772499
 30
4.000000000
 10
-19.564301729
 20
49.235777334
 30
4.000000000
 10
-17.050070575
 20
50.843224145
 30
4.000000000
 10
-14.356581392
 20
52.063252701
 30
4.000000000
 10
-11.188773648
 20
53.504372810
 30
4.000000000
 10
-7.781198386
 20
54.395662562
 30
4.000000000
 10
-4.324158604
 20
54.770627887
 30
4.000000000
 10
-2.886979818
 20
54.925892189
 30
4.000000000
 10
-1.445587625
 20
55.002349560
 30
4.000000000
 10
0.000017974
 20
55.000000000
 30
4.000000000
 10
1.445623532
 20
55.002348625
 30
4.000000000
 10
2.887015646
 20
54.925890457
 30
4.000000000
 10
4.324194318
 20
54.770625494
 30
4.000000000
 10
7.781233388
 20
54.395658605
 30
4.000000000
 10
11.188807838
 20
53.504368032
 30
4.000000000
 10
14.356614675
 20
52.063247177
 30
4.000000000
 10
17.050102654
 20
50.843218191
 30
4.000000000
 10
19.564332558
 20
49.235771120
 30
4.000000000
 10
21.823692296
 20
47.329766040
 30
4.000000000
 10
25.229260100
 20
44.461605562
 30
4.000000000
 10
28.049051246
 20
40.937523257
 30
4.000000000
 10
30.290309318
 20
37.099819391
 30
4.000000000
 10
32.259643673
 20
33.729428614
 30
4.000000000
 10
33.795957378
 20
30.115378565
 30
4.000000000
 10
34.963555987
 20
26.393359987
 30
4.000000000
 10
35.920443410
 20
23.341108910
 30
4.000000000
 10
36.630386955
 20
20.213350942
 30
4.000000000
 10
37.123760342
 20
17.053528734
 30
4.000000000
 10
37.785991584
 20
12.806450314
 30
4.000000000
 10
38.058520562
 20
8.502176056
 30
4.000000000
 10
37.989505308
 20
4.205214367
 30
4.000000000
 10
37.919477790
 20
-0.092332838
 30
4.000000000
 10
37.507645099
 20
-4.382627767
 30
4.000000000
 10
36.774883704
 20
-8.617560694
 30
4.000000000
 10
36.069535644
 20
-12.689053271
 30
4.000000000
 10
35.067706992
 20
-16.708693856
 30
4.000000000
 10
33.766103928
 20
-20.630616603
 30
4.000000000
 10
32.463626278
 20
-24.551639783
 30
4.000000000
 10
30.862189012
 20
-28.375303403
 30
4.000000000
 10
28.935335849
 20
-32.031029506
 30
4.000000000
 10
27.728108987
 20
-34.320026746
 30
4.000000000
 10
26.392703416
 20
-36.542457817
 30
4.000000000
 10
24.917227078
 20
-38.668848683
 30
4.000000000
 10
23.225104102
 20
-41.106129788
 30
4.000000000
 10
21.348672905
 20
-43.419563242
 30
4.000000000
 10
19.264086546
 20
-45.532689216
 30
4.000000000
 10
17.042411491
 20
-47.782306708
 30
4.000000000
 10
14.580487567
 20
-49.810153008
 30
4.000000000
 10
11.862990871
 20
-51.434189468
 30
4.000000000
 10
10.070041741
 20
-52.504545091
 30
4.000000000
 10
8.162834377
 20
-53.396275250
 30
4.000000000
 10
6.167694127
 20
-54.021390424
 30
4.000000000
 10
4.174469673
 20
-54.646738045
 30
4.000000000
 10
2.092093802
 20
-55.000835504
 30
4.000000000
 10
-0.000017974
 20
-55.000000000
 30
4.000000000
  0
ARC
  5
A18
330
A02
100
AcDbEntity
  8
Body005
100
AcDbCircle
 10
14.000000000
 20
-60.500000000
 30
5.000000000
 40
6.000000000
100
AcDbArc
 50
35.751037043
 51
-159.512060130
  0
SPLINE
  5
A19
330
A02
100
AcDbEntity
  8
Body005
100
AcDbSpline
210
0
220
0
230
1
 70
8
 71
1
 72
4
 73
2
 74
0
 40
0.000336168
 40
0.000336168
 40
0.999663832
 40
0.999663832
 10
8.379524700
 20
-62.600061286
 30
5.000000000
 10
8.379524700
 20
-62.600061286
 30
4.000000000
  0
ARC
  5
A1A
330
A02
100
AcDbEntity
  8
Body005
100
AcDbCircle
 10
14.000000000
 20
-60.500000000
 30
4.000000000
 40
6.000000000
100
AcDbArc
 50
35.751037043
 51
-159.512060130
  0
SPLINE
  5
A1B
330
A02
100
AcDbEntity
  8
Body005
100
AcDbSpline
210
0
220
0
230
1
 70
8
 71
1
 72
4
 73
2
 74
0
 40
0.000336168
 40
0.000336168
 40
0.999663832
 40
0.999663832
 10
18.869380442
 20
-56.994413871
 30
5.000000000
 10
18.869380442
 20
-56.994413871
 30
4.000000000
  0
ARC
  5
A1C
330
A02
100
AcDbEntity
  8
Body005
100
AcDbCircle
 10
-14.000000000
 20
-60.500000000
 30
5.000000000
 40
6.000000000
100
AcDbArc
 50
-20.488024701
 51
0.000000000
  0
SPLINE
  5
A1D
330
A02
100
AcDbEntity
  8
Body005
100
AcDbSpline
210
0
220
0
230
1
 70
8
 71
3
 72
8
 73
4
 74
0
 40
1.916719819
 40
1.916719819
 40
1.916719819
 40
1.916719819
 40
2.000000000
 40
2.000000000
 40
2.000000000
 40
2.000000000
 10
-8.379527810
 20
-62.600069608
 30
5.000000000
 10
-5.381498698
 20
-63.587956532
 30
5.000000000
 10
-2.580815850
 20
-63.999411524
 30
5.000000000
 10
-0.000020915
 20
-64.000000000
 30
5.000000000
  0
ARC
  5
A1E
330
A02
100
AcDbEntity
  8
Body005
100
AcDbCircle
 10
-14.000000000
 20
-60.500000000
 30
5.000000000
 40
6.000000000
100
AcDbArc
 50
0.000000000
 51
144.249127983
  0
SPLINE
  5
A1F
330
A02
100
AcDbEntity
  8
Body005
100
AcDbSpline
210
0
220
0
230
1
 70
8
 71
3
 72
8
 73
4
 74
0
 40
0.000000000
 40
0.000000000
 40
0.000000000
 40
0.000000000
 40
0.083280533
 40
0.083280533
 40
0.083280533
 40
0.083280533
 10
-0.000020915
 20
-64.000000000
 30
5.000000000
 10
2.580784926
 20
-63.999413203
 30
5.000000000
 10
5.381480778
 20
-63.587956155
 30
5.000000000
 10
8.379524700
 20
-62.600061286
 30
5.000000000
  0
SPLINE
  5
A20
330
A02
100
AcDbEntity
  8
Body005
100
AcDbSpline
210
0
220
0
230
1
 70
8
 71
3
 72
17
 73
13
 74
0
 40
1.548074774
 40
1.548074774
 40
1.548074774
 40
1.548074774
 40
1.617323831
 40
1.617323831
 40
1.617323831
 40
1.686572889
 40
1.686572889
 40
1.686572889
 40
1.755821946
 40
1.755821946
 40
1.755821946
 40
1.825071004
 40
1.825071004
 40
1.825071004
 40
1.825071004
 10
-45.648119029
 20
-5.969735279
 30
5.000000000
 10
-44.839202208
 20
-11.885623502
 30
5.000000000
 10
-43.458223669
 20
-17.677143658
 30
5.000000000
 10
-41.646694620
 20
-23.051075383
 30
5.000000000
 10
-39.836909875
 20
-28.429578972
 30
5.000000000
 10
-37.602435858
 20
-33.387233122
 30
5.000000000
 10
-35.133543005
 20
-37.762810946
 30
5.000000000
 10
-32.664041061
 20
-42.143148873
 30
5.000000000
 10
-29.964186448
 20
-45.943749785
 30
5.000000000
 10
-27.205448058
 20
-49.139021111
 30
5.000000000
 10
-24.444886815
 20
-52.337458289
 30
5.000000000
 10
-21.626571889
 20
-54.934873336
 30
5.000000000
 10
-18.869390539
 20
-56.994427896
 30
5.000000000
  0
ARC
  5
A21
330
A02
100
AcDbEntity
  8
Body005
100
AcDbCircle
 10
14.000000000
 20
-60.500000000
 30
5.000000000
 40
6.000000000
100
AcDbArc
 50
35.751037043
 51
-159.512060130
  0
ARC
  5
A22
330
A02
100
AcDbEntity
  8
Body005
100
AcDbCircle
 10
-46.250000000
 20
0.000000000
 30
5.000000000
 40
6.000000000
100
AcDbArc
 50
-84.242776796
 51
-0.000000000
  0
SPLINE
  5
A23
330
A02
100
AcDbEntity
  8
Body005
100
AcDbSpline
210
0
220
0
230
1
 70
8
 71
3
 72
17
 73
13
 74
0
 40
0.174929232
 40
0.174929232
 40
0.174929232
 40
0.174929232
 40
0.244178238
 40
0.244178238
 40
0.244178238
 40
0.313427245
 40
0.313427245
 40
0.313427245
 40
0.382676252
 40
0.382676252
 40
0.382676252
 40
0.451925259
 40
0.451925259
 40
0.451925259
 40
0.451925259
 10
18.869380442
 20
-56.994413871
 30
5.000000000
 10
21.626561252
 20
-54.934857667
 30
5.000000000
 10
24.444875549
 20
-52.337441291
 30
5.000000000
 10
27.205436220
 20
-49.139003459
 30
5.000000000
 10
29.964174043
 20
-45.943731475
 30
5.000000000
 10
32.664028149
 20
-42.143130598
 30
5.000000000
 10
35.133529937
 20
-37.762793664
 30
5.000000000
 10
37.602422638
 20
-33.387216821
 30
5.000000000
 10
39.836896866
 20
-28.429564627
 30
5.000000000
 10
41.646682547
 20
-23.051063908
 30
5.000000000
 10
43.458212527
 20
-17.677135038
 30
5.000000000
 10
44.839192744
 20
-11.885618647
 30
5.000000000
 10
45.648112204
 20
-5.969734590
 30
5.000000000
  0
ARC
  5
A24
330
A02
100
AcDbEntity
  8
Body005
100
AcDbCircle
 10
-46.250000000
 20
0.000000000
 30
5.000000000
 40
6.000000000
100
AcDbArc
 50
0.000000000
 51
92.379118794
  0
ARC
  5
A25
330
A02
100
AcDbEntity
  8
Body005
100
AcDbCircle
 10
46.250000000
 20
0.000000000
 30
5.000000000
 40
6.000000000
100
AcDbArc
 50
87.620883402
 51
-95.757288710
  0
SPLINE
  5
A26
330
A02
100
AcDbEntity
  8
Body005
100
AcDbSpline
210
0
220
0
230
1
 70
8
 71
3
 72
53
 73
49
 74
0
 40
0.498418047
 40
0.498418047
 40
0.498418047
 40
0.498418047
 40
0.561115791
 40
0.561115791
 40
0.561115791
 40
0.623813535
 40
0.623813535
 40
0.623813535
 40
0.686511280
 40
0.686511280
 40
0.686511280
 40
0.749209024
 40
0.749209024
 40
0.749209024
 40
0.811906768
 40
0.811906768
 40
0.811906768
 40
0.874604512
 40
0.874604512
 40
0.874604512
 40
0.937302256
 40
0.937302256
 40
0.937302256
 40
1.000000000
 40
1.000000000
 40
1.000000000
 40
1.062697748
 40
1.062697748
 40
1.062697748
 40
1.125395496
 40
1.125395496
 40
1.125395496
 40
1.188093243
 40
1.188093243
 40
1.188093243
 40
1.250790991
 40
1.250790991
 40
1.250790991
 40
1.313488739
 40
1.313488739
 40
1.313488739
 40
1.376186487
 40
1.376186487
 40
1.376186487
 40
1.438884235
 40
1.438884235
 40
1.438884235
 40
1.501581982
 40
1.501581982
 40
1.501581982
 40
1.501581982
 10
46.499068919
 20
5.994828160
 30
5.000000000
 10
46.525239661
 20
11.350933369
 30
5.000000000
 10
46.055022185
 20
16.607558107
 30
5.000000000
 10
45.130986873
 20
21.534096663
 30
5.000000000
 10
44.209450416
 20
26.463658436
 30
5.000000000
 10
42.836808553
 20
31.059654245
 30
5.000000000
 10
41.126807577
 20
35.178333691
 30
5.000000000
 10
39.417811127
 20
39.300765078
 30
5.000000000
 10
37.375021827
 20
42.946240350
 30
5.000000000
 10
35.140131744
 20
46.078148154
 30
5.000000000
 10
32.904816564
 20
49.213044371
 30
5.000000000
 10
30.479880579
 20
51.837177779
 30
5.000000000
 10
27.994144510
 20
53.998377200
 30
5.000000000
 10
25.507207830
 20
56.161169442
 30
5.000000000
 10
22.960306721
 20
57.864102063
 30
5.000000000
 10
20.447754264
 20
59.199262962
 30
5.000000000
 10
17.933883556
 20
60.534795172
 30
5.000000000
 10
15.454058248
 20
61.504669641
 30
5.000000000
 10
13.065226305
 20
62.210670133
 30
5.000000000
 10
10.675326382
 20
62.916312953
 30
5.000000000
 10
8.375679743
 20
63.359087376
 30
5.000000000
 10
6.193237556
 20
63.630184638
 30
5.000000000
 10
4.010074536
 20
63.900635700
 30
5.000000000
 10
1.943386378
 20
63.999652057
 30
5.000000000
 10
0.000020915
 20
64.000000000
 30
5.000000000
 10
-1.943344664
 20
63.999653327
 30
5.000000000
 10
-4.010033060
 20
63.900638069
 30
5.000000000
 10
-6.193196487
 20
63.630187924
 30
5.000000000
 10
-8.375639081
 20
63.359091579
 30
5.000000000
 10
-10.675286295
 20
62.916317890
 30
5.000000000
 10
-13.065187009
 20
62.210675612
 30
5.000000000
 10
-15.454019743
 20
61.504675662
 30
5.000000000
 10
-17.933846060
 20
60.534801544
 30
5.000000000
 10
-20.447718034
 20
59.199269492
 30
5.000000000
 10
-22.960271757
 20
57.864108752
 30
5.000000000
 10
-25.507174392
 20
56.161176097
 30
5.000000000
 10
-27.994112875
 20
53.998383647
 30
5.000000000
 10
-30.479850747
 20
51.837184019
 30
5.000000000
 10
-32.904788814
 20
49.213050231
 30
5.000000000
 10
-35.140106334
 20
46.078153510
 30
5.000000000
 10
-37.374998753
 20
42.946245203
 30
5.000000000
 10
-39.417790649
 20
39.300769306
 30
5.000000000
 10
-41.126789879
 20
35.178337257
 30
5.000000000
 10
-42.836793633
 20
31.059657149
 30
5.000000000
 10
-44.209438458
 20
26.463660643
 30
5.000000000
 10
-45.130977944
 20
21.534098243
 30
5.000000000
 10
-46.055016286
 20
16.607559058
 30
5.000000000
 10
-46.525236858
 20
11.350933762
 30
5.000000000
 10
-46.499069149
 20
5.994828151
 30
5.000000000
  0
SPLINE
  5
A27
330
A02
100
AcDbEntity
  8
Body005
100
AcDbSpline
210
0
220
0
230
1
 70
9
 71
3
 72
95
 73
91
 74
0
 40
0.000000000
 40
0.000000000
 40
0.000000000
 40
0.000000000
 40
0.125000000
 40
0.125000000
 40
0.125000000
 40
0.187500000
 40
0.187500000
 40
0.187500000
 40
0.250000000
 40
0.250000000
 40
0.250000000
 40
0.312500000
 40
0.312500000
 40
0.312500000
 40
0.375000000
 40
0.375000000
 40
0.375000000
 40
0.437500000
 40
0.437500000
 40
0.437500000
 40
0.500000000
 40
0.500000000
 40
0.500000000
 40
0.562500000
 40
0.562500000
 40
0.562500000
 40
0.625000000
 40
0.625000000
 40
0.625000000
 40
0.687500000
 40
0.687500000
 40
0.687500000
 40
0.750000000
 40
0.750000000
 40
0.750000000
 40
0.812500000
 40
0.812500000
 40
0.812500000
 40
0.875000000
 40
0.875000000
 40
0.875000000
 40
0.937500000
 40
0.937500000
 40
0.937500000
 40
1.000000000
 40
1.000000000
 40
1.000000000
 40
1.062500000
 40
1.062500000
 40
1.062500000
 40
1.125000000
 40
1.125000000
 40
1.125000000
 40
1.187500000
 40
1.187500000
 40
1.187500000
 40
1.250000000
 40
1.250000000
 40
1.250000000
 40
1.312500000
 40
1.312500000
 40
1.312500000
 40
1.375000000
 40
1.375000000
 40
1.375000000
 40
1.437500000
 40
1.437500000
 40
1.437500000
 40
1.500000000
 40
1.500000000
 40
1.500000000
 40
1.562500000
 40
1.562500000
 40
1.562500000
 40
1.625000000
 40
1.625000000
 40
1.625000000
 40
1.687500000
 40
1.687500000
 40
1.687500000
 40
1.750000000
 40
1.750000000
 40
1.750000000
 40
1.812500000
 40
1.812500000
 40
1.812500000
 40
1.875000000
 40
1.875000000
 40
1.875000000
 40
2.000000000
 40
2.000000000
 40
2.000000000
 40
2.000000000
 10
-0.000017974
 20
-55.000000000
 30
5.000000000
 10
3.162357279
 20
-54.997915072
 30
5.000000000
 10
6.743808462
 20
-54.206370254
 30
5.000000000
 10
10.639982745
 20
-52.126252336
 30
5.000000000
 10
12.585094093
 20
-51.085682952
 30
5.000000000
 10
14.604282135
 20
-49.720135334
 30
5.000000000
 10
16.651669237
 20
-47.969542983
 30
5.000000000
 10
18.697993329
 20
-46.219872930
 30
5.000000000
 10
20.772766358
 20
-44.083234595
 30
5.000000000
 10
22.799985621
 20
-41.525003260
 30
5.000000000
 10
24.826231569
 20
-38.968671898
 30
5.000000000
 10
26.804266765
 20
-35.988533057
 30
5.000000000
 10
28.630125168
 20
-32.603278155
 30
5.000000000
 10
30.455625614
 20
-29.220750011
 30
5.000000000
 10
32.126974794
 20
-25.431858992
 30
5.000000000
 10
33.529403306
 20
-21.332723841
 30
5.000000000
 10
34.932617765
 20
-17.236316225
 30
5.000000000
 10
36.064047206
 20
-12.830962181
 30
5.000000000
 10
36.830764806
 20
-8.290988727
 30
5.000000000
 10
37.599477642
 20
-3.752455945
 30
5.000000000
 10
38.001260892
 20
0.916537320
 30
5.000000000
 10
38.000000000
 20
5.499996895
 30
5.000000000
 10
38.001263888
 20
10.084187329
 30
5.000000000
 10
37.599483632
 20
14.577861737
 30
5.000000000
 10
36.830773655
 20
18.785934350
 30
5.000000000
 10
36.064058915
 20
22.996602771
 30
5.000000000
 10
34.932632195
 20
26.918794427
 30
5.000000000
 10
33.529420223
 20
30.431982041
 30
5.000000000
 10
32.126994200
 20
33.948352213
 30
5.000000000
 10
30.455647272
 20
37.056078947
 30
5.000000000
 10
28.630148805
 20
39.725488969
 30
5.000000000
 10
26.804292382
 20
42.397418513
 30
5.000000000
 10
24.826258890
 20
44.633421275
 30
5.000000000
 10
22.800014379
 20
46.474996740
 30
5.000000000
 10
20.772796554
 20
48.317908681
 30
5.000000000
 10
18.698024697
 20
49.768988165
 30
5.000000000
 10
16.651701549
 20
50.906861512
 30
5.000000000
 10
14.604315391
 20
52.045041729
 30
5.000000000
 10
12.585128065
 20
52.871794691
 30
5.000000000
 10
10.640017255
 20
53.473747664
 30
5.000000000
 10
8.694046305
 20
54.075394294
 30
5.000000000
 10
6.821555656
 20
54.453086316
 30
5.000000000
 10
5.044265602
 20
54.684387469
 30
5.000000000
 10
3.266394767
 20
54.915139787
 30
5.000000000
 10
1.583137950
 20
54.999704763
 30
5.000000000
 10
0.000017974
 20
55.000000000
 30
5.000000000
 10
-1.583102003
 20
54.999705798
 30
5.000000000
 10
-3.266358912
 20
54.915141728
 30
5.000000000
 10
-5.044229973
 20
54.684390186
 30
5.000000000
 10
-6.821520252
 20
54.453089811
 30
5.000000000
 10
-8.694011259
 20
54.075398438
 30
5.000000000
 10
-10.639982745
 20
53.473752336
 30
5.000000000
 10
-12.585094093
 20
52.871799892
 30
5.000000000
 10
-14.604282135
 20
52.045047337
 30
5.000000000
 10
-16.651669237
 20
50.906867421
 30
5.000000000
 10
-18.697993329
 20
49.768994376
 30
5.000000000
 10
-20.772766358
 20
48.317915087
 30
5.000000000
 10
-22.799985621
 20
46.475003260
 30
5.000000000
 10
-24.826231569
 20
44.633427908
 30
5.000000000
 10
-26.804266765
 20
42.397425179
 30
5.000000000
 10
-28.630125168
 20
39.725495620
 30
5.000000000
 10
-30.455625614
 20
37.056085584
 30
5.000000000
 10
-32.126974794
 20
33.948358789
 30
5.000000000
 10
-33.529403306
 20
30.431988547
 30
5.000000000
 10
-34.932617765
 20
26.918800863
 30
5.000000000
 10
-36.064047206
 20
22.996609128
 30
5.000000000
 10
-36.830764806
 20
18.785940650
 30
5.000000000
 10
-37.599477642
 20
14.577867980
 30
5.000000000
 10
-38.001260892
 20
10.084193538
 30
5.000000000
 10
-38.000000000
 20
5.500003105
 30
5.000000000
 10
-38.001263888
 20
0.916543528
 30
5.000000000
 10
-37.599483632
 20
-3.752449702
 30
5.000000000
 10
-36.830773655
 20
-8.290982427
 30
5.000000000
 10
-36.064058915
 20
-12.830955824
 30
5.000000000
 10
-34.932632195
 20
-17.236309790
 30
5.000000000
 10
-33.529420223
 20
-21.332717335
 30
5.000000000
 10
-32.126994200
 20
-25.431852416
 30
5.000000000
 10
-30.455647272
 20
-29.220743374
 30
5.000000000
 10
-28.630148805
 20
-32.603271503
 30
5.000000000
 10
-26.804292382
 20
-35.988526391
 30
5.000000000
 10
-24.826258890
 20
-38.968665265
 30
5.000000000
 10
-22.800014379
 20
-41.524996740
 30
5.000000000
 10
-20.772796554
 20
-44.083228189
 30
5.000000000
 10
-18.698024697
 20
-46.219866719
 30
5.000000000
 10
-16.651701549
 20
-47.969537073
 30
5.000000000
 10
-14.604315391
 20
-49.720129726
 30
5.000000000
 10
-12.585128065
 20
-51.085677751
 30
5.000000000
 10
-10.640017255
 20
-52.126247664
 30
5.000000000
 10
-6.743844044
 20
-54.206366637
 30
5.000000000
 10
-3.162393224
 20
-54.997913001
 30
5.000000000
 10
-0.000017974
 20
-55.000000000
 30
5.000000000
  0
LINE
  5
A28
330
A02
100
AcDbEntity
  8
Body005
100
AcDbLine
 10
-0.000020915
 20
-64.000000000
 30
4.000000000
 11
-0.000020915
 21
-64.000000000
 31
5.000000000
  0
SPLINE
  5
A29
330
A02
100
AcDbEntity
  8
Body005
100
AcDbSpline
210
0
220
0
230
1
 70
8
 71
3
 72
8
 73
4
 74
0
 40
1.916719819
 40
1.916719819
 40
1.916719819
 40
1.916719819
 40
2.000000000
 40
2.000000000
 40
2.000000000
 40
2.000000000
 10
-8.379527810
 20
-62.600069608
 30
5.000000000
 10
-5.381498698
 20
-63.587956532
 30
5.000000000
 10
-2.580815850
 20
-63.999411524
 30
5.000000000
 10
-0.000020915
 20
-64.000000000
 30
5.000000000
  0
SPLINE
  5
A2A
330
A02
100
AcDbEntity
  8
Body005
100
AcDbSpline
210
0
220
0
230
1
 70
8
 71
1
 72
4
 73
2
 74
0
 40
0.000336168
 40
0.000336168
 40
0.999663832
 40
0.999663832
 10
-8.379527810
 20
-62.600069608
 30
5.000000000
 10
-8.379527810
 20
-62.600069608
 30
4.000000000
  0
SPLINE
  5
A2B
330
A02
100
AcDbEntity
  8
Body005
100
AcDbSpline
210
0
220
0
230
1
 70
8
 71
3
 72
8
 73
4
 74
0
 40
1.916719819
 40
1.916719819
 40
1.916719819
 40
1.916719819
 40
2.000000000
 40
2.000000000
 40
2.000000000
 40
2.000000000
 10
-8.379527810
 20
-62.600069608
 30
4.000000000
 10
-5.381498698
 20
-63.587956532
 30
4.000000000
 10
-2.580815850
 20
-63.999411524
 30
4.000000000
 10
-0.000020915
 20
-64.000000000
 30
4.000000000
  0
SPLINE
  5
A2C
330
A02
100
AcDbEntity
  8
Body005
100
AcDbSpline
210
0
220
0
230
1
 70
8
 71
1
 72
4
 73
2
 74
0
 40
0.000336168
 40
0.000336168
 40
0.999663832
 40
0.999663832
 10
-18.869390539
 20
-56.994427896
 30
5.000000000
 10
-18.869390539
 20
-56.994427896
 30
4.000000000
  0
ARC
  5
A2D
330
A02
100
AcDbEntity
  8
Body005
100
AcDbCircle
 10
-14.000000000
 20
-60.500000000
 30
5.000000000
 40
6.000000000
100
AcDbArc
 50
0.000000000
 51
144.249127983
  0
ARC
  5
A2E
330
A02
100
AcDbEntity
  8
Body005
100
AcDbCircle
 10
-14.000000000
 20
-60.500000000
 30
5.000000000
 40
6.000000000
100
AcDbArc
 50
-20.488024701
 51
0.000000000
  0
SPLINE
  5
A2F
330
A02
100
AcDbEntity
  8
Body005
100
AcDbSpline
210
0
220
0
230
1
 70
8
 71
1
 72
4
 73
2
 74
0
 40
0.000336168
 40
0.000336168
 40
0.999663832
 40
0.999663832
 10
-8.379527810
 20
-62.600069608
 30
5.000000000
 10
-8.379527810
 20
-62.600069608
 30
4.000000000
  0
ARC
  5
A30
330
A02
100
AcDbEntity
  8
Body005
100
AcDbCircle
 10
-14.000000000
 20
-60.500000000
 30
4.000000000
 40
6.000000000
100
AcDbArc
 50
-20.488024701
 51
0.000000000
  0
ARC
  5
A31
330
A02
100
AcDbEntity
  8
Body005
100
AcDbCircle
 10
-14.000000000
 20
-60.500000000
 30
4.000000000
 40
6.000000000
100
AcDbArc
 50
0.000000000
 51
144.249127983
  0
SPLINE
  5
A32
330
A02
100
AcDbEntity
  8
Body005
100
AcDbSpline
210
0
220
0
230
1
 70
8
 71
1
 72
4
 73
2
 74
0
 40
0.000336168
 40
0.000336168
 40
0.999663832
 40
0.999663832
 10
-18.869390539
 20
-56.994427896
 30
5.000000000
 10
-18.869390539
 20
-56.994427896
 30
4.000000000
  0
SPLINE
  5
A33
330
A02
100
AcDbEntity
  8
Body005
100
AcDbSpline
210
0
220
0
230
1
 70
8
 71
3
 72
17
 73
13
 74
0
 40
1.548074774
 40
1.548074774
 40
1.548074774
 40
1.548074774
 40
1.617323831
 40
1.617323831
 40
1.617323831
 40
1.686572889
 40
1.686572889
 40
1.686572889
 40
1.755821946
 40
1.755821946
 40
1.755821946
 40
1.825071004
 40
1.825071004
 40
1.825071004
 40
1.825071004
 10
-45.648119029
 20
-5.969735279
 30
5.000000000
 10
-44.839202208
 20
-11.885623502
 30
5.000000000
 10
-43.458223669
 20
-17.677143658
 30
5.000000000
 10
-41.646694620
 20
-23.051075383
 30
5.000000000
 10
-39.836909875
 20
-28.429578972
 30
5.000000000
 10
-37.602435858
 20
-33.387233122
 30
5.000000000
 10
-35.133543005
 20
-37.762810946
 30
5.000000000
 10
-32.664041061
 20
-42.143148873
 30
5.000000000
 10
-29.964186448
 20
-45.943749785
 30
5.000000000
 10
-27.205448058
 20
-49.139021111
 30
5.000000000
 10
-24.444886815
 20
-52.337458289
 30
5.000000000
 10
-21.626571889
 20
-54.934873336
 30
5.000000000
 10
-18.869390539
 20
-56.994427896
 30
5.000000000
  0
SPLINE
  5
A34
330
A02
100
AcDbEntity
  8
Body005
100
AcDbSpline
210
0
220
0
230
1
 70
8
 71
1
 72
4
 73
2
 74
0
 40
0.000336168
 40
0.000336168
 40
0.999663832
 40
0.999663832
 10
-45.648119029
 20
-5.969735279
 30
5.000000000
 10
-45.648119029
 20
-5.969735279
 30
4.000000000
  0
SPLINE
  5
A35
330
A02
100
AcDbEntity
  8
Body005
100
AcDbSpline
210
0
220
0
230
1
 70
8
 71
3
 72
17
 73
13
 74
0
 40
1.548074774
 40
1.548074774
 40
1.548074774
 40
1.548074774
 40
1.617323831
 40
1.617323831
 40
1.617323831
 40
1.686572889
 40
1.686572889
 40
1.686572889
 40
1.755821946
 40
1.755821946
 40
1.755821946
 40
1.825071004
 40
1.825071004
 40
1.825071004
 40
1.825071004
 10
-45.648119029
 20
-5.969735279
 30
4.000000000
 10
-44.839202208
 20
-11.885623502
 30
4.000000000
 10
-43.458223669
 20
-17.677143658
 30
4.000000000
 10
-41.646694620
 20
-23.051075383
 30
4.000000000
 10
-39.836909875
 20
-28.429578972
 30
4.000000000
 10
-37.602435858
 20
-33.387233122
 30
4.000000000
 10
-35.133543005
 20
-37.762810946
 30
4.000000000
 10
-32.664041061
 20
-42.143148873
 30
4.000000000
 10
-29.964186448
 20
-45.943749785
 30
4.000000000
 10
-27.205448058
 20
-49.139021111
 30
4.000000000
 10
-24.444886815
 20
-52.337458289
 30
4.000000000
 10
-21.626571889
 20
-54.934873336
 30
4.000000000
 10
-18.869390539
 20
-56.994427896
 30
4.000000000
  0
SPLINE
  5
A36
330
A02
100
AcDbEntity
  8
Body005
100
AcDbSpline
210
0
220
0
230
1
 70
8
 71
3
 72
17
 73
13
 74
0
 40
0.174929232
 40
0.174929232
 40
0.174929232
 40
0.174929232
 40
0.244178238
 40
0.244178238
 40
0.244178238
 40
0.313427245
 40
0.313427245
 40
0.313427245
 40
0.382676252
 40
0.382676252
 40
0.382676252
 40
0.451925259
 40
0.451925259
 40
0.451925259
 40
0.451925259
 10
18.869380442
 20
-56.994413871
 30
4.000000000
 10
21.626561252
 20
-54.934857667
 30
4.000000000
 10
24.444875549
 20
-52.337441291
 30
4.000000000
 10
27.205436220
 20
-49.139003459
 30
4.000000000
 10
29.964174043
 20
-45.943731475
 30
4.000000000
 10
32.664028149
 20
-42.143130598
 30
4.000000000
 10
35.133529937
 20
-37.762793664
 30
4.000000000
 10
37.602422638
 20
-33.387216821
 30
4.000000000
 10
39.836896866
 20
-28.429564627
 30
4.000000000
 10
41.646682547
 20
-23.051063908
 30
4.000000000
 10
43.458212527
 20
-17.677135038
 30
4.000000000
 10
44.839192744
 20
-11.885618647
 30
4.000000000
 10
45.648112204
 20
-5.969734590
 30
4.000000000
  0
SPLINE
  5
A37
330
A02
100
AcDbEntity
  8
Body005
100
AcDbSpline
210
0
220
0
230
1
 70
8
 71
1
 72
4
 73
2
 74
0
 40
0.000336168
 40
0.000336168
 40
0.999663832
 40
0.999663832
 10
45.648112204
 20
-5.969734590
 30
5.000000000
 10
45.648112204
 20
-5.969734590
 30
4.000000000
  0
SPLINE
  5
A38
330
A02
100
AcDbEntity
  8
Body005
100
AcDbSpline
210
0
220
0
230
1
 70
8
 71
3
 72
17
 73
13
 74
0
 40
0.174929232
 40
0.174929232
 40
0.174929232
 40
0.174929232
 40
0.244178238
 40
0.244178238
 40
0.244178238
 40
0.313427245
 40
0.313427245
 40
0.313427245
 40
0.382676252
 40
0.382676252
 40
0.382676252
 40
0.451925259
 40
0.451925259
 40
0.451925259
 40
0.451925259
 10
18.869380442
 20
-56.994413871
 30
5.000000000
 10
21.626561252
 20
-54.934857667
 30
5.000000000
 10
24.444875549
 20
-52.337441291
 30
5.000000000
 10
27.205436220
 20
-49.139003459
 30
5.000000000
 10
29.964174043
 20
-45.943731475
 30
5.000000000
 10
32.664028149
 20
-42.143130598
 30
5.000000000
 10
35.133529937
 20
-37.762793664
 30
5.000000000
 10
37.602422638
 20
-33.387216821
 30
5.000000000
 10
39.836896866
 20
-28.429564627
 30
5.000000000
 10
41.646682547
 20
-23.051063908
 30
5.000000000
 10
43.458212527
 20
-17.677135038
 30
5.000000000
 10
44.839192744
 20
-11.885618647
 30
5.000000000
 10
45.648112204
 20
-5.969734590
 30
5.000000000
  0
SPLINE
  5
A39
330
A02
100
AcDbEntity
  8
Body005
100
AcDbSpline
210
0
220
0
230
1
 70
8
 71
1
 72
4
 73
2
 74
0
 40
0.000336168
 40
0.000336168
 40
0.999663832
 40
0.999663832
 10
18.869380442
 20
-56.994413871
 30
5.000000000
 10
18.869380442
 20
-56.994413871
 30
4.000000000
  0
SPLINE
  5
A3A
330
A02
100
AcDbEntity
  8
Body005
100
AcDbSpline
210
0
220
0
230
1
 70
8
 71
1
 72
4
 73
2
 74
0
 40
0.000336168
 40
0.000336168
 40
0.999663832
 40
0.999663832
 10
-46.499069149
 20
5.994828151
 30
5.000000000
 10
-46.499069149
 20
5.994828151
 30
4.000000000
  0
ARC
  5
A3B
330
A02
100
AcDbEntity
  8
Body005
100
AcDbCircle
 10
-46.250000000
 20
0.000000000
 30
5.000000000
 40
6.000000000
100
AcDbArc
 50
0.000000000
 51
92.379118794
  0
ARC
  5
A3C
330
A02
100
AcDbEntity
  8
Body005
100
AcDbCircle
 10
-46.250000000
 20
0.000000000
 30
5.000000000
 40
6.000000000
100
AcDbArc
 50
-84.242776796
 51
-0.000000000
  0
SPLINE
  5
A3D
330
A02
100
AcDbEntity
  8
Body005
100
AcDbSpline
210
0
220
0
230
1
 70
8
 71
1
 72
4
 73
2
 74
0
 40
0.000336168
 40
0.000336168
 40
0.999663832
 40
0.999663832
 10
-45.648119029
 20
-5.969735279
 30
5.000000000
 10
-45.648119029
 20
-5.969735279
 30
4.000000000
  0
ARC
  5
A3E
330
A02
100
AcDbEntity
  8
Body005
100
AcDbCircle
 10
-46.250000000
 20
0.000000000
 30
4.000000000
 40
6.000000000
100
AcDbArc
 50
-84.242776796
 51
-0.000000000
  0
ARC
  5
A3F
330
A02
100
AcDbEntity
  8
Body005
100
AcDbCircle
 10
-46.250000000
 20
0.000000000
 30
4.000000000
 40
6.000000000
100
AcDbArc
 50
0.000000000
 51
92.379118794
  0
ARC
  5
A40
330
A02
100
AcDbEntity
  8
Body005
100
AcDbCircle
 10
46.250000000
 20
0.000000000
 30
5.000000000
 40
6.000000000
100
AcDbArc
 50
87.620883402
 51
-95.757288710
  0
SPLINE
  5
A41
330
A02
100
AcDbEntity
  8
Body005
100
AcDbSpline
210
0
220
0
230
1
 70
8
 71
1
 72
4
 73
2
 74
0
 40
0.000336168
 40
0.000336168
 40
0.999663832
 40
0.999663832
 10
45.648112204
 20
-5.969734590
 30
5.000000000
 10
45.648112204
 20
-5.969734590
 30
4.000000000
  0
ARC
  5
A42
330
A02
100
AcDbEntity
  8
Body005
100
AcDbCircle
 10
46.250000000
 20
0.000000000
 30
4.000000000
 40
6.000000000
100
AcDbArc
 50
87.620883402
 51
-95.757288710
  0
SPLINE
  5
A43
330
A02
100
AcDbEntity
  8
Body005
100
AcDbSpline
210
0
220
0
230
1
 70
8
 71
1
 72
4
 73
2
 74
0
 40
0.000336168
 40
0.000336168
 40
0.999663832
 40
0.999663832
 10
46.499068919
 20
5.994828160
 30
5.000000000
 10
46.499068919
 20
5.994828160
 30
4.000000000
  0
SPLINE
  5
A44
330
A02
100
AcDbEntity
  8
Body005
100
AcDbSpline
210
0
220
0
230
1
 70
8
 71
3
 72
53
 73
49
 74
0
 40
0.498418047
 40
0.498418047
 40
0.498418047
 40
0.498418047
 40
0.561115791
 40
0.561115791
 40
0.561115791
 40
0.623813535
 40
0.623813535
 40
0.623813535
 40
0.686511280
 40
0.686511280
 40
0.686511280
 40
0.749209024
 40
0.749209024
 40
0.749209024
 40
0.811906768
 40
0.811906768
 40
0.811906768
 40
0.874604512
 40
0.874604512
 40
0.874604512
 40
0.937302256
 40
0.937302256
 40
0.937302256
 40
1.000000000
 40
1.000000000
 40
1.000000000
 40
1.062697748
 40
1.062697748
 40
1.062697748
 40
1.125395496
 40
1.125395496
 40
1.125395496
 40
1.188093243
 40
1.188093243
 40
1.188093243
 40
1.250790991
 40
1.250790991
 40
1.250790991
 40
1.313488739
 40
1.313488739
 40
1.313488739
 40
1.376186487
 40
1.376186487
 40
1.376186487
 40
1.438884235
 40
1.438884235
 40
1.438884235
 40
1.501581982
 40
1.501581982
 40
1.501581982
 40
1.501581982
 10
46.499068919
 20
5.994828160
 30
4.000000000
 10
46.525239661
 20
11.350933369
 30
4.000000000
 10
46.055022185
 20
16.607558107
 30
4.000000000
 10
45.130986873
 20
21.534096663
 30
4.000000000
 10
44.209450416
 20
26.463658436
 30
4.000000000
 10
42.836808553
 20
31.059654245
 30
4.000000000
 10
41.126807577
 20
35.178333691
 30
4.000000000
 10
39.417811127
 20
39.300765078
 30
4.000000000
 10
37.375021827
 20
42.946240350
 30
4.000000000
 10
35.140131744
 20
46.078148154
 30
4.000000000
 10
32.904816564
 20
49.213044371
 30
4.000000000
 10
30.479880579
 20
51.837177779
 30
4.000000000
 10
27.994144510
 20
53.998377200
 30
4.000000000
 10
25.507207830
 20
56.161169442
 30
4.000000000
 10
22.960306721
 20
57.864102063
 30
4.000000000
 10
20.447754264
 20
59.199262962
 30
4.000000000
 10
17.933883556
 20
60.534795172
 30
4.000000000
 10
15.454058248
 20
61.504669641
 30
4.000000000
 10
13.065226305
 20
62.210670133
 30
4.000000000
 10
10.675326382
 20
62.916312953
 30
4.000000000
 10
8.375679743
 20
63.359087376
 30
4.000000000
 10
6.193237556
 20
63.630184638
 30
4.000000000
 10
4.010074536
 20
63.900635700
 30
4.000000000
 10
1.943386378
 20
63.999652057
 30
4.000000000
 10
0.000020915
 20
64.000000000
 30
4.000000000
 10
-1.943344664
 20
63.999653327
 30
4.000000000
 10
-4.010033060
 20
63.900638069
 30
4.000000000
 10
-6.193196487
 20
63.630187924
 30
4.000000000
 10
-8.375639081
 20
63.359091579
 30
4.000000000
 10
-10.675286295
 20
62.916317890
 30
4.000000000
 10
-13.065187009
 20
62.210675612
 30
4.000000000
 10
-15.454019743
 20
61.504675662
 30
4.000000000
 10
-17.933846060
 20
60.534801544
 30
4.000000000
 10
-20.447718034
 20
59.199269492
 30
4.000000000
 10
-22.960271757
 20
57.864108752
 30
4.000000000
 10
-25.507174392
 20
56.161176097
 30
4.000000000
 10
-27.994112875
 20
53.998383647
 30
4.000000000
 10
-30.479850747
 20
51.837184019
 30
4.000000000
 10
-32.904788814
 20
49.213050231
 30
4.000000000
 10
-35.140106334
 20
46.078153510
 30
4.000000000
 10
-37.374998753
 20
42.946245203
 30
4.000000000
 10
-39.417790649
 20
39.300769306
 30
4.000000000
 10
-41.126789879
 20
35.178337257
 30
4.000000000
 10
-42.836793633
 20
31.059657149
 30
4.000000000
 10
-44.209438458
 20
26.463660643
 30
4.000000000
 10
-45.130977944
 20
21.534098243
 30
4.000000000
 10
-46.055016286
 20
16.607559058
 30
4.000000000
 10
-46.525236858
 20
11.350933762
 30
4.000000000
 10
-46.499069149
 20
5.994828151
 30
4.000000000
  0
SPLINE
  5
A45
330
A02
100
AcDbEntity
  8
Body005
100
AcDbSpline
210
0
220
0
230
1
 70
8
 71
1
 72
4
 73
2
 74
0
 40
0.000336168
 40
0.000336168
 40
0.999663832
 40
0.999663832
 10
-46.499069149
 20
5.994828151
 30
5.000000000
 10
-46.499069149
 20
5.994828151
 30
4.000000000
  0
SPLINE
  5
A46
330
A02
100
AcDbEntity
  8
Body005
100
AcDbSpline
210
0
220
0
230
1
 70
8
 71
3
 72
53
 73
49
 74
0
 40
0.498418047
 40
0.498418047
 40
0.498418047
 40
0.498418047
 40
0.561115791
 40
0.561115791
 40
0.561115791
 40
0.623813535
 40
0.623813535
 40
0.623813535
 40
0.686511280
 40
0.686511280
 40
0.686511280
 40
0.749209024
 40
0.749209024
 40
0.749209024
 40
0.811906768
 40
0.811906768
 40
0.811906768
 40
0.874604512
 40
0.874604512
 40
0.874604512
 40
0.937302256
 40
0.937302256
 40
0.937302256
 40
1.000000000
 40
1.000000000
 40
1.000000000
 40
1.062697748
 40
1.062697748
 40
1.062697748
 40
1.125395496
 40
1.125395496
 40
1.125395496
 40
1.188093243
 40
1.188093243
 40
1.188093243
 40
1.250790991
 40
1.250790991
 40
1.250790991
 40
1.313488739
 40
1.313488739
 40
1.313488739
 40
1.376186487
 40
1.376186487
 40
1.376186487
 40
1.438884235
 40
1.438884235
 40
1.438884235
 40
1.501581982
 40
1.501581982
 40
1.501581982
 40
1.501581982
 10
46.499068919
 20
5.994828160
 30
5.000000000
 10
46.525239661
 20
11.350933369
 30
5.000000000
 10
46.055022185
 20
16.607558107
 30
5.000000000
 10
45.130986873
 20
21.534096663
 30
5.000000000
 10
44.209450416
 20
26.463658436
 30
5.000000000
 10
42.836808553
 20
31.059654245
 30
5.000000000
 10
41.126807577
 20
35.178333691
 30
5.000000000
 10
39.417811127
 20
39.300765078
 30
5.000000000
 10
37.375021827
 20
42.946240350
 30
5.000000000
 10
35.140131744
 20
46.078148154
 30
5.000000000
 10
32.904816564
 20
49.213044371
 30
5.000000000
 10
30.479880579
 20
51.837177779
 30
5.000000000
 10
27.994144510
 20
53.998377200
 30
5.000000000
 10
25.507207830
 20
56.161169442
 30
5.000000000
 10
22.960306721
 20
57.864102063
 30
5.000000000
 10
20.447754264
 20
59.199262962
 30
5.000000000
 10
17.933883556
 20
60.534795172
 30
5.000000000
 10
15.454058248
 20
61.504669641
 30
5.000000000
 10
13.065226305
 20
62.210670133
 30
5.000000000
 10
10.675326382
 20
62.916312953
 30
5.000000000
 10
8.375679743
 20
63.359087376
 30
5.000000000
 10
6.193237556
 20
63.630184638
 30
5.000000000
 10
4.010074536
 20
63.900635700
 30
5.000000000
 10
1.943386378
 20
63.999652057
 30
5.000000000
 10
0.000020915
 20
64.000000000
 30
5.000000000
 10
-1.943344664
 20
63.999653327
 30
5.000000000
 10
-4.010033060
 20
63.900638069
 30
5.000000000
 10
-6.193196487
 20
63.630187924
 30
5.000000000
 10
-8.375639081
 20
63.359091579
 30
5.000000000
 10
-10.675286295
 20
62.916317890
 30
5.000000000
 10
-13.065187009
 20
62.210675612
 30
5.000000000
 10
-15.454019743
 20
61.504675662
 30
5.000000000
 10
-17.933846060
 20
60.534801544
 30
5.000000000
 10
-20.447718034
 20
59.199269492
 30
5.000000000
 10
-22.960271757
 20
57.864108752
 30
5.000000000
 10
-25.507174392
 20
56.161176097
 30
5.000000000
 10
-27.994112875
 20
53.998383647
 30
5.000000000
 10
-30.479850747
 20
51.837184019
 30
5.000000000
 10
-32.904788814
 20
49.213050231
 30
5.000000000
 10
-35.140106334
 20
46.078153510
 30
5.000000000
 10
-37.374998753
 20
42.946245203
 30
5.000000000
 10
-39.417790649
 20
39.300769306
 30
5.000000000
 10
-41.126789879
 20
35.178337257
 30
5.000000000
 10
-42.836793633
 20
31.059657149
 30
5.000000000
 10
-44.209438458
 20
26.463660643
 30
5.000000000
 10
-45.130977944
 20
21.534098243
 30
5.000000000
 10
-46.055016286
 20
16.607559058
 30
5.000000000
 10
-46.525236858
 20
11.350933762
 30
5.000000000
 10
-46.499069149
 20
5.994828151
 30
5.000000000
  0
SPLINE
  5
A47
330
A02
100
AcDbEntity
  8
Body005
100
AcDbSpline
210
0
220
0
230
1
 70
8
 71
1
 72
4
 73
2
 74
0
 40
0.000336168
 40
0.000336168
 40
0.999663832
 40
0.999663832
 10
46.499068919
 20
5.994828160
 30
5.000000000
 10
46.499068919
 20
5.994828160
 30
4.000000000
  0
SPLINE
  5
A48
330
A02
100
AcDbEntity
  8
Body005
100
AcDbSpline
210
0
220
0
230
1
 70
9
 71
3
 72
95
 73
91
 74
0
 40
0.000000000
 40
0.000000000
 40
0.000000000
 40
0.000000000
 40
0.125000000
 40
0.125000000
 40
0.125000000
 40
0.187500000
 40
0.187500000
 40
0.187500000
 40
0.250000000
 40
0.250000000
 40
0.250000000
 40
0.312500000
 40
0.312500000
 40
0.312500000
 40
0.375000000
 40
0.375000000
 40
0.375000000
 40
0.437500000
 40
0.437500000
 40
0.437500000
 40
0.500000000
 40
0.500000000
 40
0.500000000
 40
0.562500000
 40
0.562500000
 40
0.562500000
 40
0.625000000
 40
0.625000000
 40
0.625000000
 40
0.687500000
 40
0.687500000
 40
0.687500000
 40
0.750000000
 40
0.750000000
 40
0.750000000
 40
0.812500000
 40
0.812500000
 40
0.812500000
 40
0.875000000
 40
0.875000000
 40
0.875000000
 40
0.937500000
 40
0.937500000
 40
0.937500000
 40
1.000000000
 40
1.000000000
 40
1.000000000
 40
1.062500000
 40
1.062500000
 40
1.062500000
 40
1.125000000
 40
1.125000000
 40
1.125000000
 40
1.187500000
 40
1.187500000
 40
1.187500000
 40
1.250000000
 40
1.250000000
 40
1.250000000
 40
1.312500000
 40
1.312500000
 40
1.312500000
 40
1.375000000
 40
1.375000000
 40
1.375000000
 40
1.437500000
 40
1.437500000
 40
1.437500000
 40
1.500000000
 40
1.500000000
 40
1.500000000
 40
1.562500000
 40
1.562500000
 40
1.562500000
 40
1.625000000
 40
1.625000000
 40
1.625000000
 40
1.687500000
 40
1.687500000
 40
1.687500000
 40
1.750000000
 40
1.750000000
 40
1.750000000
 40
1.812500000
 40
1.812500000
 40
1.812500000
 40
1.875000000
 40
1.875000000
 40
1.875000000
 40
2.000000000
 40
2.000000000
 40
2.000000000
 40
2.000000000
 10
-0.000017974
 20
-55.000000000
 30
5.000000000
 10
3.162357279
 20
-54.997915072
 30
5.000000000
 10
6.743808462
 20
-54.206370254
 30
5.000000000
 10
10.639982745
 20
-52.126252336
 30
5.000000000
 10
12.585094093
 20
-51.085682952
 30
5.000000000
 10
14.604282135
 20
-49.720135334
 30
5.000000000
 10
16.651669237
 20
-47.969542983
 30
5.000000000
 10
18.697993329
 20
-46.219872930
 30
5.000000000
 10
20.772766358
 20
-44.083234595
 30
5.000000000
 10
22.799985621
 20
-41.525003260
 30
5.000000000
 10
24.826231569
 20
-38.968671898
 30
5.000000000
 10
26.804266765
 20
-35.988533057
 30
5.000000000
 10
28.630125168
 20
-32.603278155
 30
5.000000000
 10
30.455625614
 20
-29.220750011
 30
5.000000000
 10
32.126974794
 20
-25.431858992
 30
5.000000000
 10
33.529403306
 20
-21.332723841
 30
5.000000000
 10
34.932617765
 20
-17.236316225
 30
5.000000000
 10
36.064047206
 20
-12.830962181
 30
5.000000000
 10
36.830764806
 20
-8.290988727
 30
5.000000000
 10
37.599477642
 20
-3.752455945
 30
5.000000000
 10
38.001260892
 20
0.916537320
 30
5.000000000
 10
38.000000000
 20
5.499996895
 30
5.000000000
 10
38.001263888
 20
10.084187329
 30
5.000000000
 10
37.599483632
 20
14.577861737
 30
5.000000000
 10
36.830773655
 20
18.785934350
 30
5.000000000
 10
36.064058915
 20
22.996602771
 30
5.000000000
 10
34.932632195
 20
26.918794427
 30
5.000000000
 10
33.529420223
 20
30.431982041
 30
5.000000000
 10
32.126994200
 20
33.948352213
 30
5.000000000
 10
30.455647272
 20
37.056078947
 30
5.000000000
 10
28.630148805
 20
39.725488969
 30
5.000000000
 10
26.804292382
 20
42.397418513
 30
5.000000000
 10
24.826258890
 20
44.633421275
 30
5.000000000
 10
22.800014379
 20
46.474996740
 30
5.000000000
 10
20.772796554
 20
48.317908681
 30
5.000000000
 10
18.698024697
 20
49.768988165
 30
5.000000000
 10
16.651701549
 20
50.906861512
 30
5.000000000
 10
14.604315391
 20
52.045041729
 30
5.000000000
 10
12.585128065
 20
52.871794691
 30
5.000000000
 10
10.640017255
 20
53.473747664
 30
5.000000000
 10
8.694046305
 20
54.075394294
 30
5.000000000
 10
6.821555656
 20
54.453086316
 30
5.000000000
 10
5.044265602
 20
54.684387469
 30
5.000000000
 10
3.266394767
 20
54.915139787
 30
5.000000000
 10
1.583137950
 20
54.999704763
 30
5.000000000
 10
0.000017974
 20
55.000000000
 30
5.000000000
 10
-1.583102003
 20
54.999705798
 30
5.000000000
 10
-3.266358912
 20
54.915141728
 30
5.000000000
 10
-5.044229973
 20
54.684390186
 30
5.000000000
 10
-6.821520252
 20
54.453089811
 30
5.000000000
 10
-8.694011259
 20
54.075398438
 30
5.000000000
 10
-10.639982745
 20
53.473752336
 30
5.000000000
 10
-12.585094093
 20
52.871799892
 30
5.000000000
 10
-14.604282135
 20
52.045047337
 30
5.000000000
 10
-16.651669237
 20
50.906867421
 30
5.000000000
 10
-18.697993329
 20
49.768994376
 30
5.000000000
 10
-20.772766358
 20
48.317915087
 30
5.000000000
 10
-22.799985621
 20
46.475003260
 30
5.000000000
 10
-24.826231569
 20
44.633427908
 30
5.000000000
 10
-26.804266765
 20
42.397425179
 30
5.000000000
 10
-28.630125168
 20
39.725495620
 30
5.000000000
 10
-30.455625614
 20
37.056085584
 30
5.000000000
 10
-32.126974794
 20
33.948358789
 30
5.000000000
 10
-33.529403306
 20
30.431988547
 30
5.000000000
 10
-34.932617765
 20
26.918800863
 30
5.000000000
 10
-36.064047206
 20
22.996609128
 30
5.000000000
 10
-36.830764806
 20
18.785940650
 30
5.000000000
 10
-37.599477642
 20
14.577867980
 30
5.000000000
 10
-38.001260892
 20
10.084193538
 30
5.000000000
 10
-38.000000000
 20
5.500003105
 30
5.000000000
 10
-38.001263888
 20
0.916543528
 30
5.000000000
 10
-37.599483632
 20
-3.752449702
 30
5.000000000
 10
-36.830773655
 20
-8.290982427
 30
5.000000000
 10
-36.064058915
 20
-12.830955824
 30
5.000000000
 10
-34.932632195
 20
-17.236309790
 30
5.000000000
 10
-33.529420223
 20
-21.332717335
 30
5.000000000
 10
-32.126994200
 20
-25.431852416
 30
5.000000000
 10
-30.455647272
 20
-29.220743374
 30
5.000000000
 10
-28.630148805
 20
-32.603271503
 30
5.000000000
 10
-26.804292382
 20
-35.988526391
 30
5.000000000
 10
-24.826258890
 20
-38.968665265
 30
5.000000000
 10
-22.800014379
 20
-41.524996740
 30
5.000000000
 10
-20.772796554
 20
-44.083228189
 30
5.000000000
 10
-18.698024697
 20
-46.219866719
 30
5.000000000
 10
-16.651701549
 20
-47.969537073
 30
5.000000000
 10
-14.604315391
 20
-49.720129726
 30
5.000000000
 10
-12.585128065
 20
-51.085677751
 30
5.000000000
 10
-10.640017255
 20
-52.126247664
 30
5.000000000
 10
-6.743844044
 20
-54.206366637
 30
5.000000000
 10
-3.162393224
 20
-54.997913001
 30
5.000000000
 10
-0.000017974
 20
-55.000000000
 30
5.000000000
  0
LINE
  5
A49
330
A02
100
AcDbEntity
  8
Body005
100
AcDbLine
 10
-0.000017974
 20
-55.000000000
 30
5.000000000
 11
-0.000017974
 21
-55.000000000
 31
4.000000000
  0
SPLINE
  5
A4A
330
A02
100
AcDbEntity
  8
Body005
100
AcDbSpline
210
0
220
0
230
1
 70
9
 71
3
 72
95
 73
91
 74
0
 40
0.000000000
 40
0.000000000
 40
0.000000000
 40
0.000000000
 40
0.021237345
 40
0.021237345
 40
0.021237345
 40
0.042474691
 40
0.042474691
 40
0.042474691
 40
0.074638902
 40
0.074638902
 40
0.074638902
 40
0.104808419
 40
0.104808419
 40
0.104808419
 40
0.131117450
 40
0.131117450
 40
0.131117450
 40
0.173124899
 40
0.173124899
 40
0.173124899
 40
0.215132347
 40
0.215132347
 40
0.215132347
 40
0.258824591
 40
0.258824591
 40
0.258824591
 40
0.302516835
 40
0.302516835
 40
0.302516835
 40
0.335029819
 40
0.335029819
 40
0.335029819
 40
0.374697425
 40
0.374697425
 40
0.374697425
 40
0.419912550
 40
0.419912550
 40
0.419912550
 40
0.449963016
 40
0.449963016
 40
0.449963016
 40
0.485319446
 40
0.485319446
 40
0.485319446
 40
0.500000005
 40
0.500000005
 40
0.500000005
 40
0.514680563
 40
0.514680563
 40
0.514680563
 40
0.550036987
 40
0.550036987
 40
0.550036987
 40
0.580087444
 40
0.580087444
 40
0.580087444
 40
0.625302554
 40
0.625302554
 40
0.625302554
 40
0.664970149
 40
0.664970149
 40
0.664970149
 40
0.697483126
 40
0.697483126
 40
0.697483126
 40
0.741175371
 40
0.741175371
 40
0.741175371
 40
0.784867616
 40
0.784867616
 40
0.784867616
 40
0.826875072
 40
0.826875072
 40
0.826875072
 40
0.868882529
 40
0.868882529
 40
0.868882529
 40
0.895191566
 40
0.895191566
 40
0.895191566
 40
0.925361091
 40
0.925361091
 40
0.925361091
 40
0.957525308
 40
0.957525308
 40
0.957525308
 40
0.978762654
 40
0.978762654
 40
0.978762654
 40
1.000000000
 40
1.000000000
 40
1.000000000
 40
1.000000000
 10
-0.000017974
 20
-55.000000000
 30
4.000000000
 10
-2.092129659
 20
-55.000834135
 30
4.000000000
 10
-4.174505249
 20
-54.646735694
 30
4.000000000
 10
-6.167729380
 20
-54.021387305
 30
4.000000000
 10
-8.162869302
 20
-53.396271364
 30
4.000000000
 10
-10.070076294
 20
-52.504540633
 30
4.000000000
 10
-11.863025022
 20
-51.434184481
 30
4.000000000
 10
-14.580520721
 20
-49.810147460
 30
4.000000000
 10
-17.042443618
 20
-47.782300807
 30
4.000000000
 10
-19.264117532
 20
-45.532682979
 30
4.000000000
 10
-21.348702691
 20
-43.419556829
 30
4.000000000
 10
-23.225132614
 20
-41.106123257
 30
4.000000000
 10
-24.917254219
 20
-38.668842072
 30
4.000000000
 10
-26.392729347
 20
-36.542451158
 30
4.000000000
 10
-27.728133637
 20
-34.320020072
 30
4.000000000
 10
-28.935359151
 20
-32.031022857
 30
4.000000000
 10
-30.862210276
 20
-28.375296578
 30
4.000000000
 10
-32.463645294
 20
-24.551632865
 30
4.000000000
 10
-33.766120545
 20
-20.630609727
 30
4.000000000
 10
-35.067721210
 20
-16.708687020
 30
4.000000000
 10
-36.069547313
 20
-12.689046612
 30
4.000000000
 10
-36.774892758
 20
-8.617554390
 30
4.000000000
 10
-37.507651569
 20
-4.382621053
 30
4.000000000
 10
-37.919481487
 20
-0.092325884
 30
4.000000000
 10
-37.989506165
 20
4.205221330
 30
4.000000000
 10
-38.058518582
 20
8.502183028
 30
4.000000000
 10
-37.785986698
 20
12.806457066
 30
4.000000000
 10
-37.123752667
 20
17.053535012
 30
4.000000000
 10
-36.630377120
 20
20.213357419
 30
4.000000000
 10
-35.920431408
 20
23.341115435
 30
4.000000000
 10
-34.963541907
 20
26.393366413
 30
4.000000000
 10
-33.795940635
 20
30.115385283
 30
4.000000000
 10
-32.259624322
 20
33.729435375
 30
4.000000000
 10
-30.290287611
 20
37.099826016
 30
4.000000000
 10
-28.049026666
 20
40.937530040
 30
4.000000000
 10
-25.229232926
 20
44.461612244
 30
4.000000000
 10
-21.823662868
 20
47.329772499
 30
4.000000000
 10
-19.564301729
 20
49.235777334
 30
4.000000000
 10
-17.050070575
 20
50.843224145
 30
4.000000000
 10
-14.356581392
 20
52.063252701
 30
4.000000000
 10
-11.188773648
 20
53.504372810
 30
4.000000000
 10
-7.781198386
 20
54.395662562
 30
4.000000000
 10
-4.324158604
 20
54.770627887
 30
4.000000000
 10
-2.886979818
 20
54.925892189
 30
4.000000000
 10
-1.445587625
 20
55.002349560
 30
4.000000000
 10
0.000017974
 20
55.000000000
 30
4.000000000
 10
1.445623532
 20
55.002348625
 30
4.000000000
 10
2.887015646
 20
54.925890457
 30
4.000000000
 10
4.324194318
 20
54.770625494
 30
4.000000000
 10
7.781233388
 20
54.395658605
 30
4.000000000
 10
11.188807838
 20
53.504368032
 30
4.000000000
 10
14.356614675
 20
52.063247177
 30
4.000000000
 10
17.050102654
 20
50.843218191
 30
4.000000000
 10
19.564332558
 20
49.235771120
 30
4.000000000
 10
21.823692296
 20
47.329766040
 30
4.000000000
 10
25.229260100
 20
44.461605562
 30
4.000000000
 10
28.049051246
 20
40.937523257
 30
4.000000000
 10
30.290309318
 20
37.099819391
 30
4.000000000
 10
32.259643673
 20
33.729428614
 30
4.000000000
 10
33.795957378
 20
30.115378565
 30
4.000000000
 10
34.963555987
 20
26.393359987
 30
4.000000000
 10
35.920443410
 20
23.341108910
 30
4.000000000
 10
36.630386955
 20
20.213350942
 30
4.000000000
 10
37.123760342
 20
17.053528734
 30
4.000000000
 10
37.785991584
 20
12.806450314
 30
4.000000000
 10
38.058520562
 20
8.502176056
 30
4.000000000
 10
37.989505308
 20
4.205214367
 30
4.000000000
 10
37.919477790
 20
-0.092332838
 30
4.000000000
 10
37.507645099
 20
-4.382627767
 30
4.000000000
 10
36.774883704
 20
-8.617560694
 30
4.000000000
 10
36.069535644
 20
-12.689053271
 30
4.000000000
 10
35.067706992
 20
-16.708693856
 30
4.000000000
 10
33.766103928
 20
-20.630616603
 30
4.000000000
 10
32.463626278
 20
-24.551639783
 30
4.000000000
 10
30.862189012
 20
-28.375303403
 30
4.000000000
 10
28.935335849
 20
-32.031029506
 30
4.000000000
 10
27.728108987
 20
-34.320026746
 30
4.000000000
 10
26.392703416
 20
-36.542457817
 30
4.000000000
 10
24.917227078
 20
-38.668848683
 30
4.000000000
 10
23.225104102
 20
-41.106129788
 30
4.000000000
 10
21.348672905
 20
-43.419563242
 30
4.000000000
 10
19.264086546
 20
-45.532689216
 30
4.000000000
 10
17.042411491
 20
-47.782306708
 30
4.000000000
 10
14.580487567
 20
-49.810153008
 30
4.000000000
 10
11.862990871
 20
-51.434189468
 30
4.000000000
 10
10.070041741
 20
-52.504545091
 30
4.000000000
 10
8.162834377
 20
-53.396275250
 30
4.000000000
 10
6.167694127
 20
-54.021390424
 30
4.000000000
 10
4.174469673
 20
-54.646738045
 30
4.000000000
 10
2.092093802
 20
-55.000835504
 30
4.000000000
 10
-0.000017974
 20
-55.000000000
 30
4.000000000
  0
LINE
  5
A4B
330
A02
100
AcDbEntity
  8
Body005
100
AcDbLine
 10
-0.000017974
 20
-55.000000000
 30
5.000000000
 11
-0.000017974
 21
-55.000000000
 31
4.000000000
  0
ENDSEC
  0
SECTION
  2
OBJECTS
  0
DICTIONARY
  5
F000
330
0
100
AcDbDictionary
  3
ACAD_GROUP
350
F001
  0
DICTIONARY
  5
F001
330
F000
100
AcDbDictionary
  0
ENDSEC
  0
EOF