999
FreeCAD v1.0 39285 (Git)
  0
SECTION
  2
HEADER
  9
$ACADVER
  1
AC1014
  9
$ACADMAINTVER
 70
     9
  9
$DWGCODEPAGE
  3
ANSI_1252
  9
$TEXTSTYLE
  7
STANDARD
  9
$DIMSTYLE
  2
STANDARD
  9
$DIMTXSTY
  7
STANDARD
  9
$CMLSTYLE
  2
STANDARD
  9
$LUNITS
 70
2
  9
$INSUNITS
 70
4
  9
$PEXTMAX
 10
50
 20
50
 30
50
  9
$PEXTMIN
 10
0
 20
0
 30
0
  9
$HANDSEED
  5
FFFF
  0
ENDSEC
  0
SECTION
  2
CLASSES
  0
CLASS
  1
ACDBDICTIONARYWDFLT
  2
AcDbDictionaryWithDefault
  3
ObjectDBX Classes
 90
        0
280
     0
281
     0
  0
CLASS
  1
XRECORD
  2
AcDbXrecord
  3
ObjectDBX Classes
 90
        0
280
     0
281
     0
  0
CLASS
  1
LWPOLYLINE
  2
AcDbPolyline
  3
ObjectDBX Classes
 90
        0
280
     0
281
     1
  0
ENDSEC
  0
SECTION
  2
TABLES
  0
TABLE
  2
VPORT
  5
20
330
0
100
AcDbSymbolTable
 70
     1
  0
VPORT
  5
21
330
20
100
AcDbSymbolTableRecord
100
AcDbViewportTableRecord
  2
*ACTIVE
 70
     0
  0
ENDTAB
  0
TABLE
  2
LTYPE
  5
22
330
0
100
AcDbSymbolTable
 70
     1
  0
LTYPE
  5
23
330
21
100
AcDbSymbolTableRecord
100
AcDbLinetypeTableRecord
  2
BYBLOCK
 70
     0
  3

 72
    65
 73
     0
 40
0.0
  0
LTYPE
  5
24
330
21
100
AcDbSymbolTableRecord
100
AcDbLinetypeTableRecord
  2
BYLAYER
 70
     0
  3

 72
    65
 73
     0
 40
0.0
  0
LTYPE
  5
25
330
21
100
AcDbSymbolTableRecord
100
AcDbLinetypeTableRecord
  2
CONTINUOUS
 70
     0
  3
Solid line
 72
    65
 73
     0
 40
0.0
  0
ENDTAB
  0
TABLE
  2
LAYER
  5
A09
330
0
100
AcDbSymbolTable
 70
3
  0
LAYER
  5
A0A
330
A09
100
AcDbSymbolTableRecord
100
AcDbLayerTableRecord
  2
0
 70
   0
 62
   7
  6
CONTINUOUS
  0
LAYER
  5
A0B
330
A09
100
AcDbSymbolTableRecord
100
AcDbLayerTableRecord
  2
none
 70
    0
 62
    7
  6
CONTINUOUS
  0
LAYER
  5
A0C
330
A09
100
AcDbSymbolTableRecord
100
AcDbLayerTableRecord
  2
Sketch013
 70
    0
 62
    7
  6
CONTINUOUS
  0
ENDTAB
  0
TABLE
  2
STYLE
  5
70
330
0
100
AcDbSymbolTable
 70
     2
  0
STYLE
  5
71
330
70
100
AcDbSymbolTableRecord
100
AcDbTextStyleTableRecord
  2
STANDARD
 70
     0
 40
0.0
 41
1.0
 50
0.0
 71
     0
 42
2.5
  3
arial.ttf
  4

  0
STYLE
  5
72
330
70
100
AcDbSymbolTableRecord
100
AcDbTextStyleTableRecord
  2
ANNOTATIVE
 70
     0
 40
0.0
 41
1.0
 50
0.0
 71
     0
 42
2.5
  3
arial.ttf
  4

  0
ENDTAB
  0
TABLE
  2
VIEW
  5
73
330
0
100
AcDbSymbolTable
 70
     0
  0
ENDTAB
  0
TABLE
  2
UCS
  5
74
330
0
100
AcDbSymbolTable
 70
     0
  0
ENDTAB
  0
TABLE
  2
APPID
  5
75
330
0
100
AcDbSymbolTable
 70
     2
  0
APPID
  5
76
330
75
100
AcDbSymbolTableRecord
100
AcDbRegAppTableRecord
  2
ACAD
 70
     0
  0
APPID
  5
77
330
75
100
AcDbSymbolTableRecord
100
AcDbRegAppTableRecord
  2
ACADANNOTATIVE
 70
     0
  0
ENDTAB
  0
TABLE
  2
DIMSTYLE
  5
78
330
0
100
AcDbSymbolTable
 70
     2
  0
DIMSTYLE
105
79
330
78
100
AcDbSymbolTableRecord
100
AcDbDimStyleTableRecord
  2
STANDARD
 70
     0
  3

  4

  5

  6

  7

 40
0.0
 41
2.5
 42
0.625
 43
3.75
 44
1.25
 45
0.0
 46
0.0
 47
0.0
 48
0.0
140
2.5
141
2.5
142
0.0
143
0.03937007874016
144
1.0
145
0.0
146
1.0
147
0.625
 71
     0
 72
     0
 73
     0
 74
     0
 75
     0
 76
     0
 77
     1
 78
     8
170
     0
171
     3
172
     1
173
     0
174
     0
175
     0
176
     0
177
     0
178
     0
270
     2
271
     2
272
     2
273
     2
274
     3
340
71
275
     0
280
     0
281
     0
282
     0
283
     0
284
     8
285
     0
286
     0
287
     3
288
     0
  0
ENDTAB
  0
TABLE
  2
BLOCK_RECORD
  5
A01
330
0
100
AcDbSymbolTable
  70
5
  0
BLOCK_RECORD
  5
A02
330
A01
100
AcDbSymbolTableRecord
100
AcDbBlockTableRecord
  2
*MODEL_SPACE
  0
BLOCK_RECORD
  5
A03
330
A01
100
AcDbSymbolTableRecord
100
AcDbBlockTableRecord
  2
*PAPER_SPACE
  0
ENDTAB
  0
ENDSEC
  0
SECTION
  2
BLOCKS
  0
BLOCK
  5
A04
330
A02
100
AcDbEntity
  8
0
100
AcDbBlockBegin
  2
*MODEL_SPACE
 70
   0
 10
0
 20
0
 30
0
  3
*MODEL_SPACE
  1
 
  0
ENDBLK
  5
A05
330
A02
100
AcDbEntity
  8
0
100
AcDbBlockEnd
  0
BLOCK
  5
A06
330
A03
100
AcDbEntity
 67
1
  8
0
100
AcDbBlockBegin
  2
*PAPER_SPACE
 70
   0
 10
0
 20
0
 30
0
  3
*PAPER_SPACE
  1
 
  0
ENDBLK
  5
A07
330
A03
100
AcDbEntity
 67
    1
  8
0
100
AcDbBlockEnd
  0
ENDSEC
  0
SECTION
  2
ENTITIES
  0
SPLINE
  5
A08
330
A02
100
AcDbEntity
  8
Sketch013
100
AcDbSpline
210
0
220
0
230
1
 70
9
 71
3
 72
95
 73
91
 74
0
 40
0.000000000
 40
0.000000000
 40
0.000000000
 40
0.000000000
 40
0.125000000
 40
0.125000000
 40
0.125000000
 40
0.187500000
 40
0.187500000
 40
0.187500000
 40
0.250000000
 40
0.250000000
 40
0.250000000
 40
0.312500000
 40
0.312500000
 40
0.312500000
 40
0.375000000
 40
0.375000000
 40
0.375000000
 40
0.437500000
 40
0.437500000
 40
0.437500000
 40
0.500000000
 40
0.500000000
 40
0.500000000
 40
0.562500000
 40
0.562500000
 40
0.562500000
 40
0.625000000
 40
0.625000000
 40
0.625000000
 40
0.687500000
 40
0.687500000
 40
0.687500000
 40
0.750000000
 40
0.750000000
 40
0.750000000
 40
0.812500000
 40
0.812500000
 40
0.812500000
 40
0.875000000
 40
0.875000000
 40
0.875000000
 40
0.937500000
 40
0.937500000
 40
0.937500000
 40
1.000000000
 40
1.000000000
 40
1.000000000
 40
1.062500000
 40
1.062500000
 40
1.062500000
 40
1.125000000
 40
1.125000000
 40
1.125000000
 40
1.187500000
 40
1.187500000
 40
1.187500000
 40
1.250000000
 40
1.250000000
 40
1.250000000
 40
1.312500000
 40
1.312500000
 40
1.312500000
 40
1.375000000
 40
1.375000000
 40
1.375000000
 40
1.437500000
 40
1.437500000
 40
1.437500000
 40
1.500000000
 40
1.500000000
 40
1.500000000
 40
1.562500000
 40
1.562500000
 40
1.562500000
 40
1.625000000
 40
1.625000000
 40
1.625000000
 40
1.687500000
 40
1.687500000
 40
1.687500000
 40
1.750000000
 40
1.750000000
 40
1.750000000
 40
1.812500000
 40
1.812500000
 40
1.812500000
 40
1.875000000
 40
1.875000000
 40
1.875000000
 40
2.000000000
 40
2.000000000
 40
2.000000000
 40
2.000000000
 10
-0.000017974
 20
-55.000000000
 30
0.000000000
 10
3.162357279
 20
-54.997915072
 30
0.000000000
 10
6.743808462
 20
-54.206370254
 30
0.000000000
 10
10.639982745
 20
-52.126252336
 30
0.000000000
 10
12.585094093
 20
-51.085682952
 30
0.000000000
 10
14.604282135
 20
-49.720135334
 30
0.000000000
 10
16.651669237
 20
-47.969542983
 30
0.000000000
 10
18.697993329
 20
-46.219872930
 30
0.000000000
 10
20.772766358
 20
-44.083234595
 30
0.000000000
 10
22.799985621
 20
-41.525003260
 30
0.000000000
 10
24.826231569
 20
-38.968671898
 30
0.000000000
 10
26.804266765
 20
-35.988533057
 30
0.000000000
 10
28.630125168
 20
-32.603278155
 30
0.000000000
 10
30.455625614
 20
-29.220750011
 30
0.000000000
 10
32.126974794
 20
-25.431858992
 30
0.000000000
 10
33.529403306
 20
-21.332723841
 30
0.000000000
 10
34.932617765
 20
-17.236316225
 30
0.000000000
 10
36.064047206
 20
-12.830962181
 30
0.000000000
 10
36.830764806
 20
-8.290988727
 30
0.000000000
 10
37.599477642
 20
-3.752455945
 30
0.000000000
 10
38.001260892
 20
0.916537320
 30
0.000000000
 10
38.000000000
 20
5.499996895
 30
0.000000000
 10
38.001263888
 20
10.084187329
 30
0.000000000
 10
37.599483632
 20
14.577861737
 30
0.000000000
 10
36.830773655
 20
18.785934350
 30
0.000000000
 10
36.064058915
 20
22.996602771
 30
0.000000000
 10
34.932632195
 20
26.918794427
 30
0.000000000
 10
33.529420223
 20
30.431982041
 30
0.000000000
 10
32.126994200
 20
33.948352213
 30
0.000000000
 10
30.455647272
 20
37.056078947
 30
0.000000000
 10
28.630148805
 20
39.725488969
 30
0.000000000
 10
26.804292382
 20
42.397418513
 30
0.000000000
 10
24.826258890
 20
44.633421275
 30
0.000000000
 10
22.800014379
 20
46.474996740
 30
0.000000000
 10
20.772796554
 20
48.317908681
 30
0.000000000
 10
18.698024697
 20
49.768988165
 30
0.000000000
 10
16.651701549
 20
50.906861512
 30
0.000000000
 10
14.604315391
 20
52.045041729
 30
0.000000000
 10
12.585128065
 20
52.871794691
 30
0.000000000
 10
10.640017255
 20
53.473747664
 30
0.000000000
 10
8.694046305
 20
54.075394294
 30
0.000000000
 10
6.821555656
 20
54.453086316
 30
0.000000000
 10
5.044265602
 20
54.684387469
 30
0.000000000
 10
3.266394767
 20
54.915139787
 30
0.000000000
 10
1.583137950
 20
54.999704763
 30
0.000000000
 10
0.000017974
 20
55.000000000
 30
0.000000000
 10
-1.583102003
 20
54.999705798
 30
0.000000000
 10
-3.266358912
 20
54.915141728
 30
0.000000000
 10
-5.044229973
 20
54.684390186
 30
0.000000000
 10
-6.821520252
 20
54.453089811
 30
0.000000000
 10
-8.694011259
 20
54.075398438
 30
0.000000000
 10
-10.639982745
 20
53.473752336
 30
0.000000000
 10
-12.585094093
 20
52.871799892
 30
0.000000000
 10
-14.604282135
 20
52.045047337
 30
0.000000000
 10
-16.651669237
 20
50.906867421
 30
0.000000000
 10
-18.697993329
 20
49.768994376
 30
0.000000000
 10
-20.772766358
 20
48.317915087
 30
0.000000000
 10
-22.799985621
 20
46.475003260
 30
0.000000000
 10
-24.826231569
 20
44.633427908
 30
0.000000000
 10
-26.804266765
 20
42.397425179
 30
0.000000000
 10
-28.630125168
 20
39.725495620
 30
0.000000000
 10
-30.455625614
 20
37.056085584
 30
0.000000000
 10
-32.126974794
 20
33.948358789
 30
0.000000000
 10
-33.529403306
 20
30.431988547
 30
0.000000000
 10
-34.932617765
 20
26.918800863
 30
0.000000000
 10
-36.064047206
 20
22.996609128
 30
0.000000000
 10
-36.830764806
 20
18.785940650
 30
0.000000000
 10
-37.599477642
 20
14.577867980
 30
0.000000000
 10
-38.001260892
 20
10.084193538
 30
0.000000000
 10
-38.000000000
 20
5.500003105
 30
0.000000000
 10
-38.001263888
 20
0.916543528
 30
0.000000000
 10
-37.599483632
 20
-3.752449702
 30
0.000000000
 10
-36.830773655
 20
-8.290982427
 30
0.000000000
 10
-36.064058915
 20
-12.830955824
 30
0.000000000
 10
-34.932632195
 20
-17.236309790
 30
0.000000000
 10
-33.529420223
 20
-21.332717335
 30
0.000000000
 10
-32.126994200
 20
-25.431852416
 30
0.000000000
 10
-30.455647272
 20
-29.220743374
 30
0.000000000
 10
-28.630148805
 20
-32.603271503
 30
0.000000000
 10
-26.804292382
 20
-35.988526391
 30
0.000000000
 10
-24.826258890
 20
-38.968665265
 30
0.000000000
 10
-22.800014379
 20
-41.524996740
 30
0.000000000
 10
-20.772796554
 20
-44.083228189
 30
0.000000000
 10
-18.698024697
 20
-46.219866719
 30
0.000000000
 10
-16.651701549
 20
-47.969537073
 30
0.000000000
 10
-14.604315391
 20
-49.720129726
 30
0.000000000
 10
-12.585128065
 20
-51.085677751
 30
0.000000000
 10
-10.640017255
 20
-52.126247664
 30
0.000000000
 10
-6.743844044
 20
-54.206366637
 30
0.000000000
 10
-3.162393224
 20
-54.997913001
 30
0.000000000
 10
-0.000017974
 20
-55.000000000
 30
0.000000000
  0
ENDSEC
  0
SECTION
  2
OBJECTS
  0
DICTIONARY
  5
F000
330
0
100
AcDbDictionary
  3
ACAD_GROUP
350
F001
  0
DICTIONARY
  5
F001
330
F000
100
AcDbDictionary
  0
ENDSEC
  0
EOF