999
FreeCAD v1.0 39285 (Git)
  0
SECTION
  2
HEADER
  9
$ACADVER
  1
AC1014
  9
$ACADMAINTVER
 70
     9
  9
$DWGCODEPAGE
  3
ANSI_1252
  9
$TEXTSTYLE
  7
STANDARD
  9
$DIMSTYLE
  2
STANDARD
  9
$DIMTXSTY
  7
STANDARD
  9
$CMLSTYLE
  2
STANDARD
  9
$LUNITS
 70
2
  9
$INSUNITS
 70
4
  9
$PEXTMAX
 10
50
 20
50
 30
50
  9
$PEXTMIN
 10
0
 20
0
 30
0
  9
$HANDSEED
  5
FFFF
  0
ENDSEC
  0
SECTION
  2
CLASSES
  0
CLASS
  1
ACDBDICTIONARYWDFLT
  2
AcDbDictionaryWithDefault
  3
ObjectDBX Classes
 90
        0
280
     0
281
     0
  0
CLASS
  1
XRECORD
  2
AcDbXrecord
  3
ObjectDBX Classes
 90
        0
280
     0
281
     0
  0
CLASS
  1
LWPOLYLINE
  2
AcDbPolyline
  3
ObjectDBX Classes
 90
        0
280
     0
281
     1
  0
ENDSEC
  0
SECTION
  2
TABLES
  0
TABLE
  2
VPORT
  5
20
330
0
100
AcDbSymbolTable
 70
     1
  0
VPORT
  5
21
330
20
100
AcDbSymbolTableRecord
100
AcDbViewportTableRecord
  2
*ACTIVE
 70
     0
  0
ENDTAB
  0
TABLE
  2
LTYPE
  5
22
330
0
100
AcDbSymbolTable
 70
     1
  0
LTYPE
  5
23
330
21
100
AcDbSymbolTableRecord
100
AcDbLinetypeTableRecord
  2
BYBLOCK
 70
     0
  3

 72
    65
 73
     0
 40
0.0
  0
LTYPE
  5
24
330
21
100
AcDbSymbolTableRecord
100
AcDbLinetypeTableRecord
  2
BYLAYER
 70
     0
  3

 72
    65
 73
     0
 40
0.0
  0
LTYPE
  5
25
330
21
100
AcDbSymbolTableRecord
100
AcDbLinetypeTableRecord
  2
CONTINUOUS
 70
     0
  3
Solid line
 72
    65
 73
     0
 40
0.0
  0
ENDTAB
  0
TABLE
  2
LAYER
  5
A3C
330
0
100
AcDbSymbolTable
 70
3
  0
LAYER
  5
A3D
330
A3C
100
AcDbSymbolTableRecord
100
AcDbLayerTableRecord
  2
0
 70
   0
 62
   7
  6
CONTINUOUS
  0
LAYER
  5
A3E
330
A3C
100
AcDbSymbolTableRecord
100
AcDbLayerTableRecord
  2
none
 70
    0
 62
    7
  6
CONTINUOUS
  0
LAYER
  5
A3F
330
A3C
100
AcDbSymbolTableRecord
100
AcDbLayerTableRecord
  2
Pocket005
 70
    0
 62
    7
  6
CONTINUOUS
  0
ENDTAB
  0
TABLE
  2
STYLE
  5
70
330
0
100
AcDbSymbolTable
 70
     2
  0
STYLE
  5
71
330
70
100
AcDbSymbolTableRecord
100
AcDbTextStyleTableRecord
  2
STANDARD
 70
     0
 40
0.0
 41
1.0
 50
0.0
 71
     0
 42
2.5
  3
arial.ttf
  4

  0
STYLE
  5
72
330
70
100
AcDbSymbolTableRecord
100
AcDbTextStyleTableRecord
  2
ANNOTATIVE
 70
     0
 40
0.0
 41
1.0
 50
0.0
 71
     0
 42
2.5
  3
arial.ttf
  4

  0
ENDTAB
  0
TABLE
  2
VIEW
  5
73
330
0
100
AcDbSymbolTable
 70
     0
  0
ENDTAB
  0
TABLE
  2
UCS
  5
74
330
0
100
AcDbSymbolTable
 70
     0
  0
ENDTAB
  0
TABLE
  2
APPID
  5
75
330
0
100
AcDbSymbolTable
 70
     2
  0
APPID
  5
76
330
75
100
AcDbSymbolTableRecord
100
AcDbRegAppTableRecord
  2
ACAD
 70
     0
  0
APPID
  5
77
330
75
100
AcDbSymbolTableRecord
100
AcDbRegAppTableRecord
  2
ACADANNOTATIVE
 70
     0
  0
ENDTAB
  0
TABLE
  2
DIMSTYLE
  5
78
330
0
100
AcDbSymbolTable
 70
     2
  0
DIMSTYLE
105
79
330
78
100
AcDbSymbolTableRecord
100
AcDbDimStyleTableRecord
  2
STANDARD
 70
     0
  3

  4

  5

  6

  7

 40
0.0
 41
2.5
 42
0.625
 43
3.75
 44
1.25
 45
0.0
 46
0.0
 47
0.0
 48
0.0
140
2.5
141
2.5
142
0.0
143
0.03937007874016
144
1.0
145
0.0
146
1.0
147
0.625
 71
     0
 72
     0
 73
     0
 74
     0
 75
     0
 76
     0
 77
     1
 78
     8
170
     0
171
     3
172
     1
173
     0
174
     0
175
     0
176
     0
177
     0
178
     0
270
     2
271
     2
272
     2
273
     2
274
     3
340
71
275
     0
280
     0
281
     0
282
     0
283
     0
284
     8
285
     0
286
     0
287
     3
288
     0
  0
ENDTAB
  0
TABLE
  2
BLOCK_RECORD
  5
A01
330
0
100
AcDbSymbolTable
  70
5
  0
BLOCK_RECORD
  5
A02
330
A01
100
AcDbSymbolTableRecord
100
AcDbBlockTableRecord
  2
*MODEL_SPACE
  0
BLOCK_RECORD
  5
A03
330
A01
100
AcDbSymbolTableRecord
100
AcDbBlockTableRecord
  2
*PAPER_SPACE
  0
ENDTAB
  0
ENDSEC
  0
SECTION
  2
BLOCKS
  0
BLOCK
  5
A04
330
A02
100
AcDbEntity
  8
0
100
AcDbBlockBegin
  2
*MODEL_SPACE
 70
   0
 10
0
 20
0
 30
0
  3
*MODEL_SPACE
  1
 
  0
ENDBLK
  5
A05
330
A02
100
AcDbEntity
  8
0
100
AcDbBlockEnd
  0
BLOCK
  5
A06
330
A03
100
AcDbEntity
 67
1
  8
0
100
AcDbBlockBegin
  2
*PAPER_SPACE
 70
   0
 10
0
 20
0
 30
0
  3
*PAPER_SPACE
  1
 
  0
ENDBLK
  5
A07
330
A03
100
AcDbEntity
 67
    1
  8
0
100
AcDbBlockEnd
  0
ENDSEC
  0
SECTION
  2
ENTITIES
  0
SPLINE
  5
A08
330
A02
100
AcDbEntity
  8
Pocket005
100
AcDbSpline
210
0
220
0
230
1
 70
8
 71
2
 72
6
 73
3
 74
0
 40
0.060805427
 40
0.060805427
 40
0.060805427
 40
0.083808710
 40
0.083808710
 40
0.083808710
 10
5.995862382
 20
-63.277212443
 30
0.000000000
 10
7.193580240
 20
-62.992826046
 30
0.000000000
 10
8.436570884
 20
-62.581185356
 30
0.000000000
  0
SPLINE
  5
A09
330
A02
100
AcDbEntity
  8
Pocket005
100
AcDbSpline
210
0
220
0
230
1
 70
8
 71
1
 72
4
 73
2
 74
0
 40
0.000340862
 40
0.000340862
 40
0.999659138
 40
0.999659138
 10
8.436570884
 20
-62.581185356
 30
1.000000000
 10
8.436570884
 20
-62.581185356
 30
-0.000000000
  0
SPLINE
  5
A0A
330
A02
100
AcDbEntity
  8
Pocket005
100
AcDbSpline
210
0
220
0
230
1
 70
8
 71
2
 72
6
 73
3
 74
0
 40
0.060805427
 40
0.060805427
 40
0.060805427
 40
0.083808710
 40
0.083808710
 40
0.083808710
 10
5.995862382
 20
-63.277212443
 30
1.000000000
 10
7.193580240
 20
-62.992826046
 30
1.000000000
 10
8.436570884
 20
-62.581185356
 30
1.000000000
  0
SPLINE
  5
A0B
330
A02
100
AcDbEntity
  8
Pocket005
100
AcDbSpline
210
0
220
0
230
1
 70
8
 71
1
 72
4
 73
2
 74
0
 40
0.000340862
 40
0.000340862
 40
0.999659138
 40
0.999659138
 10
5.995862382
 20
-63.277212443
 30
1.000000000
 10
5.995862382
 20
-63.277212443
 30
-0.000000000
  0
ARC
  5
A0C
330
A02
100
AcDbEntity
  8
Pocket005
100
AcDbCircle
 10
0.000000000
 20
-63.500000000
 30
0.000000000
 40
6.000000000
100
AcDbArc
 50
2.127953624
 51
177.872109227
  0
SPLINE
  5
A0D
330
A02
100
AcDbEntity
  8
Pocket005
100
AcDbSpline
210
0
220
0
230
1
 70
8
 71
3
 72
23
 73
19
 74
0
 40
1.548074774
 40
1.548074774
 40
1.548074774
 40
1.548074774
 40
1.596964798
 40
1.596964798
 40
1.596964798
 40
1.645854823
 40
1.645854823
 40
1.645854823
 40
1.694744847
 40
1.694744847
 40
1.694744847
 40
1.743634872
 40
1.743634872
 40
1.743634872
 40
1.841414920
 40
1.841414920
 40
1.841414920
 40
1.939194969
 40
1.939194969
 40
1.939194969
 40
1.939194969
 10
-45.648119029
 20
-5.969735279
 30
0.000000000
 10
-45.076304833
 20
-10.145528801
 30
0.000000000
 10
-44.221577094
 20
-14.261925694
 30
0.000000000
 10
-43.129172486
 20
-18.210452057
 30
0.000000000
 10
-42.037397722
 20
-22.160009704
 30
0.000000000
 10
-40.708963203
 20
-25.940779406
 30
0.000000000
 10
-39.206830808
 20
-29.473651077
 30
0.000000000
 10
-37.704858653
 20
-33.007791942
 30
0.000000000
 10
-36.030160110
 20
-36.293934305
 30
0.000000000
 10
-34.250053721
 20
-39.288955900
 30
0.000000000
 10
-32.469725031
 20
-42.285149445
 30
0.000000000
 10
-30.584642667
 20
-44.990724058
 30
0.000000000
 10
-28.655673383
 20
-47.395627294
 30
0.000000000
 10
-24.793306360
 20
-52.211079708
 30
0.000000000
 10
-20.773732692
 20
-55.807625337
 30
0.000000000
 10
-16.926844331
 20
-58.365616413
 30
0.000000000
 10
-13.072885673
 20
-60.927747122
 30
0.000000000
 10
-9.386545394
 20
-62.468668692
 30
0.000000000
 10
-5.995862626
 20
-63.277219021
 30
0.000000000
  0
ARC
  5
A0E
330
A02
100
AcDbEntity
  8
Pocket005
100
AcDbCircle
 10
-46.250000000
 20
0.000000000
 30
0.000000000
 40
6.000000000
100
AcDbArc
 50
-84.242776796
 51
-0.000000000
  0
ARC
  5
A0F
330
A02
100
AcDbEntity
  8
Pocket005
100
AcDbCircle
 10
-46.250000000
 20
0.000000000
 30
0.000000000
 40
6.000000000
100
AcDbArc
 50
0.000000000
 51
92.379118794
  0
SPLINE
  5
A10
330
A02
100
AcDbEntity
  8
Pocket005
100
AcDbSpline
210
0
220
0
230
1
 70
8
 71
3
 72
53
 73
49
 74
0
 40
0.498418047
 40
0.498418047
 40
0.498418047
 40
0.498418047
 40
0.561115791
 40
0.561115791
 40
0.561115791
 40
0.623813535
 40
0.623813535
 40
0.623813535
 40
0.686511280
 40
0.686511280
 40
0.686511280
 40
0.749209024
 40
0.749209024
 40
0.749209024
 40
0.811906768
 40
0.811906768
 40
0.811906768
 40
0.874604512
 40
0.874604512
 40
0.874604512
 40
0.937302256
 40
0.937302256
 40
0.937302256
 40
1.000000000
 40
1.000000000
 40
1.000000000
 40
1.062697748
 40
1.062697748
 40
1.062697748
 40
1.125395496
 40
1.125395496
 40
1.125395496
 40
1.188093243
 40
1.188093243
 40
1.188093243
 40
1.250790991
 40
1.250790991
 40
1.250790991
 40
1.313488739
 40
1.313488739
 40
1.313488739
 40
1.376186487
 40
1.376186487
 40
1.376186487
 40
1.438884235
 40
1.438884235
 40
1.438884235
 40
1.501581982
 40
1.501581982
 40
1.501581982
 40
1.501581982
 10
46.499068919
 20
5.994828160
 30
0.000000000
 10
46.525239661
 20
11.350933369
 30
0.000000000
 10
46.055022185
 20
16.607558107
 30
0.000000000
 10
45.130986873
 20
21.534096663
 30
0.000000000
 10
44.209450416
 20
26.463658436
 30
0.000000000
 10
42.836808553
 20
31.059654245
 30
0.000000000
 10
41.126807577
 20
35.178333691
 30
0.000000000
 10
39.417811127
 20
39.300765078
 30
0.000000000
 10
37.375021827
 20
42.946240350
 30
0.000000000
 10
35.140131744
 20
46.078148154
 30
0.000000000
 10
32.904816564
 20
49.213044371
 30
0.000000000
 10
30.479880579
 20
51.837177779
 30
0.000000000
 10
27.994144510
 20
53.998377200
 30
0.000000000
 10
25.507207830
 20
56.161169442
 30
0.000000000
 10
22.960306721
 20
57.864102063
 30
0.000000000
 10
20.447754264
 20
59.199262962
 30
0.000000000
 10
17.933883556
 20
60.534795172
 30
0.000000000
 10
15.454058248
 20
61.504669641
 30
0.000000000
 10
13.065226305
 20
62.210670133
 30
0.000000000
 10
10.675326382
 20
62.916312953
 30
0.000000000
 10
8.375679743
 20
63.359087376
 30
0.000000000
 10
6.193237556
 20
63.630184638
 30
0.000000000
 10
4.010074536
 20
63.900635700
 30
0.000000000
 10
1.943386378
 20
63.999652057
 30
0.000000000
 10
0.000020915
 20
64.000000000
 30
0.000000000
 10
-1.943344664
 20
63.999653327
 30
0.000000000
 10
-4.010033060
 20
63.900638069
 30
0.000000000
 10
-6.193196487
 20
63.630187924
 30
0.000000000
 10
-8.375639081
 20
63.359091579
 30
0.000000000
 10
-10.675286295
 20
62.916317890
 30
0.000000000
 10
-13.065187009
 20
62.210675612
 30
0.000000000
 10
-15.454019743
 20
61.504675662
 30
0.000000000
 10
-17.933846060
 20
60.534801544
 30
0.000000000
 10
-20.447718034
 20
59.199269492
 30
0.000000000
 10
-22.960271757
 20
57.864108752
 30
0.000000000
 10
-25.507174392
 20
56.161176097
 30
0.000000000
 10
-27.994112875
 20
53.998383647
 30
0.000000000
 10
-30.479850747
 20
51.837184019
 30
0.000000000
 10
-32.904788814
 20
49.213050231
 30
0.000000000
 10
-35.140106334
 20
46.078153510
 30
0.000000000
 10
-37.374998753
 20
42.946245203
 30
0.000000000
 10
-39.417790649
 20
39.300769306
 30
0.000000000
 10
-41.126789879
 20
35.178337257
 30
0.000000000
 10
-42.836793633
 20
31.059657149
 30
0.000000000
 10
-44.209438458
 20
26.463660643
 30
0.000000000
 10
-45.130977944
 20
21.534098243
 30
0.000000000
 10
-46.055016286
 20
16.607559058
 30
0.000000000
 10
-46.525236858
 20
11.350933762
 30
0.000000000
 10
-46.499069149
 20
5.994828151
 30
0.000000000
  0
ARC
  5
A11
330
A02
100
AcDbEntity
  8
Pocket005
100
AcDbCircle
 10
46.250000000
 20
0.000000000
 30
0.000000000
 40
6.000000000
100
AcDbArc
 50
87.620883402
 51
-95.757288710
  0
SPLINE
  5
A12
330
A02
100
AcDbEntity
  8
Pocket005
100
AcDbSpline
210
0
220
0
230
1
 70
8
 71
3
 72
17
 73
13
 74
0
 40
0.175276858
 40
0.175276858
 40
0.175276858
 40
0.175276858
 40
0.244438958
 40
0.244438958
 40
0.244438958
 40
0.313601058
 40
0.313601058
 40
0.313601058
 40
0.382763158
 40
0.382763158
 40
0.382763158
 40
0.451925259
 40
0.451925259
 40
0.451925259
 40
0.451925259
 10
18.910922725
 20
-56.963341859
 30
0.000000000
 10
21.665199731
 20
-54.901030115
 30
0.000000000
 10
24.479989848
 20
-52.301758044
 30
0.000000000
 10
27.236602151
 20
-49.102865293
 30
0.000000000
 10
29.991402563
 20
-45.907129798
 30
0.000000000
 10
32.686892609
 20
-42.107493642
 30
0.000000000
 10
35.152115341
 20
-37.729815545
 30
0.000000000
 10
37.616736379
 20
-33.356876593
 30
0.000000000
 10
39.847042051
 20
-28.403580481
 30
0.000000000
 10
41.653495428
 20
-23.030821970
 30
0.000000000
 10
43.461687622
 20
-17.662611269
 30
0.000000000
 10
44.840202405
 20
-11.878186999
 30
0.000000000
 10
45.648112204
 20
-5.969734590
 30
0.000000000
  0
ARC
  5
A13
330
A02
100
AcDbEntity
  8
Pocket005
100
AcDbCircle
 10
14.064063000
 20
-60.500000000
 30
0.000000000
 40
6.000000000
100
AcDbArc
 50
36.117493416
 51
-159.704363334
  0
SPLINE
  5
A14
330
A02
100
AcDbEntity
  8
Pocket005
100
AcDbSpline
210
0
220
0
230
1
 70
8
 71
2
 72
6
 73
3
 74
0
 40
0.060805427
 40
0.060805427
 40
0.060805427
 40
0.083808710
 40
0.083808710
 40
0.083808710
 10
5.995862382
 20
-63.277212443
 30
0.000000000
 10
7.193580240
 20
-62.992826046
 30
0.000000000
 10
8.436570884
 20
-62.581185356
 30
0.000000000
  0
ARC
  5
A15
330
A02
100
AcDbEntity
  8
Pocket005
100
AcDbCircle
 10
14.064063000
 20
-60.500000000
 30
1.000000000
 40
6.000000000
100
AcDbArc
 50
36.117493416
 51
-159.704363334
  0
SPLINE
  5
A16
330
A02
100
AcDbEntity
  8
Pocket005
100
AcDbSpline
210
0
220
0
230
1
 70
8
 71
1
 72
4
 73
2
 74
0
 40
0.000340862
 40
0.000340862
 40
0.999659138
 40
0.999659138
 10
8.436570884
 20
-62.581185356
 30
1.000000000
 10
8.436570884
 20
-62.581185356
 30
-0.000000000
  0
ARC
  5
A17
330
A02
100
AcDbEntity
  8
Pocket005
100
AcDbCircle
 10
14.064063000
 20
-60.500000000
 30
0.000000000
 40
6.000000000
100
AcDbArc
 50
36.117493416
 51
-159.704363334
  0
SPLINE
  5
A18
330
A02
100
AcDbEntity
  8
Pocket005
100
AcDbSpline
210
0
220
0
230
1
 70
8
 71
1
 72
4
 73
2
 74
0
 40
0.000340862
 40
0.000340862
 40
0.999659138
 40
0.999659138
 10
18.910922725
 20
-56.963341859
 30
1.000000000
 10
18.910922725
 20
-56.963341859
 30
-0.000000000
  0
ARC
  5
A19
330
A02
100
AcDbEntity
  8
Pocket005
100
AcDbCircle
 10
0.000000000
 20
-63.500000000
 30
1.000000000
 40
6.000000000
100
AcDbArc
 50
2.127953624
 51
177.872109227
  0
SPLINE
  5
A1A
330
A02
100
AcDbEntity
  8
Pocket005
100
AcDbSpline
210
0
220
0
230
1
 70
8
 71
3
 72
23
 73
19
 74
0
 40
1.548074774
 40
1.548074774
 40
1.548074774
 40
1.548074774
 40
1.596964798
 40
1.596964798
 40
1.596964798
 40
1.645854823
 40
1.645854823
 40
1.645854823
 40
1.694744847
 40
1.694744847
 40
1.694744847
 40
1.743634872
 40
1.743634872
 40
1.743634872
 40
1.841414920
 40
1.841414920
 40
1.841414920
 40
1.939194969
 40
1.939194969
 40
1.939194969
 40
1.939194969
 10
-45.648119029
 20
-5.969735279
 30
1.000000000
 10
-45.076304833
 20
-10.145528801
 30
1.000000000
 10
-44.221577094
 20
-14.261925694
 30
1.000000000
 10
-43.129172486
 20
-18.210452057
 30
1.000000000
 10
-42.037397722
 20
-22.160009704
 30
1.000000000
 10
-40.708963203
 20
-25.940779406
 30
1.000000000
 10
-39.206830808
 20
-29.473651077
 30
1.000000000
 10
-37.704858653
 20
-33.007791942
 30
1.000000000
 10
-36.030160110
 20
-36.293934305
 30
1.000000000
 10
-34.250053721
 20
-39.288955900
 30
1.000000000
 10
-32.469725031
 20
-42.285149445
 30
1.000000000
 10
-30.584642667
 20
-44.990724058
 30
1.000000000
 10
-28.655673383
 20
-47.395627294
 30
1.000000000
 10
-24.793306360
 20
-52.211079708
 30
1.000000000
 10
-20.773732692
 20
-55.807625337
 30
1.000000000
 10
-16.926844331
 20
-58.365616413
 30
1.000000000
 10
-13.072885673
 20
-60.927747122
 30
1.000000000
 10
-9.386545394
 20
-62.468668692
 30
1.000000000
 10
-5.995862626
 20
-63.277219021
 30
1.000000000
  0
ARC
  5
A1B
330
A02
100
AcDbEntity
  8
Pocket005
100
AcDbCircle
 10
-46.250000000
 20
0.000000000
 30
1.000000000
 40
6.000000000
100
AcDbArc
 50
-84.242776796
 51
-0.000000000
  0
ARC
  5
A1C
330
A02
100
AcDbEntity
  8
Pocket005
100
AcDbCircle
 10
-46.250000000
 20
0.000000000
 30
1.000000000
 40
6.000000000
100
AcDbArc
 50
0.000000000
 51
92.379118794
  0
SPLINE
  5
A1D
330
A02
100
AcDbEntity
  8
Pocket005
100
AcDbSpline
210
0
220
0
230
1
 70
8
 71
3
 72
53
 73
49
 74
0
 40
0.498418047
 40
0.498418047
 40
0.498418047
 40
0.498418047
 40
0.561115791
 40
0.561115791
 40
0.561115791
 40
0.623813535
 40
0.623813535
 40
0.623813535
 40
0.686511280
 40
0.686511280
 40
0.686511280
 40
0.749209024
 40
0.749209024
 40
0.749209024
 40
0.811906768
 40
0.811906768
 40
0.811906768
 40
0.874604512
 40
0.874604512
 40
0.874604512
 40
0.937302256
 40
0.937302256
 40
0.937302256
 40
1.000000000
 40
1.000000000
 40
1.000000000
 40
1.062697748
 40
1.062697748
 40
1.062697748
 40
1.125395496
 40
1.125395496
 40
1.125395496
 40
1.188093243
 40
1.188093243
 40
1.188093243
 40
1.250790991
 40
1.250790991
 40
1.250790991
 40
1.313488739
 40
1.313488739
 40
1.313488739
 40
1.376186487
 40
1.376186487
 40
1.376186487
 40
1.438884235
 40
1.438884235
 40
1.438884235
 40
1.501581982
 40
1.501581982
 40
1.501581982
 40
1.501581982
 10
46.499068919
 20
5.994828160
 30
1.000000000
 10
46.525239661
 20
11.350933369
 30
1.000000000
 10
46.055022185
 20
16.607558107
 30
1.000000000
 10
45.130986873
 20
21.534096663
 30
1.000000000
 10
44.209450416
 20
26.463658436
 30
1.000000000
 10
42.836808553
 20
31.059654245
 30
1.000000000
 10
41.126807577
 20
35.178333691
 30
1.000000000
 10
39.417811127
 20
39.300765078
 30
1.000000000
 10
37.375021827
 20
42.946240350
 30
1.000000000
 10
35.140131744
 20
46.078148154
 30
1.000000000
 10
32.904816564
 20
49.213044371
 30
1.000000000
 10
30.479880579
 20
51.837177779
 30
1.000000000
 10
27.994144510
 20
53.998377200
 30
1.000000000
 10
25.507207830
 20
56.161169442
 30
1.000000000
 10
22.960306721
 20
57.864102063
 30
1.000000000
 10
20.447754264
 20
59.199262962
 30
1.000000000
 10
17.933883556
 20
60.534795172
 30
1.000000000
 10
15.454058248
 20
61.504669641
 30
1.000000000
 10
13.065226305
 20
62.210670133
 30
1.000000000
 10
10.675326382
 20
62.916312953
 30
1.000000000
 10
8.375679743
 20
63.359087376
 30
1.000000000
 10
6.193237556
 20
63.630184638
 30
1.000000000
 10
4.010074536
 20
63.900635700
 30
1.000000000
 10
1.943386378
 20
63.999652057
 30
1.000000000
 10
0.000020915
 20
64.000000000
 30
1.000000000
 10
-1.943344664
 20
63.999653327
 30
1.000000000
 10
-4.010033060
 20
63.900638069
 30
1.000000000
 10
-6.193196487
 20
63.630187924
 30
1.000000000
 10
-8.375639080
 20
63.359091579
 30
1.000000000
 10
-10.675286295
 20
62.916317890
 30
1.000000000
 10
-13.065187009
 20
62.210675612
 30
1.000000000
 10
-15.454019743
 20
61.504675662
 30
1.000000000
 10
-17.933846060
 20
60.534801544
 30
1.000000000
 10
-20.447718034
 20
59.199269492
 30
1.000000000
 10
-22.960271757
 20
57.864108752
 30
1.000000000
 10
-25.507174392
 20
56.161176097
 30
1.000000000
 10
-27.994112875
 20
53.998383647
 30
1.000000000
 10
-30.479850747
 20
51.837184019
 30
1.000000000
 10
-32.904788814
 20
49.213050231
 30
1.000000000
 10
-35.140106334
 20
46.078153510
 30
1.000000000
 10
-37.374998753
 20
42.946245203
 30
1.000000000
 10
-39.417790649
 20
39.300769306
 30
1.000000000
 10
-41.126789879
 20
35.178337257
 30
1.000000000
 10
-42.836793633
 20
31.059657149
 30
1.000000000
 10
-44.209438458
 20
26.463660643
 30
1.000000000
 10
-45.130977944
 20
21.534098243
 30
1.000000000
 10
-46.055016286
 20
16.607559058
 30
1.000000000
 10
-46.525236858
 20
11.350933762
 30
1.000000000
 10
-46.499069149
 20
5.994828151
 30
1.000000000
  0
ARC
  5
A1E
330
A02
100
AcDbEntity
  8
Pocket005
100
AcDbCircle
 10
46.250000000
 20
0.000000000
 30
1.000000000
 40
6.000000000
100
AcDbArc
 50
87.620883402
 51
-95.757288710
  0
SPLINE
  5
A1F
330
A02
100
AcDbEntity
  8
Pocket005
100
AcDbSpline
210
0
220
0
230
1
 70
8
 71
3
 72
17
 73
13
 74
0
 40
0.175276858
 40
0.175276858
 40
0.175276858
 40
0.175276858
 40
0.244438958
 40
0.244438958
 40
0.244438958
 40
0.313601058
 40
0.313601058
 40
0.313601058
 40
0.382763158
 40
0.382763158
 40
0.382763158
 40
0.451925259
 40
0.451925259
 40
0.451925259
 40
0.451925259
 10
18.910922725
 20
-56.963341859
 30
1.000000000
 10
21.665199731
 20
-54.901030115
 30
1.000000000
 10
24.479989848
 20
-52.301758044
 30
1.000000000
 10
27.236602151
 20
-49.102865293
 30
1.000000000
 10
29.991402563
 20
-45.907129798
 30
1.000000000
 10
32.686892609
 20
-42.107493642
 30
1.000000000
 10
35.152115341
 20
-37.729815545
 30
1.000000000
 10
37.616736379
 20
-33.356876593
 30
1.000000000
 10
39.847042051
 20
-28.403580481
 30
1.000000000
 10
41.653495428
 20
-23.030821970
 30
1.000000000
 10
43.461687622
 20
-17.662611269
 30
1.000000000
 10
44.840202405
 20
-11.878186999
 30
1.000000000
 10
45.648112204
 20
-5.969734590
 30
1.000000000
  0
ARC
  5
A20
330
A02
100
AcDbEntity
  8
Pocket005
100
AcDbCircle
 10
14.064063000
 20
-60.500000000
 30
1.000000000
 40
6.000000000
100
AcDbArc
 50
36.117493416
 51
-159.704363334
  0
SPLINE
  5
A21
330
A02
100
AcDbEntity
  8
Pocket005
100
AcDbSpline
210
0
220
0
230
1
 70
8
 71
2
 72
6
 73
3
 74
0
 40
0.060805427
 40
0.060805427
 40
0.060805427
 40
0.083808710
 40
0.083808710
 40
0.083808710
 10
5.995862382
 20
-63.277212443
 30
1.000000000
 10
7.193580240
 20
-62.992826046
 30
1.000000000
 10
8.436570884
 20
-62.581185356
 30
1.000000000
  0
ARC
  5
A22
330
A02
100
AcDbEntity
  8
Pocket005
100
AcDbCircle
 10
0.000000000
 20
-63.500000000
 30
1.000000000
 40
6.000000000
100
AcDbArc
 50
2.127953624
 51
177.872109227
  0
SPLINE
  5
A23
330
A02
100
AcDbEntity
  8
Pocket005
100
AcDbSpline
210
0
220
0
230
1
 70
8
 71
1
 72
4
 73
2
 74
0
 40
0.000340862
 40
0.000340862
 40
0.999659138
 40
0.999659138
 10
-5.995862626
 20
-63.277219021
 30
1.000000000
 10
-5.995862626
 20
-63.277219021
 30
-0.000000000
  0
ARC
  5
A24
330
A02
100
AcDbEntity
  8
Pocket005
100
AcDbCircle
 10
0.000000000
 20
-63.500000000
 30
0.000000000
 40
6.000000000
100
AcDbArc
 50
2.127953624
 51
177.872109227
  0
SPLINE
  5
A25
330
A02
100
AcDbEntity
  8
Pocket005
100
AcDbSpline
210
0
220
0
230
1
 70
8
 71
1
 72
4
 73
2
 74
0
 40
0.000340862
 40
0.000340862
 40
0.999659138
 40
0.999659138
 10
5.995862382
 20
-63.277212443
 30
1.000000000
 10
5.995862382
 20
-63.277212443
 30
-0.000000000
  0
SPLINE
  5
A26
330
A02
100
AcDbEntity
  8
Pocket005
100
AcDbSpline
210
0
220
0
230
1
 70
8
 71
1
 72
4
 73
2
 74
0
 40
0.000340862
 40
0.000340862
 40
0.999659138
 40
0.999659138
 10
-5.995862626
 20
-63.277219021
 30
1.000000000
 10
-5.995862626
 20
-63.277219021
 30
-0.000000000
  0
SPLINE
  5
A27
330
A02
100
AcDbEntity
  8
Pocket005
100
AcDbSpline
210
0
220
0
230
1
 70
8
 71
3
 72
23
 73
19
 74
0
 40
1.548074774
 40
1.548074774
 40
1.548074774
 40
1.548074774
 40
1.596964798
 40
1.596964798
 40
1.596964798
 40
1.645854823
 40
1.645854823
 40
1.645854823
 40
1.694744847
 40
1.694744847
 40
1.694744847
 40
1.743634872
 40
1.743634872
 40
1.743634872
 40
1.841414920
 40
1.841414920
 40
1.841414920
 40
1.939194969
 40
1.939194969
 40
1.939194969
 40
1.939194969
 10
-45.648119029
 20
-5.969735279
 30
1.000000000
 10
-45.076304833
 20
-10.145528801
 30
1.000000000
 10
-44.221577094
 20
-14.261925694
 30
1.000000000
 10
-43.129172486
 20
-18.210452057
 30
1.000000000
 10
-42.037397722
 20
-22.160009704
 30
1.000000000
 10
-40.708963203
 20
-25.940779406
 30
1.000000000
 10
-39.206830808
 20
-29.473651077
 30
1.000000000
 10
-37.704858653
 20
-33.007791942
 30
1.000000000
 10
-36.030160110
 20
-36.293934305
 30
1.000000000
 10
-34.250053721
 20
-39.288955900
 30
1.000000000
 10
-32.469725031
 20
-42.285149445
 30
1.000000000
 10
-30.584642667
 20
-44.990724058
 30
1.000000000
 10
-28.655673383
 20
-47.395627294
 30
1.000000000
 10
-24.793306360
 20
-52.211079708
 30
1.000000000
 10
-20.773732692
 20
-55.807625337
 30
1.000000000
 10
-16.926844331
 20
-58.365616413
 30
1.000000000
 10
-13.072885673
 20
-60.927747122
 30
1.000000000
 10
-9.386545394
 20
-62.468668692
 30
1.000000000
 10
-5.995862626
 20
-63.277219021
 30
1.000000000
  0
SPLINE
  5
A28
330
A02
100
AcDbEntity
  8
Pocket005
100
AcDbSpline
210
0
220
0
230
1
 70
8
 71
1
 72
4
 73
2
 74
0
 40
0.000340862
 40
0.000340862
 40
0.999659138
 40
0.999659138
 10
-45.648119029
 20
-5.969735279
 30
1.000000000
 10
-45.648119029
 20
-5.969735279
 30
-0.000000000
  0
SPLINE
  5
A29
330
A02
100
AcDbEntity
  8
Pocket005
100
AcDbSpline
210
0
220
0
230
1
 70
8
 71
3
 72
23
 73
19
 74
0
 40
1.548074774
 40
1.548074774
 40
1.548074774
 40
1.548074774
 40
1.596964798
 40
1.596964798
 40
1.596964798
 40
1.645854823
 40
1.645854823
 40
1.645854823
 40
1.694744847
 40
1.694744847
 40
1.694744847
 40
1.743634872
 40
1.743634872
 40
1.743634872
 40
1.841414920
 40
1.841414920
 40
1.841414920
 40
1.939194969
 40
1.939194969
 40
1.939194969
 40
1.939194969
 10
-45.648119029
 20
-5.969735279
 30
0.000000000
 10
-45.076304833
 20
-10.145528801
 30
0.000000000
 10
-44.221577094
 20
-14.261925694
 30
0.000000000
 10
-43.129172486
 20
-18.210452057
 30
0.000000000
 10
-42.037397722
 20
-22.160009704
 30
0.000000000
 10
-40.708963203
 20
-25.940779406
 30
0.000000000
 10
-39.206830808
 20
-29.473651077
 30
0.000000000
 10
-37.704858653
 20
-33.007791942
 30
0.000000000
 10
-36.030160110
 20
-36.293934305
 30
0.000000000
 10
-34.250053721
 20
-39.288955900
 30
0.000000000
 10
-32.469725031
 20
-42.285149445
 30
0.000000000
 10
-30.584642667
 20
-44.990724058
 30
0.000000000
 10
-28.655673383
 20
-47.395627294
 30
0.000000000
 10
-24.793306360
 20
-52.211079708
 30
0.000000000
 10
-20.773732692
 20
-55.807625337
 30
0.000000000
 10
-16.926844331
 20
-58.365616413
 30
0.000000000
 10
-13.072885673
 20
-60.927747122
 30
0.000000000
 10
-9.386545394
 20
-62.468668692
 30
0.000000000
 10
-5.995862626
 20
-63.277219021
 30
0.000000000
  0
SPLINE
  5
A2A
330
A02
100
AcDbEntity
  8
Pocket005
100
AcDbSpline
210
0
220
0
230
1
 70
8
 71
1
 72
4
 73
2
 74
0
 40
0.000340862
 40
0.000340862
 40
0.999659138
 40
0.999659138
 10
-46.499069149
 20
5.994828151
 30
1.000000000
 10
-46.499069149
 20
5.994828151
 30
-0.000000000
  0
SPLINE
  5
A2B
330
A02
100
AcDbEntity
  8
Pocket005
100
AcDbSpline
210
0
220
0
230
1
 70
8
 71
3
 72
53
 73
49
 74
0
 40
0.498418047
 40
0.498418047
 40
0.498418047
 40
0.498418047
 40
0.561115791
 40
0.561115791
 40
0.561115791
 40
0.623813535
 40
0.623813535
 40
0.623813535
 40
0.686511280
 40
0.686511280
 40
0.686511280
 40
0.749209024
 40
0.749209024
 40
0.749209024
 40
0.811906768
 40
0.811906768
 40
0.811906768
 40
0.874604512
 40
0.874604512
 40
0.874604512
 40
0.937302256
 40
0.937302256
 40
0.937302256
 40
1.000000000
 40
1.000000000
 40
1.000000000
 40
1.062697748
 40
1.062697748
 40
1.062697748
 40
1.125395496
 40
1.125395496
 40
1.125395496
 40
1.188093243
 40
1.188093243
 40
1.188093243
 40
1.250790991
 40
1.250790991
 40
1.250790991
 40
1.313488739
 40
1.313488739
 40
1.313488739
 40
1.376186487
 40
1.376186487
 40
1.376186487
 40
1.438884235
 40
1.438884235
 40
1.438884235
 40
1.501581982
 40
1.501581982
 40
1.501581982
 40
1.501581982
 10
46.499068919
 20
5.994828160
 30
1.000000000
 10
46.525239661
 20
11.350933369
 30
1.000000000
 10
46.055022185
 20
16.607558107
 30
1.000000000
 10
45.130986873
 20
21.534096663
 30
1.000000000
 10
44.209450416
 20
26.463658436
 30
1.000000000
 10
42.836808553
 20
31.059654245
 30
1.000000000
 10
41.126807577
 20
35.178333691
 30
1.000000000
 10
39.417811127
 20
39.300765078
 30
1.000000000
 10
37.375021827
 20
42.946240350
 30
1.000000000
 10
35.140131744
 20
46.078148154
 30
1.000000000
 10
32.904816564
 20
49.213044371
 30
1.000000000
 10
30.479880579
 20
51.837177779
 30
1.000000000
 10
27.994144510
 20
53.998377200
 30
1.000000000
 10
25.507207830
 20
56.161169442
 30
1.000000000
 10
22.960306721
 20
57.864102063
 30
1.000000000
 10
20.447754264
 20
59.199262962
 30
1.000000000
 10
17.933883556
 20
60.534795172
 30
1.000000000
 10
15.454058248
 20
61.504669641
 30
1.000000000
 10
13.065226305
 20
62.210670133
 30
1.000000000
 10
10.675326382
 20
62.916312953
 30
1.000000000
 10
8.375679743
 20
63.359087376
 30
1.000000000
 10
6.193237556
 20
63.630184638
 30
1.000000000
 10
4.010074536
 20
63.900635700
 30
1.000000000
 10
1.943386378
 20
63.999652057
 30
1.000000000
 10
0.000020915
 20
64.000000000
 30
1.000000000
 10
-1.943344664
 20
63.999653327
 30
1.000000000
 10
-4.010033060
 20
63.900638069
 30
1.000000000
 10
-6.193196487
 20
63.630187924
 30
1.000000000
 10
-8.375639080
 20
63.359091579
 30
1.000000000
 10
-10.675286295
 20
62.916317890
 30
1.000000000
 10
-13.065187009
 20
62.210675612
 30
1.000000000
 10
-15.454019743
 20
61.504675662
 30
1.000000000
 10
-17.933846060
 20
60.534801544
 30
1.000000000
 10
-20.447718034
 20
59.199269492
 30
1.000000000
 10
-22.960271757
 20
57.864108752
 30
1.000000000
 10
-25.507174392
 20
56.161176097
 30
1.000000000
 10
-27.994112875
 20
53.998383647
 30
1.000000000
 10
-30.479850747
 20
51.837184019
 30
1.000000000
 10
-32.904788814
 20
49.213050231
 30
1.000000000
 10
-35.140106334
 20
46.078153510
 30
1.000000000
 10
-37.374998753
 20
42.946245203
 30
1.000000000
 10
-39.417790649
 20
39.300769306
 30
1.000000000
 10
-41.126789879
 20
35.178337257
 30
1.000000000
 10
-42.836793633
 20
31.059657149
 30
1.000000000
 10
-44.209438458
 20
26.463660643
 30
1.000000000
 10
-45.130977944
 20
21.534098243
 30
1.000000000
 10
-46.055016286
 20
16.607559058
 30
1.000000000
 10
-46.525236858
 20
11.350933762
 30
1.000000000
 10
-46.499069149
 20
5.994828151
 30
1.000000000
  0
SPLINE
  5
A2C
330
A02
100
AcDbEntity
  8
Pocket005
100
AcDbSpline
210
0
220
0
230
1
 70
8
 71
1
 72
4
 73
2
 74
0
 40
0.000340862
 40
0.000340862
 40
0.999659138
 40
0.999659138
 10
46.499068919
 20
5.994828160
 30
1.000000000
 10
46.499068919
 20
5.994828160
 30
-0.000000000
  0
SPLINE
  5
A2D
330
A02
100
AcDbEntity
  8
Pocket005
100
AcDbSpline
210
0
220
0
230
1
 70
8
 71
3
 72
53
 73
49
 74
0
 40
0.498418047
 40
0.498418047
 40
0.498418047
 40
0.498418047
 40
0.561115791
 40
0.561115791
 40
0.561115791
 40
0.623813535
 40
0.623813535
 40
0.623813535
 40
0.686511280
 40
0.686511280
 40
0.686511280
 40
0.749209024
 40
0.749209024
 40
0.749209024
 40
0.811906768
 40
0.811906768
 40
0.811906768
 40
0.874604512
 40
0.874604512
 40
0.874604512
 40
0.937302256
 40
0.937302256
 40
0.937302256
 40
1.000000000
 40
1.000000000
 40
1.000000000
 40
1.062697748
 40
1.062697748
 40
1.062697748
 40
1.125395496
 40
1.125395496
 40
1.125395496
 40
1.188093243
 40
1.188093243
 40
1.188093243
 40
1.250790991
 40
1.250790991
 40
1.250790991
 40
1.313488739
 40
1.313488739
 40
1.313488739
 40
1.376186487
 40
1.376186487
 40
1.376186487
 40
1.438884235
 40
1.438884235
 40
1.438884235
 40
1.501581982
 40
1.501581982
 40
1.501581982
 40
1.501581982
 10
46.499068919
 20
5.994828160
 30
0.000000000
 10
46.525239661
 20
11.350933369
 30
0.000000000
 10
46.055022185
 20
16.607558107
 30
0.000000000
 10
45.130986873
 20
21.534096663
 30
0.000000000
 10
44.209450416
 20
26.463658436
 30
0.000000000
 10
42.836808553
 20
31.059654245
 30
0.000000000
 10
41.126807577
 20
35.178333691
 30
0.000000000
 10
39.417811127
 20
39.300765078
 30
0.000000000
 10
37.375021827
 20
42.946240350
 30
0.000000000
 10
35.140131744
 20
46.078148154
 30
0.000000000
 10
32.904816564
 20
49.213044371
 30
0.000000000
 10
30.479880579
 20
51.837177779
 30
0.000000000
 10
27.994144510
 20
53.998377200
 30
0.000000000
 10
25.507207830
 20
56.161169442
 30
0.000000000
 10
22.960306721
 20
57.864102063
 30
0.000000000
 10
20.447754264
 20
59.199262962
 30
0.000000000
 10
17.933883556
 20
60.534795172
 30
0.000000000
 10
15.454058248
 20
61.504669641
 30
0.000000000
 10
13.065226305
 20
62.210670133
 30
0.000000000
 10
10.675326382
 20
62.916312953
 30
0.000000000
 10
8.375679743
 20
63.359087376
 30
0.000000000
 10
6.193237556
 20
63.630184638
 30
0.000000000
 10
4.010074536
 20
63.900635700
 30
0.000000000
 10
1.943386378
 20
63.999652057
 30
0.000000000
 10
0.000020915
 20
64.000000000
 30
0.000000000
 10
-1.943344664
 20
63.999653327
 30
0.000000000
 10
-4.010033060
 20
63.900638069
 30
0.000000000
 10
-6.193196487
 20
63.630187924
 30
0.000000000
 10
-8.375639081
 20
63.359091579
 30
0.000000000
 10
-10.675286295
 20
62.916317890
 30
0.000000000
 10
-13.065187009
 20
62.210675612
 30
0.000000000
 10
-15.454019743
 20
61.504675662
 30
0.000000000
 10
-17.933846060
 20
60.534801544
 30
0.000000000
 10
-20.447718034
 20
59.199269492
 30
0.000000000
 10
-22.960271757
 20
57.864108752
 30
0.000000000
 10
-25.507174392
 20
56.161176097
 30
0.000000000
 10
-27.994112875
 20
53.998383647
 30
0.000000000
 10
-30.479850747
 20
51.837184019
 30
0.000000000
 10
-32.904788814
 20
49.213050231
 30
0.000000000
 10
-35.140106334
 20
46.078153510
 30
0.000000000
 10
-37.374998753
 20
42.946245203
 30
0.000000000
 10
-39.417790649
 20
39.300769306
 30
0.000000000
 10
-41.126789879
 20
35.178337257
 30
0.000000000
 10
-42.836793633
 20
31.059657149
 30
0.000000000
 10
-44.209438458
 20
26.463660643
 30
0.000000000
 10
-45.130977944
 20
21.534098243
 30
0.000000000
 10
-46.055016286
 20
16.607559058
 30
0.000000000
 10
-46.525236858
 20
11.350933762
 30
0.000000000
 10
-46.499069149
 20
5.994828151
 30
0.000000000
  0
ARC
  5
A2E
330
A02
100
AcDbEntity
  8
Pocket005
100
AcDbCircle
 10
46.250000000
 20
0.000000000
 30
1.000000000
 40
6.000000000
100
AcDbArc
 50
87.620883402
 51
-95.757288710
  0
SPLINE
  5
A2F
330
A02
100
AcDbEntity
  8
Pocket005
100
AcDbSpline
210
0
220
0
230
1
 70
8
 71
1
 72
4
 73
2
 74
0
 40
0.000340862
 40
0.000340862
 40
0.999659138
 40
0.999659138
 10
45.648112204
 20
-5.969734590
 30
1.000000000
 10
45.648112204
 20
-5.969734590
 30
-0.000000000
  0
ARC
  5
A30
330
A02
100
AcDbEntity
  8
Pocket005
100
AcDbCircle
 10
46.250000000
 20
0.000000000
 30
0.000000000
 40
6.000000000
100
AcDbArc
 50
87.620883402
 51
-95.757288710
  0
SPLINE
  5
A31
330
A02
100
AcDbEntity
  8
Pocket005
100
AcDbSpline
210
0
220
0
230
1
 70
8
 71
1
 72
4
 73
2
 74
0
 40
0.000340862
 40
0.000340862
 40
0.999659138
 40
0.999659138
 10
46.499068919
 20
5.994828160
 30
1.000000000
 10
46.499068919
 20
5.994828160
 30
-0.000000000
  0
SPLINE
  5
A32
330
A02
100
AcDbEntity
  8
Pocket005
100
AcDbSpline
210
0
220
0
230
1
 70
8
 71
3
 72
17
 73
13
 74
0
 40
0.175276858
 40
0.175276858
 40
0.175276858
 40
0.175276858
 40
0.244438958
 40
0.244438958
 40
0.244438958
 40
0.313601058
 40
0.313601058
 40
0.313601058
 40
0.382763158
 40
0.382763158
 40
0.382763158
 40
0.451925259
 40
0.451925259
 40
0.451925259
 40
0.451925259
 10
18.910922725
 20
-56.963341859
 30
0.000000000
 10
21.665199731
 20
-54.901030115
 30
0.000000000
 10
24.479989848
 20
-52.301758044
 30
0.000000000
 10
27.236602151
 20
-49.102865293
 30
0.000000000
 10
29.991402563
 20
-45.907129798
 30
0.000000000
 10
32.686892609
 20
-42.107493642
 30
0.000000000
 10
35.152115341
 20
-37.729815545
 30
0.000000000
 10
37.616736379
 20
-33.356876593
 30
0.000000000
 10
39.847042051
 20
-28.403580481
 30
0.000000000
 10
41.653495428
 20
-23.030821970
 30
0.000000000
 10
43.461687622
 20
-17.662611269
 30
0.000000000
 10
44.840202405
 20
-11.878186999
 30
0.000000000
 10
45.648112204
 20
-5.969734590
 30
0.000000000
  0
SPLINE
  5
A33
330
A02
100
AcDbEntity
  8
Pocket005
100
AcDbSpline
210
0
220
0
230
1
 70
8
 71
1
 72
4
 73
2
 74
0
 40
0.000340862
 40
0.000340862
 40
0.999659138
 40
0.999659138
 10
45.648112204
 20
-5.969734590
 30
1.000000000
 10
45.648112204
 20
-5.969734590
 30
-0.000000000
  0
SPLINE
  5
A34
330
A02
100
AcDbEntity
  8
Pocket005
100
AcDbSpline
210
0
220
0
230
1
 70
8
 71
3
 72
17
 73
13
 74
0
 40
0.175276858
 40
0.175276858
 40
0.175276858
 40
0.175276858
 40
0.244438958
 40
0.244438958
 40
0.244438958
 40
0.313601058
 40
0.313601058
 40
0.313601058
 40
0.382763158
 40
0.382763158
 40
0.382763158
 40
0.451925259
 40
0.451925259
 40
0.451925259
 40
0.451925259
 10
18.910922725
 20
-56.963341859
 30
1.000000000
 10
21.665199731
 20
-54.901030115
 30
1.000000000
 10
24.479989848
 20
-52.301758044
 30
1.000000000
 10
27.236602151
 20
-49.102865293
 30
1.000000000
 10
29.991402563
 20
-45.907129798
 30
1.000000000
 10
32.686892609
 20
-42.107493642
 30
1.000000000
 10
35.152115341
 20
-37.729815545
 30
1.000000000
 10
37.616736379
 20
-33.356876593
 30
1.000000000
 10
39.847042051
 20
-28.403580481
 30
1.000000000
 10
41.653495428
 20
-23.030821970
 30
1.000000000
 10
43.461687622
 20
-17.662611269
 30
1.000000000
 10
44.840202405
 20
-11.878186999
 30
1.000000000
 10
45.648112204
 20
-5.969734590
 30
1.000000000
  0
SPLINE
  5
A35
330
A02
100
AcDbEntity
  8
Pocket005
100
AcDbSpline
210
0
220
0
230
1
 70
8
 71
1
 72
4
 73
2
 74
0
 40
0.000340862
 40
0.000340862
 40
0.999659138
 40
0.999659138
 10
18.910922725
 20
-56.963341859
 30
1.000000000
 10
18.910922725
 20
-56.963341859
 30
-0.000000000
  0
SPLINE
  5
A36
330
A02
100
AcDbEntity
  8
Pocket005
100
AcDbSpline
210
0
220
0
230
1
 70
8
 71
1
 72
4
 73
2
 74
0
 40
0.000340862
 40
0.000340862
 40
0.999659138
 40
0.999659138
 10
-46.499069149
 20
5.994828151
 30
1.000000000
 10
-46.499069149
 20
5.994828151
 30
-0.000000000
  0
ARC
  5
A37
330
A02
100
AcDbEntity
  8
Pocket005
100
AcDbCircle
 10
-46.250000000
 20
0.000000000
 30
1.000000000
 40
6.000000000
100
AcDbArc
 50
0.000000000
 51
92.379118794
  0
ARC
  5
A38
330
A02
100
AcDbEntity
  8
Pocket005
100
AcDbCircle
 10
-46.250000000
 20
0.000000000
 30
1.000000000
 40
6.000000000
100
AcDbArc
 50
-84.242776796
 51
-0.000000000
  0
SPLINE
  5
A39
330
A02
100
AcDbEntity
  8
Pocket005
100
AcDbSpline
210
0
220
0
230
1
 70
8
 71
1
 72
4
 73
2
 74
0
 40
0.000340862
 40
0.000340862
 40
0.999659138
 40
0.999659138
 10
-45.648119029
 20
-5.969735279
 30
1.000000000
 10
-45.648119029
 20
-5.969735279
 30
-0.000000000
  0
ARC
  5
A3A
330
A02
100
AcDbEntity
  8
Pocket005
100
AcDbCircle
 10
-46.250000000
 20
0.000000000
 30
0.000000000
 40
6.000000000
100
AcDbArc
 50
-84.242776796
 51
-0.000000000
  0
ARC
  5
A3B
330
A02
100
AcDbEntity
  8
Pocket005
100
AcDbCircle
 10
-46.250000000
 20
0.000000000
 30
0.000000000
 40
6.000000000
100
AcDbArc
 50
0.000000000
 51
92.379118794
  0
ENDSEC
  0
SECTION
  2
OBJECTS
  0
DICTIONARY
  5
F000
330
0
100
AcDbDictionary
  3
ACAD_GROUP
350
F001
  0
DICTIONARY
  5
F001
330
F000
100
AcDbDictionary
  0
ENDSEC
  0
EOF